<?xml version="1.0" encoding="utf-8"?>
<!-- Generator: Adobe Illustrator 23.0.2, SVG Export Plug-In . SVG Version: 6.00 Build 0)  -->
<svg version="1.1" id="Layer_1" xmlns="http://www.w3.org/2000/svg" xmlns:xlink="http://www.w3.org/1999/xlink" x="0px" y="0px"
	 viewBox="0 0 512 342.4" style="enable-background:new 0 0 512 342.4;" xml:space="preserve">
<style type="text/css">
	.st0{fill:#042954;}
	.st1{fill:#2BB673;stroke:#2BB673;stroke-width:0.5;stroke-miterlimit:10;}
	.st2{fill:#FFFFFF;}
	.st3{fill:#39B54A;stroke:#2BB673;stroke-width:0.5;stroke-miterlimit:10;}
</style>
<g>
	<g>
		<path class="st0" d="M11.1,266.4c0-5.9,0.9-11.1,2.6-15.6c1.8-4.5,4.1-8.2,7.1-11.2c2.9-3,6.3-5.2,10.1-6.7s7.7-2.3,11.6-2.3
			c9.3,0,16.5,2.9,21.7,8.7s7.8,14.4,7.8,25.8c0,0.8,0,1.8-0.1,2.9c0,1.1-0.1,2.1-0.2,2.9H27.4c0.4,5.4,2.3,9.6,5.7,12.6
			c3.4,3,8.3,4.5,14.8,4.5c3.8,0,7.2-0.3,10.4-1c3.1-0.7,5.6-1.4,7.4-2.2l2,12.8c-0.8,0.4-2,0.9-3.5,1.4s-3.2,0.9-5.2,1.3
			c-1.9,0.4-4,0.7-6.2,1s-4.5,0.4-6.8,0.4c-5.9,0-11.1-0.9-15.5-2.6c-4.4-1.8-8-4.2-10.8-7.4c-2.8-3.1-5-6.8-6.3-11.1
			C11.8,276.1,11.1,271.5,11.1,266.4z M27.5,259.4h28.9c0-2.1-0.3-4.2-0.9-6.1c-0.6-1.9-1.5-3.6-2.6-5c-1.2-1.4-2.6-2.5-4.2-3.4
			c-1.7-0.8-3.7-1.2-6-1.2c-2.4,0-4.5,0.5-6.3,1.4s-3.3,2.1-4.6,3.6s-2.2,3.1-2.9,5C28.2,255.5,27.7,257.4,27.5,259.4z"/>
		<path class="st0" d="M56.9,322.1l2.1-12.8c1.9,0.6,4.2,0.9,6.8,0.9c3.6,0,6.1-1,7.6-3.1s2.2-5.3,2.2-9.5v-65.2h15.6V298
			c0,8.8-2.1,15.3-6.3,19.5c-4.2,4.2-10.2,6.3-18,6.3c-1.1,0-2.7-0.1-4.7-0.3C60.2,323.1,58.4,322.7,56.9,322.1z M73.6,212.7
			c0-3,0.9-5.4,2.8-7.1c1.9-1.7,4.2-2.6,6.9-2.6c2.6,0,4.8,0.9,6.7,2.6s2.8,4.1,2.8,7.1c0,2.9-0.9,5.3-2.8,7s-4.1,2.5-6.7,2.5
			s-4.9-0.8-6.8-2.5C74.6,217.9,73.6,215.6,73.6,212.7z"/>
		<path class="st0" d="M97.3,270.1v-37.7h15.6v35.3c0,7.2,1.1,12.4,3.2,15.5s5.8,4.7,11,4.7c1.9,0,3.9-0.1,6-0.3
			c2.1-0.2,3.7-0.4,4.7-0.7v-54.5h15.6v65.3c-3,0.8-6.9,1.6-11.7,2.4s-10.1,1.3-15.8,1.3c-5.4,0-9.9-0.8-13.6-2.3s-6.6-3.7-8.8-6.4
			c-2.2-2.7-3.8-6-4.7-9.8C97.8,278.9,97.3,274.7,97.3,270.1z"/>
		<path class="st0" d="M160.3,299.7v-65.1c3-0.8,7-1.7,11.8-2.5s10-1.2,15.4-1.2c4.7,0,8.5,0.6,11.4,1.8c3,1.2,5.4,2.8,7.4,4.8
			c1-0.7,2.2-1.4,3.6-2.2c1.4-0.8,3.1-1.5,4.9-2.2c1.8-0.7,3.7-1.2,5.7-1.7s4-0.7,6.1-0.7c5.2,0,9.6,0.8,13,2.3s6.1,3.6,8,6.3
			s3.3,6,4,9.8c0.7,3.8,1.1,8,1.1,12.6v37.9H237v-35.3c0-7-0.9-12.1-2.6-15.3c-1.7-3.1-5-4.7-9.9-4.7c-2.5,0-4.8,0.4-7.1,1.2
			c-2.2,0.8-3.9,1.6-5.1,2.4c0.7,2.1,1.1,4.4,1.4,6.8c0.3,2.4,0.4,5,0.4,7.7v37.2h-15.6v-35.3c0-7-0.9-12.1-2.6-15.3
			c-1.8-3.1-5.1-4.7-9.9-4.7c-1.7,0-3.6,0.1-5.7,0.4c-2.1,0.3-3.6,0.5-4.6,0.7v54.2L160.3,299.7L160.3,299.7z"/>
		<path class="st0" d="M254,279c0-3.8,0.8-7,2.3-9.6s3.5-4.8,6.1-6.4c2.6-1.7,5.5-2.8,8.9-3.5s6.9-1.1,10.6-1.1
			c1.7,0,3.5,0.1,5.4,0.3c1.9,0.2,3.9,0.6,6.1,1.1v-2.6c0-1.8-0.2-3.5-0.7-5.2c-0.4-1.6-1.2-3.1-2.3-4.3c-1.1-1.2-2.5-2.2-4.2-2.9
			c-1.8-0.7-4-1-6.7-1c-3.6,0-6.9,0.3-9.9,0.8s-5.4,1.1-7.3,1.8l-2-13c2-0.6,4.9-1.1,8.7-1.7c3.8-0.6,7.8-0.9,12.1-0.9
			c5.3,0,9.7,0.6,13.3,1.9c3.6,1.3,6.5,3.1,8.6,5.4s3.7,5.1,4.6,8.4s1.4,6.9,1.4,10.9V298c-2.4,0.5-6.1,1.2-11.1,2
			s-10.6,1.2-16.8,1.2c-4,0-7.7-0.4-11.1-1.2c-3.4-0.8-6.2-2.1-8.6-3.8c-2.4-1.7-4.2-4-5.5-6.8C254.7,286.6,254,283.1,254,279z
			 M269.6,278.7c0,3.6,1.2,6,3.5,7.4s5.5,2.1,9.4,2.1c4.8,0,8.5-0.2,10.9-0.7v-16.7c-0.8-0.2-2.1-0.5-3.7-0.7s-3.5-0.4-5.4-0.4
			c-1.7,0-3.5,0.1-5.2,0.4s-3.3,0.7-4.8,1.4c-1.4,0.7-2.5,1.6-3.4,2.8C270.1,275.3,269.6,276.9,269.6,278.7z"/>
		<path class="st1" d="M314.7,202.5l15.6-2.6v33.3c1.7-0.6,3.7-1.2,6-1.6c2.3-0.5,4.5-0.7,6.7-0.7c5.4,0,9.9,0.8,13.5,2.3
			s6.4,3.6,8.6,6.3s3.7,5.9,4.6,9.7s1.4,8,1.4,12.6v37.9h-15.6v-35.3c0-3.6-0.2-6.7-0.7-9.2c-0.5-2.5-1.3-4.6-2.3-6.2
			c-1.1-1.6-2.5-2.8-4.3-3.5s-4-1.1-6.7-1.1c-2.1,0-4.2,0.2-6.3,0.7s-3.7,0.8-4.8,1.2v53.5h-15.6v-97.3H314.7z"/>
		<path class="st1" d="M375.9,270.1v-37.7h15.6v35.3c0,7.2,1.1,12.4,3.2,15.5s5.8,4.7,11,4.7c1.9,0,3.9-0.1,6-0.3s3.7-0.4,4.7-0.7
			v-54.5H432v65.3c-3,0.8-6.9,1.6-11.7,2.4c-4.8,0.8-10.1,1.3-15.8,1.3c-5.4,0-9.9-0.8-13.6-2.3c-3.6-1.6-6.6-3.7-8.8-6.4
			c-2.2-2.7-3.8-6-4.7-9.8C376.4,278.9,375.9,274.7,375.9,270.1z"/>
		<path class="st1" d="M438.9,297.7v-95.3l15.6-2.6v34.9c1.8-1,4-1.9,6.6-2.6c2.6-0.8,5.5-1.2,8.7-1.2c4.8,0,9.1,0.8,12.8,2.5
			c3.8,1.7,6.9,4.1,9.4,7.2c2.5,3.1,4.4,6.8,5.8,11.2c1.3,4.3,2,9.1,2,14.3c0,5.4-0.8,10.3-2.4,14.6c-1.6,4.3-3.9,8-6.9,11.1
			s-6.6,5.5-10.8,7.1c-4.2,1.6-9,2.4-14.4,2.4c-5.2,0-10.1-0.4-14.8-1.2C445.9,299.5,442,298.6,438.9,297.7z M454.5,286.9
			c1.1,0.3,2.6,0.5,4.3,0.7c1.7,0.2,3.8,0.3,6.3,0.3c5.7,0,10.3-2,13.5-5.9s4.9-9.3,4.9-16.2c0-6.6-1.3-11.8-3.9-15.7
			c-2.6-3.8-6.8-5.8-12.4-5.8c-2.6,0-5,0.4-7.3,1.2s-4.1,1.6-5.4,2.6V286.9z"/>
	</g>
</g>
<g>
	<g>
		<g>
			<circle class="st0" cx="255.4" cy="111.2" r="103.1"/>
			<g>
				
					<rect x="186.5" y="110.4" transform="matrix(0.7071 -0.7071 0.7071 0.7071 -3.7683 213.1626)" class="st2" width="137.9" height="1.4"/>
				
					<rect x="254.8" y="42.2" transform="matrix(0.7071 -0.7071 0.7071 0.7071 -3.777 213.209)" class="st2" width="1.4" height="137.9"/>
			</g>
		</g>
		<g>
			<path class="st2" d="M246.7,43.3c0.4,0.6,0.8,1.3,1.2,1.9c1.4,2.2,2.8,4.5,4.3,6.7c1.2,1.9,2.4,3.9,3.7,5.8
				c1.4,2.2,2.7,4.3,4.1,6.5c0.4,0.6,0.8,1.2,1.1,1.8c0,0.1,0.1,0.1,0.2,0.1c0.3,0,0.5,0.2,0.6,0.4c0.1,0.1,0.1,0.2,0.2,0.3
				c0.3,0.8,0.9,1.2,1.7,1.5c0.7,0.2,1.5,0.5,2.2,0.7c1.5,0.6,2.7,1.6,3.4,3.1c0.6,1.2,0.8,2.6,0.5,3.9c-0.5,2.2-2.7,3.8-4.9,3.6
				c-2-0.2-3.4-1.2-4.4-2.8c-0.7-1.1-1-2.3-1-3.6c0-0.5-0.1-1.1,0-1.6c0-0.7-0.2-1.4-0.5-2.1c-0.1-0.2-0.2-0.4-0.3-0.6
				c-0.3-0.6-0.3-0.8,0.1-1.3c-0.2-0.4-0.6-0.8-1.1-1c-0.3-0.2-0.7-0.3-1-0.4c-0.6-0.2-1.2-0.4-1.8-0.8c-0.4-0.2-0.6-0.6-0.7-1
				c-0.8-1.9-1.6-3.9-2.4-5.8c-0.8-1.8-1.5-3.6-2.3-5.4c-0.6-1.5-1.3-3-1.9-4.5c-0.5-1.1-1-2.3-1.5-3.4
				C245.6,44.6,245.9,43.8,246.7,43.3z M268.3,75c0-1.1-0.3-2-0.9-2.9c-0.7-1.1-1.7-1.8-3-2c-1.6-0.3-3,0.7-3.4,2.3
				c-0.2,0.8-0.1,1.6,0.2,2.3c0.6,1.6,1.6,2.7,3.3,3.2c1.1,0.3,2,0.1,2.8-0.7C268,76.5,268.3,75.7,268.3,75z M256.2,60.2
				c-0.5,0.8-1,1.5-1.5,2.3c0.6,0.2,1.2,0,1.6-0.5C256.8,61.4,256.7,60.7,256.2,60.2z M255.7,59.8c-0.6-0.2-1.3,0-1.7,0.6
				c-0.3,0.5-0.2,1.2,0.2,1.7C254.7,61.3,255.2,60.6,255.7,59.8z"/>
			<path class="st2" d="M252,62.5c0.2,0.4,0.4,0.8,0.5,1.3c0.2,0.5,0.5,1.1,0.7,1.6c0,0.1,0,0.2,0,0.3c-0.4,0.6-0.7,1.2-1.1,1.9v0.1
				c0.1,0.1,0.1,0.1,0.2,0.2c0.3,0.4,0.3,0.8,0.1,1.2c-0.2,0.4-0.4,0.9-0.6,1.3c-0.2,0.4-0.2,0.9-0.2,1.3c-0.1,1,0,1.9-0.2,2.9
				c-0.3,1.9-1.3,3.5-3,4.4c-1.4,0.8-3,1-4.5,0.3c-1.7-0.8-2.7-2.2-2.9-4.1c-0.2-2.5,1.2-4.8,3.5-5.9c0.8-0.3,1.6-0.6,2.3-0.9
				c0.3-0.1,0.7-0.2,1-0.4c0.5-0.2,0.8-0.7,1.1-1.2c0.1-0.2,0.2-0.3,0.3-0.5c0.1-0.1,0.3-0.1,0.4-0.2c0.1,0,0.2-0.1,0.2-0.1
				C250.5,64.8,251.2,63.7,252,62.5L252,62.5z M249.9,73.2c0-0.2,0-0.4-0.1-0.6c-0.2-1-0.6-1.8-1.6-2.3c-0.9-0.4-1.8-0.4-2.7,0
				c-0.8,0.3-1.5,0.9-2,1.7c-0.8,1.2-1.1,2.4-0.8,3.8c0.4,1.5,1.9,2.5,3.4,2.2C248.2,77.5,249.9,75.4,249.9,73.2z"/>
			<path class="st2" d="M258.6,60.1c-0.3-0.4-0.5-0.8-0.8-1.2c-0.6-0.9-1.2-1.8-1.7-2.7c0-0.1,0-0.2,0-0.3c1.4-2.3,2.9-4.5,4.3-6.8
				c1.2-1.9,2.4-3.8,3.6-5.6c0-0.1,0.1-0.1,0.1-0.2c0.7,0.4,1,1.3,0.7,2.1c-0.5,1.2-1,2.4-1.5,3.6c-0.9,2.1-1.8,4.1-2.6,6.2
				c-0.7,1.6-1.4,3.2-2,4.8C258.7,60,258.7,60,258.6,60.1z"/>
		</g>
		<g>
			<path class="st2" d="M202.3,111.6c0.3,0.2,0.6,0.4,0.9,0.5c0.3,0.2,0.6,0.3,0.8,0.5c0.1,0.1,0.2,0,0.2,0c1.1-1.1,2.2-2.2,3.3-3.3
				c3.2-3.2,6.4-6.4,9.6-9.6c0.2-0.2,0.2-0.3,0.3-0.5c0.1-0.4,0.2-0.9,0.3-1.3c0-0.1,0.1-0.1,0.1-0.2c0.9-0.6,1.7-1.2,2.6-1.8
				c0.6-0.4,1.1-0.8,1.7-1.2c0.1-0.1,0.1,0,0.2,0c0.4,0.4,0.8,0.8,1.2,1.2c0.1,0.1,0.1,0.1,0,0.2c-1,1.4-2,2.9-3,4.3
				c0,0.1-0.1,0.1-0.2,0.1c-0.5,0.1-0.9,0.3-1.4,0.4c-0.2,0-0.3,0.1-0.5,0.3c-4.3,4.3-8.5,8.5-12.8,12.8c-0.1,0.1-0.1,0.1,0,0.2
				c0.3,0.5,0.6,1,1,1.6c0.1,0.1,0.1,0.2,0,0.2c-0.2,0.2-0.5,0.5-0.7,0.7l-0.1,0.1c-1,0-1.9,0.5-2.6,1.3c-0.6,0.7-1,1.5-1.3,2.4
				c-0.1,0.3-0.1,0.6-0.2,0.8c0,0.1,0,0.1-0.1,0.2c-1.5,1.5-3,3-4.5,4.5c-0.9,0.9-1.9,1.9-2.8,2.8c0,0-0.1,0.1-0.2,0.1
				c-0.6,0-1.2-0.2-1.7-0.5c-1.2-0.6-2.1-1.5-2.6-2.8c-0.2-0.4-0.3-0.9-0.3-1.4c0-0.1,0-0.1,0.1-0.2c2.4-2.4,4.9-4.9,7.3-7.3
				l0.1-0.1c0.7-0.1,1.4-0.3,2.1-0.6c0.7-0.4,1.4-0.9,1.8-1.6c0.4-0.5,0.5-1.1,0.6-1.8v-0.1C201.7,112.2,202,111.9,202.3,111.6z"/>
			<path class="st2" d="M207.3,113.7c1.2-1.2,2.4-2.4,3.6-3.6l0.1,0.1c1.2,1.2,2.4,2.3,3.6,3.5c0.7,0.6,1.3,1.2,2.1,1.7
				c0.3,0.2,0.5,0.3,0.8,0.4c0.1,0,0.1,0,0.2,0c0.5,0,1.1,0,1.6,0.1c2.2,0.3,4,1.3,5.2,3.2c0.5,0.7,0.8,1.5,1.1,2.3v0.1
				c-0.1,0.1-0.1,0.3-0.2,0.4c-0.4-0.2-0.7-0.4-1.1-0.6c-1.2-0.7-2.4-1.4-3.6-2.1c0,0-0.1,0-0.2,0c-0.9,0.5-1.6,1.1-2.1,2
				c-0.3,0.6-0.6,1.2-0.7,1.9c-0.1,0.4-0.1,0.8-0.1,1.2c0,0.1,0,0.1,0.1,0.2c1.5,0.9,3,1.7,4.5,2.6l0.1,0.1
				c-0.1,0.3-0.3,0.6-0.4,0.8c0,0-0.1,0.1-0.1,0c-0.6,0-1.3,0-1.9-0.1c-0.5,0-1-0.1-1.5-0.2c-1.2-0.2-2.4-0.6-3.3-1.4
				c-0.6-0.5-1-1.2-1.2-1.9c-0.3-0.9-0.4-1.9-0.4-2.9c0-0.4-0.1-0.8-0.3-1.1c-0.3-0.6-0.7-1.1-1.2-1.6
				C210.5,117,208.9,115.4,207.3,113.7C207.4,113.8,207.4,113.7,207.3,113.7z"/>
			<path class="st2" d="M204.6,110.9c-0.3-0.3-0.6-0.7-1-1c-1-0.9-1.9-1.9-2.9-2.7c-0.6-0.5-1.1-0.9-1.8-1.3
				c-0.3-0.1-0.5-0.2-0.8-0.2c-0.7,0-1.4-0.1-2-0.2c-0.9-0.2-1.7-0.5-2.4-0.9c-0.8-0.5-1.5-1.2-2-2s-0.9-1.6-1.2-2.5V100
				c0.1-0.1,0.1-0.2,0.2-0.3c0,0,0,0,0-0.1c0.1,0.1,0.3,0.2,0.4,0.2c1.4,0.8,2.8,1.6,4.2,2.4c0,0,0.1,0,0.2,0c1.1-0.6,2-1.5,2.4-2.7
				c0.2-0.4,0.3-0.9,0.3-1.3c0-0.3,0.1-0.6,0.1-0.9c0-0.1,0-0.1-0.1-0.2c-1.5-0.9-3-1.7-4.5-2.6c0,0-0.1,0-0.1-0.1
				c0.1-0.2,0.2-0.5,0.4-0.7c0.1-0.1,0.1-0.2,0.3-0.2c0.8,0,1.5,0.1,2.3,0.1c0.8,0.1,1.5,0.2,2.2,0.5c1,0.3,1.9,0.8,2.5,1.6
				c0.4,0.5,0.6,1,0.8,1.6c0.2,0.8,0.3,1.6,0.3,2.5c0,0.5,0.1,0.9,0.4,1.3c0.4,0.7,1,1.3,1.5,1.9c1.2,1.4,2.6,2.8,3.9,4.1l0.1,0.1
				C207,108.5,205.8,109.7,204.6,110.9z"/>
		</g>
		<g>
			<path class="st2" d="M302.9,101.4c-1.6,1.5-3.1,3.1-4.7,4.7c1.4,1.4,2.7,2.7,4.1,4.1c-0.8,0.8-1.6,1.5-2.3,2.3
				c-0.2,0.2-0.4,0.1-0.5-0.1c-0.6-0.6-1.3-1.3-1.9-1.9s-1.2-1.2-1.8-1.9c-1.6,1.6-3.1,3.1-4.7,4.8c-0.4-0.5-0.9-0.9-1.3-1.3
				c-1.5-1.5-2.9-3-4.5-4.5c-1.4-1.3-2.2-2.9-2.3-4.9c-0.1-2.5,0-4.9,0.8-7.2c0.2-0.7,0.6-1.1,1.3-1.3c2.8-1,5.8-1.1,8.7-0.6
				c1,0.2,1.9,0.6,2.6,1.3C298.5,96.9,300.7,99.1,302.9,101.4z"/>
			<g>
				<path class="st2" d="M322.3,103.6c-0.5-1.2-1.1-2.4-1.7-3.7c0.4-0.3,0.8-0.7,1.2-1c-1.6-1.6-3.2-3.2-4.8-4.8
					c-0.3,0.4-0.7,0.9-1,1.2c-1.3-0.6-2.6-1.3-3.9-1.7c-3.2-1.2-6.5-1.2-9.9-0.2c-0.3,0.1-0.5,0.2-0.3,0.6c4.1,0.8,7.7,2.5,10.7,5.5
					c-0.6,0.7-1.2,1.4-1.8,2.2c0.2,0.2,0.3,0.3,0.4,0.5c-0.1,0.1-0.1,0.2-0.2,0.2c-3.4,3.4-6.8,6.8-10.2,10.2c-2.5,2.5-5,5-7.5,7.5
					c-1.3,1.3-2.6,2.5-4.1,3.5c-0.9,0.7-1.8,1.3-2.7,2c-0.1,0.1-0.2,0.2-0.3,0.3c0.9,1.7,2.2,2.9,3.8,3.8c0.1-0.2,0.3-0.4,0.4-0.5
					c1-1.3,1.9-2.6,2.9-3.8c0.5-0.6,1-1.2,1.5-1.7c2.5-2.5,5-5,7.5-7.5c0.1-0.1,9.5-9.3,11.5-11.4c0.1,0.1,0.3,0.2,0.4,0.4
					c0.7-0.6,1.4-1.2,2.2-1.8c3,3,4.7,6.7,5.4,10.8c0.4,0.2,0.5-0.1,0.6-0.4C323.7,110.3,323.5,107,322.3,103.6z"/>
				<path class="st2" d="M303.4,116.2c1.3,1.3,2.6,2.6,3.9,3.9c3.1,3.1,6.2,6.2,9.3,9.3c0.8-0.8,1.7-1.6,2.6-2.5
					c-3.1-3.1-6.3-6.2-9.4-9.3c-1.3-1.3-2.6-2.6-3.9-3.9"/>
			</g>
		</g>
		<path class="st2" d="M255.4,153.9c1.6-1.6,2.9-2.9,4.6-4.5c-0.7-0.6-1.4-1.1-2.1-1.7c-0.7-0.6-0.8-1.3-0.1-2
			c2.5-2.7,5-5.5,7.5-8.2c0.6-0.7,1.3-0.6,2,0c2.1,2.1,4.2,4.3,6.4,6.4c0.6,0.6,0.6,1.2,0,1.8c-2.8,2.6-5.5,5.1-8.4,7.6
			c-0.3,0.3-1.4,0.1-1.8-0.2c-0.7-0.5-1.2-1.4-1.9-2.1c-1.6,1.6-3,3-4.5,4.5c3.1,3.6,4.5,2.5,4.5,2.5c3.8,3.7,8.1,8,11.8,11.7
			c0.4,0.4,0.9,1,1,1.6c0.3,1.2-0.1,2.2-1.2,2.8c-1.2,0.7-2.3,0.4-3.3-0.5c-3.9-3.9-7.8-7.8-11.7-11.7c-0.2-0.2-0.5-0.4-0.4-0.5
			c1-1.3-2.6-4.2-2.6-4.2c-1.1,1.2-1.7,1.8-2.6,2.8c1,1,0.5,1.7-0.4,2.6c-3.7,3.6-7.3,7.2-10.9,10.8c-1.5,1.5-3,1.6-4.1,0.5
			c-1.1-1.2-1-2.7,0.5-4.1c3.7-3.7,7.3-7.3,11-11c0.8-0.8,1.5-1.3,2.4-0.3c1-1,1.8-1.9,2.7-2.8c-1.7-1.6-3.4-3.3-5-4.8
			c-1.3,0.3-2.6,0.8-3.9,0.8c-3.1,0.1-5.8-1.9-6.6-4.8c-0.9-2.9,0.3-6.1,2.8-7.7c2.5-1.7,5.7-1.5,8.1,0.4c2.4,1.9,3.3,5.2,2,7.9
			c-0.5,1.2-0.4,1.8,0.5,2.6C253,151.2,254.2,152.6,255.4,153.9z M269.5,142.2c0.1-0.5-0.4-0.8-0.6-0.6c-0.3,0.1-0.5,0.3-0.7,0.5
			c-1.9,1.9-3.8,3.7-5.7,5.7c-0.3,0.3-0.8,0.9-0.5,1.2c0.3,0.3,0.9-0.2,1.2-0.5c1.8-1.8,3.6-3.6,5.5-5.4
			C268.9,142.8,269.4,142.4,269.5,142.2z M265.9,150.8c0.7-0.7,3.9-3.6,6.5-6c0.4-0.9-0.4-0.9-0.8-0.6c-0.8,0.6-2.9,2.4-6.6,5.8
			C263.9,151.1,265,151.7,265.9,150.8z M266.6,139.1c-0.1-0.2-0.4-0.5-0.6-0.3c-1.8,1.7-4.2,4.6-6.3,7c-0.1,0.2-0.3,0.7,0,0.8
			c0.3,0.2,0.7-0.1,0.9-0.3c1.9-2,3.7-4.1,5.6-6.2C266.5,139.9,266.7,139.4,266.6,139.1z M240.3,168.9c-1.1,1.1-1.6,1.4-2,2.2
			c-0.2,0.4-0.2,1.2,0.1,1.6c0.2,0.3,1.1,0.3,1.4,0.1c0.8-0.6,1.5-1.4,2.2-2.1C241.4,170,241.1,169.8,240.3,168.9z M268.9,170.5
			c0,0,1.4,1.6,2.2,2.2c0.5,0.4,1,0.2,1.3,0c0.3-0.1,0.6-0.8,0.5-1c-0.3-1-1.5-2.1-2.4-2.8L268.9,170.5z"/>
	</g>
	<g>
		<path class="st3" d="M255.4,22.6c-48.9,0-88.6,39.6-88.6,88.6c0,48.9,39.6,88.6,88.6,88.6s88.6-39.6,88.6-88.6
			C344,62.3,304.3,22.6,255.4,22.6z M255.4,198.5c-48.2,0-87.3-39.1-87.3-87.3s39.1-87.3,87.3-87.3s87.3,39.1,87.3,87.3
			S303.6,198.5,255.4,198.5z"/>
	</g>
</g>
<g>
	<g>
		<path class="st0" d="M113.7,312h-6.9v18.7h-1.7V312h-6.9v-1.5h15.5V312z"/>
		<path class="st0" d="M131.9,330.7h-1.7v-9.6h-11.5v9.6H117v-20.1h1.7v9h11.5v-9h1.7V330.7z"/>
		<path class="st0" d="M148.1,321h-9.4v8.2h10.8v1.4H137v-20.1h12.4v1.5h-10.7v7.6h9.4L148.1,321L148.1,321z"/>
		<path class="st0" d="M159.9,330.7v-20.1h5.9c1,0,1.9,0.1,2.7,0.3c0.8,0.2,1.5,0.5,2.1,1c0.6,0.4,1,1,1.3,1.6
			c0.3,0.7,0.5,1.5,0.5,2.4c0,0.5-0.1,1-0.2,1.5c-0.1,0.5-0.4,0.9-0.6,1.2c-0.3,0.4-0.6,0.7-1,1s-0.8,0.5-1.3,0.7
			c0.6,0.1,1.1,0.3,1.6,0.6c0.5,0.3,0.9,0.7,1.2,1.1s0.6,0.9,0.8,1.4s0.3,1.1,0.3,1.7c0,0.9-0.2,1.7-0.5,2.4
			c-0.3,0.7-0.7,1.3-1.3,1.8s-1.2,0.8-2,1.1s-1.7,0.4-2.6,0.4h-6.9V330.7z M161.6,319.6h4.6c1.4,0,2.5-0.4,3.3-1s1.2-1.6,1.2-2.8
			c0-1.3-0.4-2.2-1.2-2.9c-0.8-0.6-2-0.9-3.7-0.9h-4.2L161.6,319.6L161.6,319.6z M161.6,321v8.2h5.1c0.7,0,1.4-0.1,2-0.3
			c0.6-0.2,1.1-0.5,1.5-0.8c0.4-0.4,0.7-0.8,0.9-1.3s0.3-1.1,0.3-1.8c0-0.6-0.1-1.1-0.3-1.6s-0.5-0.9-0.9-1.3s-0.9-0.6-1.4-0.9
			c-0.6-0.2-1.3-0.3-2-0.3L161.6,321L161.6,321z"/>
		<path class="st0" d="M179,329.2h9.9v1.4h-11.6v-20.1h1.7L179,329.2L179,329.2z"/>
		<path class="st0" d="M205.3,310.6v13.6c0,1.1-0.2,2.1-0.6,3s-0.9,1.5-1.5,2.1s-1.4,1-2.3,1.3c-0.9,0.3-1.8,0.4-2.8,0.4
			s-1.9-0.1-2.8-0.4c-0.9-0.3-1.6-0.7-2.2-1.3c-0.6-0.6-1.1-1.3-1.5-2.1c-0.4-0.8-0.5-1.8-0.5-3v-13.6h1.7v13.6
			c0,0.9,0.1,1.7,0.4,2.3c0.3,0.7,0.6,1.2,1.1,1.7c0.5,0.4,1,0.8,1.7,1s1.4,0.3,2.2,0.3s1.5-0.1,2.2-0.3c0.7-0.2,1.2-0.6,1.7-1
			s0.8-1,1.1-1.7s0.4-1.4,0.4-2.3v-13.6H205.3z"/>
		<path class="st0" d="M221.1,321h-9.4v8.2h10.8v1.4H210v-20.1h12.5v1.5h-10.7v7.6h9.4L221.1,321L221.1,321z"/>
		<path class="st0" d="M247.3,324.4c-0.1,1-0.4,1.9-0.7,2.7c-0.4,0.8-0.9,1.5-1.5,2.1s-1.4,1-2.2,1.3c-0.9,0.3-1.9,0.4-3,0.4
			s-2.2-0.2-3.1-0.6s-1.7-1-2.4-1.8s-1.2-1.8-1.5-2.9c-0.4-1.1-0.5-2.3-0.5-3.7v-2.5c0-1.4,0.2-2.6,0.5-3.7c0.4-1.1,0.9-2.1,1.5-2.9
			c0.7-0.8,1.5-1.4,2.4-1.8s2-0.7,3.2-0.7c1.1,0,2,0.1,2.9,0.4s1.6,0.7,2.2,1.3c0.6,0.6,1.1,1.3,1.5,2.1c0.4,0.8,0.6,1.7,0.7,2.8
			h-1.8c-0.1-0.8-0.3-1.5-0.6-2.2c-0.3-0.6-0.6-1.2-1.1-1.6s-1-0.8-1.7-1s-1.4-0.3-2.3-0.3c-0.9,0-1.8,0.2-2.5,0.5
			c-0.7,0.4-1.4,0.9-1.9,1.5c-0.5,0.7-0.9,1.5-1.2,2.4s-0.4,2-0.4,3.1v2.6c0,1.1,0.1,2.1,0.4,3.1c0.3,0.9,0.6,1.7,1.1,2.4
			c0.5,0.7,1.1,1.2,1.8,1.6s1.6,0.6,2.5,0.6c1.8,0,3.1-0.4,4-1.3s1.5-2.1,1.7-3.8h2V324.4z"/>
		<path class="st0" d="M266.3,321.7c0,1.4-0.2,2.7-0.6,3.8c-0.4,1.1-0.9,2.1-1.6,2.9s-1.5,1.4-2.5,1.9s-2,0.7-3.2,0.7
			s-2.2-0.2-3.2-0.7c-1-0.5-1.8-1.1-2.5-1.9s-1.2-1.8-1.6-2.9s-0.6-2.4-0.6-3.8v-2.2c0-1.4,0.2-2.7,0.6-3.8c0.4-1.1,0.9-2.1,1.6-2.9
			s1.5-1.4,2.5-1.9c1-0.4,2-0.7,3.2-0.7s2.3,0.2,3.2,0.7c1,0.4,1.8,1.1,2.5,1.9s1.2,1.8,1.6,2.9s0.6,2.4,0.6,3.8V321.7z
			 M264.6,319.5c0-1.2-0.1-2.3-0.4-3.2s-0.7-1.8-1.2-2.4c-0.5-0.7-1.2-1.2-1.9-1.5c-0.8-0.4-1.6-0.5-2.6-0.5c-0.9,0-1.8,0.2-2.6,0.5
			c-0.8,0.4-1.4,0.9-1.9,1.5c-0.5,0.7-0.9,1.5-1.2,2.4s-0.4,2-0.4,3.2v2.2c0,1.2,0.1,2.3,0.4,3.2s0.7,1.8,1.2,2.4
			c0.5,0.7,1.2,1.2,1.9,1.5c0.8,0.4,1.6,0.5,2.6,0.5s1.8-0.2,2.6-0.5c0.8-0.4,1.4-0.9,1.9-1.5c0.5-0.7,0.9-1.5,1.2-2.4
			s0.4-2,0.4-3.2V319.5z"/>
		<path class="st0" d="M272.3,329.2h9.9v1.4h-11.7v-20.1h1.7L272.3,329.2L272.3,329.2z"/>
		<path class="st0" d="M299.4,321.7c0,1.4-0.2,2.7-0.6,3.8c-0.4,1.1-0.9,2.1-1.6,2.9s-1.5,1.4-2.5,1.9c-1,0.4-2,0.7-3.2,0.7
			s-2.2-0.2-3.2-0.7c-1-0.4-1.8-1.1-2.5-1.9s-1.2-1.8-1.6-2.9s-0.6-2.4-0.6-3.8v-2.2c0-1.4,0.2-2.7,0.6-3.8c0.4-1.1,0.9-2.1,1.6-2.9
			s1.5-1.4,2.5-1.9c1-0.4,2-0.7,3.2-0.7s2.3,0.2,3.2,0.7s1.8,1.1,2.5,1.9s1.2,1.8,1.6,2.9s0.6,2.4,0.6,3.8V321.7z M297.7,319.5
			c0-1.2-0.1-2.3-0.4-3.2s-0.7-1.8-1.2-2.4s-1.2-1.2-1.9-1.5c-0.8-0.4-1.6-0.5-2.6-0.5c-0.9,0-1.8,0.2-2.6,0.5
			c-0.8,0.4-1.4,0.9-1.9,1.5s-0.9,1.5-1.2,2.4s-0.4,2-0.4,3.2v2.2c0,1.2,0.1,2.3,0.4,3.2c0.3,1,0.7,1.8,1.2,2.4
			c0.5,0.7,1.2,1.2,1.9,1.5c0.8,0.4,1.6,0.5,2.6,0.5s1.8-0.2,2.6-0.5c0.8-0.4,1.4-0.9,1.9-1.5c0.5-0.7,0.9-1.5,1.2-2.4
			s0.4-2,0.4-3.2V319.5z"/>
		<path class="st0" d="M311.2,322.3h-5.8v8.4h-1.7v-20.1h6.5c1,0,2,0.1,2.8,0.4s1.6,0.6,2.2,1.1s1.1,1.1,1.4,1.9s0.5,1.6,0.5,2.5
			c0,0.7-0.1,1.3-0.3,1.9c-0.2,0.6-0.5,1.1-0.9,1.6s-0.8,0.9-1.3,1.2c-0.5,0.3-1.1,0.6-1.7,0.8l5,8.6v0.2h-1.8L311.2,322.3z
			 M305.4,320.9h5.2c0.8,0,1.5-0.1,2.1-0.4s1.1-0.6,1.5-1s0.7-0.9,0.9-1.4c0.2-0.5,0.3-1.1,0.3-1.7c0-0.7-0.1-1.3-0.3-1.9
			s-0.6-1-1-1.4s-1-0.7-1.6-0.9c-0.6-0.2-1.4-0.3-2.2-0.3h-4.8v9H305.4z"/>
		<path class="st0" d="M337.4,310.6h1.7v14.1c0,1-0.2,1.9-0.5,2.7s-0.7,1.4-1.3,2c-0.5,0.5-1.2,0.9-1.9,1.2
			c-0.7,0.3-1.6,0.4-2.4,0.4c-0.9,0-1.7-0.1-2.5-0.4c-0.7-0.2-1.4-0.6-1.9-1.1s-0.9-1.1-1.2-1.8s-0.4-1.6-0.4-2.6h1.7
			c0,1.5,0.4,2.5,1.1,3.3s1.8,1.1,3.2,1.1c0.6,0,1.2-0.1,1.7-0.3c0.5-0.2,1-0.5,1.4-0.9s0.7-0.9,0.9-1.5s0.3-1.3,0.3-2.1
			L337.4,310.6L337.4,310.6z"/>
		<path class="st0" d="M359,321.7c0,1.4-0.2,2.7-0.6,3.8c-0.4,1.1-0.9,2.1-1.6,2.9s-1.5,1.4-2.5,1.9c-1,0.4-2,0.7-3.2,0.7
			s-2.2-0.2-3.2-0.7c-1-0.4-1.8-1.1-2.5-1.9s-1.2-1.8-1.6-2.9s-0.6-2.4-0.6-3.8v-2.2c0-1.4,0.2-2.7,0.6-3.8c0.4-1.1,0.9-2.1,1.6-2.9
			s1.5-1.4,2.5-1.9c1-0.4,2-0.7,3.2-0.7s2.3,0.2,3.2,0.7s1.8,1.1,2.5,1.9s1.2,1.8,1.6,2.9s0.6,2.4,0.6,3.8V321.7z M357.3,319.5
			c0-1.2-0.1-2.3-0.4-3.2s-0.7-1.8-1.2-2.4s-1.2-1.2-1.9-1.5c-0.8-0.4-1.6-0.5-2.6-0.5c-0.9,0-1.8,0.2-2.6,0.5
			c-0.8,0.4-1.4,0.9-1.9,1.5s-0.9,1.5-1.2,2.4s-0.4,2-0.4,3.2v2.2c0,1.2,0.1,2.3,0.4,3.2c0.3,1,0.7,1.8,1.2,2.4
			c0.5,0.7,1.2,1.2,1.9,1.5c0.8,0.4,1.6,0.5,2.6,0.5s1.8-0.2,2.6-0.5c0.8-0.4,1.4-0.9,1.9-1.5c0.5-0.7,0.9-1.5,1.2-2.4
			s0.4-2,0.4-3.2V319.5z"/>
		<path class="st0" d="M363.3,330.7v-20.1h5.9c1,0,1.9,0.1,2.7,0.3s1.5,0.5,2.1,1c0.6,0.4,1,1,1.3,1.6c0.3,0.7,0.5,1.5,0.5,2.4
			c0,0.5-0.1,1-0.2,1.5s-0.4,0.9-0.6,1.2s-0.6,0.7-1,1s-0.8,0.5-1.3,0.7c0.6,0.1,1.1,0.3,1.6,0.6c0.5,0.3,0.9,0.7,1.2,1.1
			c0.3,0.4,0.6,0.9,0.8,1.4c0.2,0.5,0.3,1.1,0.3,1.7c0,0.9-0.2,1.7-0.5,2.4c-0.3,0.7-0.7,1.3-1.3,1.8c-0.6,0.5-1.2,0.8-2,1.1
			s-1.7,0.4-2.6,0.4h-6.9V330.7z M365,319.6h4.6c1.4,0,2.5-0.4,3.3-1s1.2-1.6,1.2-2.8c0-1.3-0.4-2.2-1.2-2.9s-2-0.9-3.7-0.9H365
			L365,319.6L365,319.6z M365,321v8.2h5.1c0.7,0,1.4-0.1,2-0.3c0.6-0.2,1.1-0.5,1.5-0.8c0.4-0.4,0.7-0.8,0.9-1.3
			c0.2-0.5,0.3-1.1,0.3-1.8c0-0.6-0.1-1.1-0.3-1.6c-0.2-0.5-0.5-0.9-0.8-1.3c-0.4-0.4-0.9-0.6-1.4-0.9c-0.6-0.2-1.3-0.3-2-0.3
			L365,321L365,321z"/>
		<path class="st0" d="M389.7,310.6l7.4,17.8l7.4-17.8h2.3v20.1h-1.7v-8.8l0.1-9l-7.5,17.7h-1.2l-7.5-17.7l0.1,8.9v8.8h-1.6v-20.1
			h2.2V310.6z"/>
		<path class="st0" d="M423.1,325H414l-2.1,5.6h-1.8l7.6-20.1h1.6l7.6,20.1h-1.8L423.1,325z M414.5,323.6h8.1l-4-11L414.5,323.6z"/>
		<path class="st0" d="M437.4,322.3h-5.8v8.4h-1.7v-20.1h6.5c1,0,2,0.1,2.8,0.4s1.6,0.6,2.2,1.1s1.1,1.1,1.4,1.9s0.5,1.6,0.5,2.5
			c0,0.7-0.1,1.3-0.3,1.9c-0.2,0.6-0.5,1.1-0.9,1.6s-0.8,0.9-1.3,1.2c-0.5,0.3-1.1,0.6-1.7,0.8l5,8.6v0.2h-1.8L437.4,322.3z
			 M431.6,320.9h5.2c0.8,0,1.5-0.1,2.1-0.4s1.1-0.6,1.5-1s0.7-0.9,0.9-1.4c0.2-0.5,0.3-1.1,0.3-1.7c0-0.7-0.1-1.3-0.3-1.9
			s-0.6-1-1-1.4s-1-0.7-1.6-0.9c-0.6-0.2-1.4-0.3-2.2-0.3h-4.8v9H431.6z"/>
		<path class="st0" d="M452.4,320.7l-2.8,2.8v7.2h-1.7v-20.1h1.7v10.8l2.7-2.9l7.6-8h2.1l-8.4,9l9.1,11.2h-2.1L452.4,320.7z"/>
		<path class="st0" d="M476.8,321h-9.4v8.2h10.8v1.4h-12.5v-20.1h12.4v1.5h-10.8v7.6h9.4v1.4H476.8z"/>
		<path class="st0" d="M495.7,312h-6.9v18.7h-1.7V312h-6.9v-1.5h15.5V312z"/>
	</g>
</g>
</svg>
