<?xml version="1.0" encoding="utf-8"?>
<!-- Generator: Adobe Illustrator 23.0.2, SVG Export Plug-In . SVG Version: 6.00 Build 0)  -->
<svg version="1.1" id="Layer_1" xmlns="http://www.w3.org/2000/svg" xmlns:xlink="http://www.w3.org/1999/xlink" x="0px" y="0px"
	 viewBox="0 0 512 512" style="enable-background:new 0 0 512 512;" xml:space="preserve">
<style type="text/css">
	.st0{fill:#042954;}
	.st1{fill:#FFFFFF;}
	.st2{fill:#39B54A;stroke:#2BB673;stroke-width:0.5;stroke-miterlimit:10;}
</style>
<g>
	<g>
		<g>
			<circle class="st0" cx="255.7" cy="256.5" r="252"/>
			<g>
				
					<rect x="254" y="88" transform="matrix(0.7071 0.7071 -0.7071 0.7071 256.3061 -105.6862)" class="st1" width="3.5" height="337.2"/>
				
					<rect x="254" y="88" transform="matrix(-0.7071 0.7071 -0.7071 -0.7071 617.9594 257.1242)" class="st1" width="3.5" height="337.2"/>
			</g>
		</g>
		<g>
			<path class="st1" d="M234.3,90.6c1,1.6,2,3.1,3,4.7c3.5,5.5,6.9,10.9,10.4,16.4c3,4.7,6,9.4,9,14.1c3.4,5.3,6.7,10.6,10.1,15.8
				c0.9,1.5,1.9,2.9,2.8,4.4c0.1,0.1,0.3,0.3,0.4,0.3c0.7-0.1,1.1,0.4,1.5,0.9c0.2,0.3,0.3,0.5,0.4,0.8c0.8,1.9,2.2,3.1,4.3,3.6
				c1.8,0.5,3.6,1.1,5.3,1.8c3.7,1.5,6.5,3.9,8.3,7.5c1.5,3.1,1.9,6.2,1.1,9.6c-1.3,5.4-6.5,9.2-12.1,8.8c-4.8-0.4-8.3-2.8-10.8-6.8
				c-1.7-2.7-2.4-5.6-2.5-8.7c0-1.3-0.1-2.6-0.1-3.9c0.1-1.8-0.4-3.5-1.3-5c-0.3-0.5-0.5-1-0.8-1.5c-0.8-1.4-0.8-2,0.3-3.2
				c-0.6-1.1-1.5-1.9-2.6-2.4c-0.8-0.4-1.7-0.7-2.5-0.9c-1.6-0.4-3-1.1-4.3-1.9c-0.9-0.6-1.4-1.5-1.8-2.4c-2-4.7-4-9.5-6-14.2
				c-1.9-4.4-3.7-8.8-5.6-13.2c-1.5-3.6-3.1-7.3-4.6-10.9c-1.2-2.8-2.4-5.6-3.6-8.4C231.8,93.9,232.4,91.9,234.3,90.6z M287.1,168.1
				c0-2.7-0.7-5-2.1-7.1c-1.8-2.6-4.1-4.4-7.3-5c-3.9-0.7-7.4,1.8-8.2,5.6c-0.4,1.9-0.3,3.9,0.4,5.7c1.4,3.9,4,6.7,8.1,7.8
				c2.6,0.7,4.9,0.1,6.8-1.7C286.5,171.9,287.1,169.8,287.1,168.1z M257.7,131.9c-1.2,1.9-2.4,3.7-3.6,5.5c1.5,0.6,3,0,3.9-1.2
				C259,134.8,258.9,133.2,257.7,131.9z M256.4,131c-1.6-0.6-3.2,0-4.1,1.4c-0.8,1.3-0.6,3,0.5,4.1C254,134.7,255.2,132.9,256.4,131
				z"/>
			<path class="st1" d="M247.4,137.5c0.4,1,0.9,2.1,1.3,3.1c0.6,1.3,1.1,2.6,1.6,3.9c0.1,0.2,0,0.5-0.1,0.6c-0.9,1.5-1.8,3-2.7,4.6
				c0,0.1-0.1,0.1-0.1,0.2c0.2,0.2,0.3,0.4,0.5,0.5c0.7,0.9,0.7,1.9,0.2,2.9c-0.6,1-1.1,2.1-1.6,3.2c-0.5,1-0.4,2.1-0.5,3.2
				c-0.1,2.3-0.1,4.7-0.5,7c-0.8,4.7-3.1,8.4-7.3,10.9c-3.5,2-7.3,2.5-11,0.8c-4.3-1.9-6.6-5.3-7-10c-0.5-6,3-11.8,8.6-14.4
				c1.9-0.8,3.8-1.4,5.7-2.1c0.8-0.3,1.7-0.5,2.4-0.9c1.3-0.6,2-1.8,2.6-3c0.2-0.4,0.4-0.9,0.7-1.2c0.3-0.3,0.7-0.3,1-0.5
				c0.2-0.1,0.4-0.2,0.5-0.3c1.8-2.8,3.5-5.5,5.3-8.3C247.3,137.6,247.3,137.6,247.4,137.5z M242.1,163.8c0-0.5-0.1-1-0.1-1.5
				c-0.4-2.5-1.6-4.5-3.9-5.7c-2.2-1.1-4.4-0.9-6.6,0c-2,0.8-3.7,2.2-4.9,4.1c-1.9,2.8-2.8,5.9-2,9.3c0.9,3.8,4.6,6,8.4,5.3
				C238.1,174.3,242.1,169,242.1,163.8z"/>
			<path class="st1" d="M263.6,131.6c-0.6-1-1.2-1.9-1.8-2.9c-1.4-2.2-2.8-4.4-4.2-6.6c-0.1-0.2-0.1-0.5,0-0.7
				c3.5-5.6,7-11.1,10.6-16.7c2.9-4.6,5.8-9.2,8.8-13.8c0.1-0.2,0.2-0.3,0.3-0.4c1.8,1,2.5,3.2,1.7,5.1c-1.2,2.9-2.5,5.8-3.7,8.7
				c-2.1,5-4.3,10.1-6.4,15.2c-1.7,3.9-3.3,7.8-5,11.7C263.7,131.3,263.7,131.4,263.6,131.6z"/>
		</g>
		<g>
			<path class="st1" d="M125.9,257.7c0.7,0.5,1.4,0.9,2.2,1.3c0.7,0.4,1.3,0.8,2,1.3c0.2,0.2,0.4,0.1,0.5-0.1c2.7-2.7,5.3-5.3,8-8
				c7.8-7.8,15.6-15.6,23.5-23.4c0.4-0.4,0.5-0.8,0.6-1.3c0.3-1.1,0.5-2.2,0.8-3.3c0-0.2,0.2-0.3,0.3-0.4c2.1-1.5,4.2-3,6.4-4.5
				c1.4-1,2.8-1.9,4.2-2.9c0.2-0.1,0.3-0.1,0.5,0.1c0.9,1,1.9,1.9,2.9,2.9c0.2,0.2,0.2,0.3,0.1,0.5c-2.5,3.5-4.9,7-7.4,10.6
				c-0.1,0.2-0.3,0.3-0.5,0.3c-1.1,0.3-2.3,0.6-3.4,0.9c-0.5,0.1-0.8,0.4-1.2,0.7c-10.4,10.4-20.9,20.9-31.3,31.3
				c-0.2,0.2-0.2,0.3-0.1,0.6c0.8,1.3,1.6,2.5,2.4,3.8c0.2,0.2,0.1,0.4-0.1,0.6c-0.6,0.6-1.2,1.2-1.8,1.8c-0.1,0.1-0.2,0.2-0.4,0.2
				c-2.5,0.1-4.6,1.2-6.3,3.1c-1.5,1.7-2.5,3.6-3.2,5.8c-0.2,0.7-0.2,1.4-0.4,2.1c0,0.2-0.1,0.3-0.2,0.4c-3.7,3.7-7.3,7.3-11,11
				c-2.3,2.3-4.5,4.5-6.8,6.8c-0.1,0.1-0.3,0.2-0.5,0.2c-1.5,0-2.8-0.5-4.1-1.1c-2.9-1.5-5-3.8-6.4-6.7c-0.5-1.1-0.8-2.2-0.8-3.4
				c0-0.2,0.1-0.4,0.2-0.5c5.9-6,11.9-11.9,17.8-17.8c0.1-0.1,0.2-0.2,0.3-0.2c1.8-0.1,3.5-0.7,5.1-1.5c1.8-0.9,3.4-2.2,4.5-3.9
				c0.9-1.3,1.3-2.7,1.4-4.3c0-0.1,0-0.3,0.1-0.3C124.5,259.1,125.2,258.4,125.9,257.7z"/>
			<path class="st1" d="M138.1,262.7c3-3,5.9-5.9,8.8-8.8c0.1,0.1,0.2,0.1,0.3,0.2c2.9,2.8,5.8,5.7,8.8,8.5c1.6,1.5,3.3,2.9,5.2,4.1
				c0.6,0.4,1.3,0.7,2,0.9c0.1,0,0.3,0,0.4,0.1c1.3,0.1,2.6,0.1,3.8,0.2c5.4,0.7,9.7,3.1,12.7,7.7c1.2,1.8,2,3.7,2.7,5.7
				c0,0.1,0.1,0.2,0,0.2c-0.2,0.3-0.3,0.7-0.5,1c-0.9-0.5-1.7-1-2.6-1.5c-2.9-1.7-5.9-3.4-8.8-5c-0.1-0.1-0.3-0.1-0.4,0
				c-2.1,1.2-3.8,2.7-5.1,4.8c-0.8,1.4-1.4,2.9-1.7,4.5c-0.2,1-0.2,2-0.3,3c0,0.2,0.1,0.4,0.3,0.5c3.7,2.1,7.4,4.2,11,6.3
				c0.1,0.1,0.2,0.1,0.3,0.2c-0.3,0.7-0.7,1.4-1,2.1c0,0.1-0.2,0.1-0.3,0.1c-1.5-0.1-3.1-0.1-4.6-0.2c-1.2-0.1-2.4-0.2-3.6-0.5
				c-3-0.5-5.8-1.5-8.1-3.5c-1.4-1.3-2.4-2.8-3-4.6c-0.8-2.3-1-4.6-1-7c0-1-0.2-1.8-0.7-2.7c-0.8-1.4-1.8-2.6-2.9-3.9
				c-3.6-4.3-7.7-8.2-11.6-12.2C138.3,262.9,138.2,262.8,138.1,262.7z"/>
			<path class="st1" d="M131.4,256c-0.8-0.8-1.6-1.6-2.4-2.4c-2.3-2.3-4.7-4.6-7.2-6.7c-1.4-1.1-2.7-2.3-4.3-3.1
				c-0.6-0.3-1.3-0.5-2-0.5c-1.7,0-3.3-0.2-4.9-0.5c-2.1-0.4-4.1-1.2-6-2.3c-2-1.2-3.6-2.9-5-4.8c-1.3-1.9-2.2-3.9-2.9-6
				c0-0.1,0-0.2,0-0.3c0.1-0.3,0.3-0.6,0.4-0.8c0,0,0-0.1,0.1-0.1c0.4,0.2,0.7,0.4,1.1,0.6c3.4,2,6.9,3.9,10.3,5.9
				c0.1,0.1,0.3,0.1,0.4,0c2.7-1.6,4.8-3.7,5.9-6.7c0.4-1.1,0.7-2.1,0.8-3.3c0.1-0.8,0.1-1.5,0.2-2.3c0-0.2-0.1-0.4-0.3-0.5
				c-3.7-2.1-7.4-4.2-11.1-6.3c-0.1,0-0.1-0.1-0.2-0.2c0.3-0.6,0.6-1.1,0.9-1.7c0.2-0.4,0.3-0.5,0.7-0.5c1.8,0.1,3.7,0.2,5.5,0.3
				c1.9,0.1,3.7,0.5,5.5,1.1c2.4,0.8,4.6,2,6.2,4c0.9,1.2,1.6,2.6,2,4c0.6,2,0.8,4,0.8,6.1c0,1.2,0.3,2.3,1,3.3
				c1.1,1.6,2.3,3.1,3.6,4.6c3,3.5,6.3,6.7,9.5,10c0.1,0.1,0.2,0.2,0.2,0.3C137.3,250.1,134.4,253,131.4,256z"/>
		</g>
		<g>
			<path class="st1" d="M371.8,232.6c-3.8,3.8-7.6,7.5-11.5,11.4c3.4,3.3,6.7,6.6,10.1,9.9c-2,1.9-3.8,3.8-5.7,5.6
				c-0.6,0.6-0.9,0.2-1.3-0.2c-1.6-1.6-3.2-3.2-4.7-4.7c-1.5-1.5-2.9-3-4.5-4.5c-3.8,3.9-7.6,7.7-11.5,11.6
				c-1.1-1.1-2.1-2.2-3.2-3.3c-3.6-3.6-7.2-7.4-10.9-10.9c-3.5-3.3-5.4-7.1-5.7-11.9c-0.4-6,0-11.9,2.1-17.7
				c0.6-1.7,1.6-2.7,3.2-3.2c7-2.4,14.1-2.8,21.3-1.5c2.4,0.4,4.5,1.5,6.3,3.2C361,221.7,366.3,227.1,371.8,232.6z"/>
			<g>
				<path class="st1" d="M419.2,238.1c-1.1-3-2.7-5.9-4.1-9c0.9-0.8,2-1.7,3.1-2.5c-3.9-3.9-7.8-7.8-11.8-11.7c-0.8,1-1.7,2.1-2.5,3
					c-3.3-1.5-6.3-3.1-9.5-4.3c-7.9-2.8-16-3.1-24.1-0.4c-0.7,0.2-1.2,0.5-0.9,1.4c10,1.9,18.9,6.1,26.3,13.3
					c-1.5,1.8-2.9,3.5-4.3,5.3c0.4,0.4,0.7,0.8,1.1,1.2c-0.2,0.2-0.4,0.4-0.5,0.5c-8.3,8.3-16.6,16.6-24.9,24.9
					c-6.1,6.1-12.2,12.2-18.3,18.3c-3.1,3.2-6.4,6.1-10,8.6c-2.2,1.6-4.4,3.3-6.6,4.9c-0.3,0.2-0.6,0.4-0.8,0.7
					c2.2,4,5.3,7.1,9.3,9.3c0.4-0.5,0.7-0.9,1-1.3c2.3-3.1,4.6-6.3,7-9.3c1.1-1.5,2.4-2.9,3.7-4.2c6.1-6.2,12.2-12.3,18.4-18.4
					c0.2-0.2,23.1-22.8,28.1-27.8c0.3,0.3,0.6,0.6,1,0.9c1.8-1.4,3.5-2.8,5.3-4.3c7.2,7.4,11.4,16.3,13.3,26.3
					c1,0.4,1.2-0.2,1.4-0.9C422.5,254.5,422.2,246.2,419.2,238.1z"/>
				<path class="st1" d="M372.9,268.9c3.2,3.2,6.4,6.4,9.6,9.6c7.6,7.5,15.1,15.1,22.7,22.7c2.1-2,4.1-3.9,6.4-6.1
					c-7.7-7.6-15.3-15.2-22.9-22.8c-3.2-3.2-6.4-6.4-9.6-9.5"/>
			</g>
		</g>
		<path class="st1" d="M255.7,361.1c3.9-3.9,7.2-7.1,11.1-11.1c-1.6-1.3-3.4-2.8-5.1-4.2c-1.8-1.5-1.9-3.1-0.4-4.8
			c6.1-6.7,12.2-13.4,18.4-20c1.6-1.7,3.1-1.6,4.8,0.1c5.1,5.2,10.3,10.4,15.5,15.6c1.6,1.6,1.5,3.1,0,4.5
			c-6.8,6.2-13.5,12.5-20.4,18.5c-0.8,0.7-3.3,0.3-4.4-0.4c-1.8-1.3-3-3.3-4.6-5.2c-4,4-7.3,7.3-10.9,10.9
			c7.6,8.8,10.9,6.1,10.9,6.1c9.4,9.1,19.7,19.4,28.9,28.7c1.1,1.1,2.1,2.5,2.5,4c0.7,2.8-0.2,5.3-2.9,6.8c-3,1.7-5.7,1-8-1.3
			c-9.5-9.5-19-19-28.5-28.6c-0.5-0.5-1.3-0.9-1.1-1.2c2.4-3.2-6.3-10.4-6.3-10.4c-2.8,3-4.1,4.4-6.4,6.9c2.5,2.3,1.1,4.1-1,6.2
			c-9,8.7-17.7,17.7-26.6,26.5c-3.6,3.6-7.4,4-10.1,1.2c-2.8-2.8-2.4-6.5,1.2-10.1c8.9-9,17.9-17.9,26.8-26.9c1.9-2,3.6-3.2,5.8-0.6
			c2.3-2.4,4.5-4.7,6.6-7c-4.1-4-8.3-8-12.2-11.8c-3.1,0.7-6.3,1.9-9.5,2c-7.5,0.3-14.1-4.7-16.2-11.8c-2.1-7.1,0.7-14.8,6.9-18.9
			c6.1-4,14-3.7,19.8,0.9c5.8,4.6,8.1,12.6,5,19.4c-1.3,2.8-1,4.4,1.2,6.4C249.7,354.4,252.6,357.9,255.7,361.1z M290,332.4
			c0.2-1.1-0.9-1.9-1.5-1.5c-0.7,0.4-1.1,0.8-1.6,1.3c-4.7,4.6-9.3,9.2-13.9,13.8c-0.7,0.7-1.9,2.2-1.1,2.9c0.7,0.7,2.2-0.5,2.9-1.1
			c4.5-4.3,8.9-8.8,13.3-13.2C288.8,333.9,289.9,332.9,290,332.4z M281.2,353.4c1.8-1.8,9.5-8.8,16-14.6c0.9-2.2-1.1-2.2-2-1.5
			c-1.9,1.4-7.1,5.8-16.1,14.2C276.4,354.1,279.1,355.6,281.2,353.4z M283,324.8c-0.2-0.5-1-1.1-1.4-0.7
			c-4.3,4.2-10.3,11.3-15.3,17.1c-0.3,0.4-0.6,1.6-0.1,2.1c0.7,0.5,1.8-0.3,2.3-0.8c4.6-5,9.1-10,13.6-15.1
			C282.7,326.7,283.3,325.6,283,324.8z M218.8,397.6c-2.6,2.7-3.9,3.4-5,5.5c-0.5,1-0.4,2.9,0.2,3.9c0.4,0.6,2.7,0.7,3.5,0.1
			c2-1.4,3.6-3.3,5.4-5.1C221.5,400.3,220.8,399.9,218.8,397.6z M288.6,401.5c0,0,3.5,3.8,5.3,5.3c1.2,1,2.3,0.5,3.2,0.1
			c0.7-0.4,1.4-2.1,1.2-2.5c-0.7-2.4-3.7-5.2-5.8-6.8L288.6,401.5z"/>
	</g>
	<g>
		<path class="st2" d="M255.7,40.1C136.2,40.1,39.2,137,39.2,256.5S136.2,473,255.7,473s216.5-96.9,216.5-216.5
			S375.3,40.1,255.7,40.1z M255.7,469.9c-117.9,0-213.4-95.5-213.4-213.4c0-117.9,95.5-213.4,213.4-213.4s213.4,95.5,213.4,213.4
			C469.1,374.4,373.6,469.9,255.7,469.9z"/>
	</g>
</g>
</svg>
