<?xml version="1.0" encoding="utf-8"?>
<!-- Generator: Adobe Illustrator 23.0.2, SVG Export Plug-In . SVG Version: 6.00 Build 0)  -->
<svg version="1.1" id="Layer_1" xmlns="http://www.w3.org/2000/svg" xmlns:xlink="http://www.w3.org/1999/xlink" x="0px" y="0px"
	 viewBox="0 0 512 512" style="enable-background:new 0 0 512 512;" xml:space="preserve">
<style type="text/css">
	.st0{fill:#CFCFE3;}
	.st1{fill:#7E738A;}
	.st2{fill:#FAB085;}
	.st3{fill:#FFF5E8;}
	.st4{fill:#D0D3D9;}
	.st5{fill:#1C3040;}
	.st6{fill:#ED856D;}
	.st7{fill:#F08771;}
	.st8{fill:#7B3B3B;}
	.st9{fill:#8C4A4A;}
	.st10{fill:#686982;}
	.st11{fill:#9699BC;}
	.st12{fill:#F3E300;}
	.st13{fill:#40474F;}
	.st14{fill:#202529;}
	.st15{fill:#A77E14;}
	.st16{fill:#F3CC35;}
	.st17{fill:#F3BF35;}
	.st18{fill:#FDF2D7;}
	.st19{fill:#D2D2D2;}
	.st20{fill:#8B003D;}
	.st21{fill:#F0F2ED;}
	.st22{fill:#FFFFFF;}
	.st23{fill:#B90051;}
	.st24{fill:#FFB500;}
	.st25{fill:#FFCF00;}
</style>
<g>
	<path class="st0" d="M136,477.9L136,477.9c84.7-20.5,173.2-19.9,257.7,1.6l19.3,4.9l-61.7,8.1c-61.4,8.1-123.6,5.4-184.1-7.8
		L136,477.9z"/>
	<g>
		<path class="st1" d="M256.8,415.6c41.2,13.7,84.2,16.6,112.9-13.8c17.3-18.3,22.5-48.3,24-76.9c4-76.3-9.6-157.2-31.3-232.1
			c-4.8-16.4-11.9-33.2-21.5-46.9c-14.6-21-37.4-32.8-59.4-34.7c-22-1.9-43.1,5.1-62.1,15.6c-35.2,19.5-64.2,51-88.3,86.4
			c-17.7,26-33,54.4-45.7,84.5c-8.2,19.5-14.1,41.1-11.6,64.3c3.1,28.3,22.5,50.6,41.2,67.8c22.7,20.9,47.1,39.2,72.7,53.7
			C207.7,394.9,231.9,407.2,256.8,415.6z"/>
		<path class="st1" d="M395.6,384c-7.9-1.1-0.3-28.1,3.3-64.2c3.6-36.2,1.8-67.8,9.7-66.7c7.9,1.1,22.5,34.5,18.9,70.7
			C424,359.9,403.5,385.1,395.6,384z"/>
	</g>
	<g>
		<g>
			<path class="st2" d="M353.3,148.6l-12.4,5.6c0,0,3.5-6.1,2.6-6.3c-0.9-0.1-3.1,3.2-5.3,5.3c-2.3,2.1-2.7,1.6-2.2,3.8
				c0.5,2.2,0.1,2.6-0.5,4.7l-12.1,36.1l-0.1,0.3l-41.9-45.6l-4.7,18.1c4.5,7,32.8,41.1,47.4,42.4c2.8,0.2,5.1-0.7,6.6-3.3
				c3.4-5.8,3.9-11.3,5.1-17.9c1.2-6.5,1.9-13.5,2.6-20c0.4-4,0.7-7.5,1.2-11.2l0.3-2c0,0,7.7-1.8,10.4-3.2c2.1-1.1,3.1-4.9,3.4-6.4
				C353.9,148.7,353.6,148.5,353.3,148.6z"/>
			<polygon class="st3" points="309,180.3 300.4,189.9 295.6,195.3 277.3,174 281.6,152.5 			"/>
			<polygon class="st4" points="300.4,189.9 295.6,195.3 277.3,174 281.6,152.5 284.5,176 			"/>
			<path class="st5" d="M261.7,267.9l1.2,48.9l1.8,154.5c0,0,7.7,6.2,13.2,5.8c5.5-0.4-5.6-6.1-7.8-7.5c-2.2-1.4-1.9-5-1.9-5
				l14-196.8H261.7z"/>
			<path class="st5" d="M242.9,267.9l2.9,202.4c0,1.8-0.2,5.7-1.9,7.2c-2,1.7-8.3,5.1-3,6.3c4.4,1,7-3.3,7.8-4.8
				c0.2-0.3,0.3-0.7,0.3-1l0.3-7.8l14-202.2H242.9z"/>
			<polygon class="st3" points="230.2,330 242.7,262.7 241.8,259.2 215.4,153.7 220.9,152.1 240.3,146.3 249.6,143.6 261.3,146.9 
				281.8,152.8 282.6,257.2 282.7,259.3 288.9,316.6 290.4,330.3 			"/>
			<path class="st2" d="M257.4,147.8l-6.2,5.3l-7.9-4c1.5-1.2,1.9-3.6,1.7-6.1c-0.2-3.8-1.6-7.8-1.6-7.8l10.8,0.7
				c-1.4,3.8-0.7,6.8,0.4,8.7C255.8,146.8,257.4,147.8,257.4,147.8z"/>
			<path class="st6" d="M254.7,144.7c-3.7-0.2-6.8-0.7-9.6-1.7c-0.2-3.8-1.6-7.8-1.6-7.8l10.8,0.7
				C252.8,139.8,253.6,142.7,254.7,144.7z"/>
			<path class="st2" d="M269.8,74.3c0,0,7,6.4,7.2,26.4c0,2.3,0.5,4.7,1.5,6.8c0.5,1,1.9,3,1.9,3s18.6,26.9-17.5,30.9
				c-30,3.3-35.2-19.3-35.8-24.5c-0.6-5.2-6.6-37.8,9.8-44.4C249.7,67.1,261.8,67.1,269.8,74.3z"/>
			<path class="st7" d="M264.9,130.9c0.6-0.1,1.1-0.3,1.5-0.7c0.7-0.6,1.2-1.5,1.2-2.5c0-0.9-0.4-1.9-1-2.6c-0.4-0.5-1-0.9-1.6-1.1
				c-1.1-0.4-2.4-0.2-3.4,0.3c-1.1,0.5-2,1.3-2.8,2.2c-1.4,1.4,0.1,2.9,1.4,3.7C261.6,131.1,263.3,131.3,264.9,130.9z"/>
			<path class="st8" d="M243.4,100.5L243.4,100.5c-1.1-1.2-3-0.7-3.6,0.9c-0.3,1-0.5,2.2-0.5,3.5c-0.1,3.4,1,6.1,2.4,6.1
				c1.4,0,2.6-2.7,2.7-6c0-1.3-0.1-2.5-0.4-3.5C243.9,101.1,243.7,100.8,243.4,100.5z"/>
			<path class="st8" d="M233.9,98c0,0,3.5-1.3,7-0.8c3.5,0.5,6.9,2.2,6.9,2.2s-3.4-5.3-7.4-5.2C236.4,94.3,233.9,98,233.9,98z"/>
			<path class="st8" d="M269,100.4L269,100.4c1.2-1.2,3-0.6,3.5,1.1c0.3,1,0.4,2.2,0.4,3.5c-0.1,3.4-1.3,6.1-2.7,6
				c-1.4,0-2.5-2.8-2.4-6.1c0-1.3,0.2-2.5,0.5-3.5C268.5,101,268.7,100.7,269,100.4z"/>
			<path class="st8" d="M276.1,96.2c0,0-2.7-1-5.2-0.2c-2.5,0.8-4.8,2.7-4.8,2.7s1.9-5.5,4.9-5.7C273.9,92.7,276.1,96.2,276.1,96.2z
				"/>
			<path class="st8" d="M277.6,122c-1.4,0.7-3.1,1-4.6,0.5c-1.4-0.4-2.5-1.5-3.6-2.4c-1.1-1-2.4-2-3.9-2.1c-1.3-0.1-2.3,0.4-2.9,1.2
				c-0.6-0.8-1.6-1.4-2.9-1.2c-1.5,0.2-2.8,1.2-3.9,2.1c-1.1,0.9-2.2,2-3.6,2.4c-1.5,0.5-3.2,0.2-4.6-0.5c-1.4-0.7-2.7-1.7-3.9-2.7
				c1.2,3.8,3.4,7.5,7.1,9c1.2,0.5,2.6,0.7,3.9,0.7c2.1,0.1,4.6-0.7,6.3-2c0.6-0.5,1.1-1,1.5-1.7c0.4,0.6,0.9,1.2,1.5,1.7
				c1.6,1.3,4.2,2.1,6.3,2c1.3-0.1,2.7-0.2,3.9-0.7c3.7-1.4,5.9-5.2,7.1-9C280.3,120.3,279.1,121.4,277.6,122z"/>
			<path class="st6" d="M263.6,109.6c0.5,0.4,0.9,0.9,1.3,1.4c1.3,1.8,2.4,3.7,3.1,5.8c0.6,1.8,0.9,4.1-1.8,3.6
				c-1.2-0.2-2.4-0.6-3.5-1.1c-0.8-0.4-1.7-0.8-2.6-0.6c-1.3,0.2-1.9,0.9-3-0.3c-0.8-0.8-1.2-1.9-0.5-3c0.3-0.5,0.7-0.8,1-1.2
				c0.8-0.9,1.2-2,1.6-3.1c0.8-2.1,1.5-3.6,3.9-2.1C263.3,109.3,263.5,109.5,263.6,109.6z"/>
			<path class="st8" d="M235.6,82c-3.5,2.1-6.2,5.6-7.9,9.3c-1.8,4-0.4,8.2,1,12c0.3,0.7,0.7,1.7,0.4,2.6c-0.2,0.7-0.9,0.7-1.2,1.2
				c-1.1,1.7-0.4,3.4,0.2,5c0.7,1.8,0.9,3.9,1.2,5.8c0.7,4.3,1.8,8.6,4,12.3c0,0-16.8-7.4-18.3-24.2c-0.8-9.2-2.8-33.9,14.3-33.6
				c0,0,3.9-12.1,16.8-13.2c4.6-0.4,9.3-0.3,13.7,1.1c4.2,1.3,8.3,3,12.7,3.8c0.7,0.1,1.6,0.2,2.1-0.4c0.6-0.8-0.1-1.8-0.8-2.5
				c2.5-0.9,5.5,0.5,6.9,2.8c1.4,2.3,1.3,5.3,0.5,7.8c-1.7,5-6.3,8.7-11.3,10.2c-5.5,1.6-11.9,0.4-17.4-0.6c-3.5-0.7-7-1.9-10.6-1.6
				C239.6,80.1,237.5,80.9,235.6,82z"/>
			<path class="st6" d="M229.2,110.1c0-0.2-0.1-0.4-0.3-0.6c-1.4-1.3-8.1-6.7-10.1-2c-2.2,5.1,1.9,13.7,10.8,14.8
				c0.6,0.1,1.1-0.5,1-1.1L229.2,110.1z"/>
			<path class="st9" d="M257.4,64.9c2.1,0.8,4.2,2,5.8,3.4c1.2,1,4.2,3.9,3.4,5.6c-0.7,1.8-3.8,2.4-5.4,2.6c-3.4,0.5-6.9,0.5-10.3,0
				c-1.1-0.2-9.6-1.8-9.2-3c0.1-0.3,0.5-0.5,0.8-0.6c2.1-0.9,4.3-1.9,6.5-2.6c-2.7-0.6-5.4-1.2-8.1-1.9c-0.1,0-0.1,0-0.1-0.1
				c0,0,0-0.1,0-0.1c1.6-3.7,6.6-4.8,10.3-4.7C253.1,63.6,255.3,64.1,257.4,64.9z"/>
			<polygon class="st4" points="242.3,144.6 242.3,149.6 251.3,153.1 250.7,146.3 			"/>
			<polygon class="st4" points="251.2,153.1 252,146.1 257.7,143.1 257.8,148 			"/>
			<polygon class="st4" points="290.4,330.3 272.6,330.2 230.2,330 242.7,262.7 241.8,259.2 244.6,258.8 249.8,258.2 237,161.4 
				254.7,258.4 282.6,257.2 282.7,259.3 283.6,268.1 288.3,311.1 			"/>
			<path class="st10" d="M270.8,175.8c0.2,1.2-0.7,2.2-1.9,2.2s-2.3-1-2.5-2.2c-0.2-1.2,0.7-2.2,1.9-2.2S270.6,174.6,270.8,175.8z"
				/>
			<path class="st10" d="M256,201.4c0.2,1.2-0.7,2.2-1.9,2.2c-1.2,0-2.3-1-2.5-2.2c-0.2-1.2,0.7-2.2,1.9-2.2S255.8,200.2,256,201.4z
				"/>
			<path class="st3" d="M258.5,262.5l21.5-1.4C280,261.2,276.2,281,258.5,262.5z"/>
			<path class="st11" d="M230.2,330l12.5-67.3l-0.9-3.5l-26.4-105.4l5.4-1.6l23.8,106.7l0.8,3.5l13.6-1.9l-11.4,6.3l-0.4,12
				c-0.6,18.6,9.2,44.6,25.4,51.5L230.2,330z"/>
			<path class="st11" d="M231.7,203.8c15-8.2,14.7-18.7,14.7-18.7l-25.6-30.3L231.7,203.8z"/>
			<path class="st2" d="M275.9,151.8c-0.2,0-0.3,0-0.5,0c-1,0.1-2,0.4-3,0.7c-0.5,0.2-1,0.4-1.5,0.7c-0.1,0.1-1,0.7-1,0.7
				c-0.1-0.5,0.2-0.8,0.6-1.1c0.7-0.5,1.5-1,2.2-1.6c0.4-0.3,1-0.6,1.2-1.1c0-0.2-0.2-0.3-0.3-0.3s-0.3,0-0.5,0
				c-1.4,0.2-2.9,0.5-4.2,1.3c-0.3,0.2-1.2,1.1-1.4,0.8c-0.3-0.4,0.5-0.8,0.7-1c0.7-0.5,1.5-1,2.2-1.6c0.4-0.3,1-0.6,1.2-1.1
				c0-0.2-0.2-0.3-0.3-0.3s-0.3,0-0.5,0c-1.1,0.1-2.1,0.4-3.1,0.8c-0.4,0.2-2.2,1.4-2.5,1.2c-0.3-0.3,0.6-0.8,0.8-0.9
				c0.7-0.5,1.5-1,2.2-1.6c0.4-0.3,1-0.6,1.2-1.1c0-0.2-0.2-0.3-0.3-0.3c-0.2,0-0.3,0-0.5,0c-1.9,0.2-4.1,0.8-5.5,2.3
				c-1.4,1.6-0.3,3.4,0.7,4.9c1.6,2.5,3.1,5,4.7,7.5c0.2,0.3,0.4,0.6,0.4,0.9c0.1,0.6-0.1,1.1-0.2,1.7l-15.6,37l-36.7-46
				c-0.5-0.6-1.4-0.6-1.8,0l-0.8,1.2c-4.7,6.6-4.8,15.4-0.2,22c12.4,17.9,37.2,48.2,46.3,35.6c4.2-5.8,6.6-12.6,8.5-19.4
				c1.9-6.7,3.8-13.4,4.4-20.3c0.4-4.8,0.4-9.7,0.5-14.6c0-0.5,0-1-0.1-1.4c-0.2-0.4-1.6-1.3-1.3-1.7c0.2-0.3,0.4-0.4,0.7-0.6
				c0.7-0.5,1.5-1,2.2-1.6c0.4-0.3,1-0.6,1.2-1.1C276.2,152,276.1,151.8,275.9,151.8z"/>
			<path class="st3" d="M215.7,153.6c0,0-6,3.3-6.1,12.6c0,4.7,1.7,9.2,4.5,12.9l14.6,19.9c0,0,11.9-1.8,15.2-12.4l-20.7-27.7
				C221.2,156.4,218.6,154.5,215.7,153.6L215.7,153.6z"/>
			<path class="st3" d="M288.3,311.1c-42.8,0.5-34.2-39.3-34.2-39.3c17.4,9.9,26.3,1.1,29.5-3.6L288.3,311.1z"/>
		</g>
	</g>
</g>
<g>
	<path class="st12" d="M337.2,85.5l33.7,1.4c5.4,0,9.8,4.1,9.8,9.2c0,5.1-4.4,9.2-9.8,9.2l-34.1,1.6c-5.4,0-9.3-5.7-9.3-10.8
		C327.5,91,331.8,85.5,337.2,85.5z"/>
	<path class="st13" d="M358,106.8c0,0,5.8-0.1,6,0.3c0.2,0.4-2.8,2.7-3,8.5c0,0.7-5.7,0-5.7,0s-0.5-4.5,0-5.9
		C355.8,108.3,358,106.8,358,106.8z"/>
	<polygon class="st14" points="383.8,103.8 373.1,105.2 373.1,87.1 383.8,88.5 	"/>
	<path class="st12" d="M336.8,106.8l24.3-1.6c0,0-3.4,2.7-4,4.7c-0.7,2,0,8.3,0,8.3s-2.3,0.5-3.5,1.2c-1.2,0.6-3.9,14.5-3.8,16.4
		c0.1,1.9,2.4,3.3,2.3,4.4c-0.3,3.1-8.8,2.1-10.7,2c-1.8-0.1-4.9-1.7-4.9-4.3c0-1.4,4.6-24.7,4.8-28
		C341.7,106.6,336.8,106.8,336.8,106.8z"/>
	<path class="st13" d="M385.1,89.4c0.8-0.5,8.9-0.1,11.7,0.7c0.9,0.3,3.1,1.9,3.1,1.9v7.8c0,0-2.2,1.9-3.1,2.2
		c-2.7,1-10.4,1-11.5,0.7c-0.5-0.1-1.5-1.6-1.5-1.6V91.1C383.8,91.1,384.6,89.7,385.1,89.4z"/>
	<rect x="399.9" y="94.8" class="st13" width="3.2" height="2.3"/>
	<path class="st13" d="M375,89.2h6.8c0.3,0,0.5,0.2,0.5,0.5c0,0.3-0.2,0.5-0.5,0.5H375c-0.3,0-0.5-0.2-0.5-0.5
		C374.5,89.4,374.7,89.2,375,89.2z"/>
	<path class="st13" d="M375,91.7h6.8c0.3,0,0.5,0.2,0.5,0.5c0,0.3-0.2,0.5-0.5,0.5H375c-0.3,0-0.5-0.2-0.5-0.5
		C374.5,91.9,374.7,91.7,375,91.7z"/>
	<path class="st13" d="M375,94.3h6.8c0.3,0,0.5,0.2,0.5,0.5c0,0.3-0.2,0.5-0.5,0.5H375c-0.3,0-0.5-0.2-0.5-0.5
		C374.5,94.5,374.7,94.3,375,94.3z"/>
	<path class="st13" d="M375,96.8h6.8c0.3,0,0.5,0.2,0.5,0.5c0,0.3-0.2,0.5-0.5,0.5H375c-0.3,0-0.5-0.2-0.5-0.5
		C374.5,97,374.7,96.8,375,96.8z"/>
	<path class="st13" d="M375,99.4h6.8c0.3,0,0.5,0.2,0.5,0.5c0,0.3-0.2,0.5-0.5,0.5H375c-0.3,0-0.5-0.2-0.5-0.5
		C374.5,99.6,374.7,99.4,375,99.4z"/>
	<path class="st13" d="M375,101.9h6.8c0.3,0,0.5,0.2,0.5,0.5c0,0.3-0.2,0.5-0.5,0.5H375c-0.3,0-0.5-0.2-0.5-0.5
		C374.5,102.1,374.7,101.9,375,101.9z"/>
	<path class="st14" d="M394.3,91.2h2.4c0.1,0,0.3,0.1,0.3,0.3s-0.1,0.3-0.3,0.3h-2.4c-0.1,0-0.3-0.1-0.3-0.3S394.2,91.2,394.3,91.2z
		"/>
	<path class="st14" d="M394.3,93h2.4c0.1,0,0.3,0.1,0.3,0.3c0,0.1-0.1,0.3-0.3,0.3h-2.4c-0.1,0-0.3-0.1-0.3-0.3
		C394,93.2,394.2,93,394.3,93z"/>
	<path class="st14" d="M394.3,94.9h2.4c0.1,0,0.3,0.1,0.3,0.3c0,0.1-0.1,0.3-0.3,0.3h-2.4c-0.1,0-0.3-0.1-0.3-0.3
		C394,95,394.2,94.9,394.3,94.9z"/>
	<path class="st14" d="M394.3,96.8h2.4c0.1,0,0.3,0.1,0.3,0.3c0,0.1-0.1,0.3-0.3,0.3h-2.4c-0.1,0-0.3-0.1-0.3-0.3
		C394,96.9,394.2,96.8,394.3,96.8z"/>
	<path class="st14" d="M394.3,98.6h2.4c0.1,0,0.3,0.1,0.3,0.3c0,0.1-0.1,0.3-0.3,0.3h-2.4c-0.1,0-0.3-0.1-0.3-0.3
		C394,98.7,394.2,98.6,394.3,98.6z"/>
	<path class="st14" d="M394.3,100.5h2.4c0.1,0,0.3,0.1,0.3,0.3s-0.1,0.3-0.3,0.3h-2.4c-0.1,0-0.3-0.1-0.3-0.3
		S394.2,100.5,394.3,100.5z"/>
	<path class="st14" d="M387,92.1h2.4c0.1,0,0.3,0.1,0.3,0.3c0,0.1-0.1,0.3-0.3,0.3H387c-0.1,0-0.3-0.1-0.3-0.3
		C386.7,92.2,386.9,92.1,387,92.1z"/>
	<path class="st14" d="M387,90.2h2.4c0.1,0,0.3,0.1,0.3,0.3c0,0.1-0.1,0.3-0.3,0.3H387c-0.1,0-0.3-0.1-0.3-0.3
		C386.7,90.3,386.9,90.2,387,90.2z"/>
	<path class="st14" d="M387,94h2.4c0.1,0,0.3,0.1,0.3,0.3c0,0.1-0.1,0.3-0.3,0.3H387c-0.1,0-0.3-0.1-0.3-0.3
		C386.7,94.1,386.9,94,387,94z"/>
	<path class="st14" d="M387,95.8h2.4c0.1,0,0.3,0.1,0.3,0.3c0,0.1-0.1,0.3-0.3,0.3H387c-0.1,0-0.3-0.1-0.3-0.3
		C386.7,95.9,386.9,95.8,387,95.8z"/>
	<path class="st14" d="M387,97.7h2.4c0.1,0,0.3,0.1,0.3,0.3s-0.1,0.3-0.3,0.3H387c-0.1,0-0.3-0.1-0.3-0.3S386.9,97.7,387,97.7z"/>
	<path class="st14" d="M387,99.5h2.4c0.1,0,0.3,0.1,0.3,0.3s-0.1,0.3-0.3,0.3H387c-0.1,0-0.3-0.1-0.3-0.3S386.9,99.5,387,99.5z"/>
	<path class="st14" d="M387,101.4h2.4c0.1,0,0.3,0.1,0.3,0.3c0,0.1-0.1,0.3-0.3,0.3H387c-0.1,0-0.3-0.1-0.3-0.3
		C386.7,101.5,386.9,101.4,387,101.4z"/>
	<path class="st15" d="M332,91.2h5c0.5,0,0.9,0.4,0.9,0.9c0,0.5-0.4,0.9-0.9,0.9h-5c-0.5,0-0.9-0.4-0.9-0.9
		C331.1,91.6,331.5,91.2,332,91.2z"/>
	<path class="st15" d="M332,95h5c0.5,0,0.9,0.4,0.9,0.9c0,0.5-0.4,0.9-0.9,0.9h-5c-0.5,0-0.9-0.4-0.9-0.9
		C331.1,95.4,331.5,95,332,95z"/>
	<path class="st15" d="M332,98.9h5c0.5,0,0.9,0.4,0.9,0.9c0,0.5-0.4,0.9-0.9,0.9h-5c-0.5,0-0.9-0.4-0.9-0.9
		C331.1,99.3,331.5,98.9,332,98.9z"/>
	<path class="st13" d="M362.4,106.8c0,0-2.9,2.5-3.5,3.5c-0.7,1.2-1.5,5.5-1.5,5.5h-2.5l0.5-9.6L362.4,106.8z"/>
	<path class="st16" d="M350.3,89.2h10.9c3.4,0,6.2,2.8,6.2,6.2c0,3.4-2.9,5.3-6.3,5.3l-10.8,0.9c-3.5,0-6.2-2.8-6.2-6.2
		C344,92,346.8,89.2,350.3,89.2z"/>
	<path class="st17" d="M340.1,139.3c1.9,0.2,6.1-0.3,6.1-1.8c0-1.5,1.4-13.5,2.6-16.4c1.2-2.9,2.7-4.2,2.3-6.1
		c-0.3-1.8,2.2-7.7,3.9-9.9c1.7-2.2,18.1-3.3,18.1-3.3v3c-0.7,0.2-1.5,0.3-2.3,0.3l-10.3,0.5c-1,0.9-2.9,2.7-3.4,4.2
		c-0.7,2,0,8.3,0,8.3s-2.3,0.5-3.5,1.2c-1.2,0.6-3.9,14.5-3.8,16.4c0.1,1.9,2.4,3.3,2.3,4.4c-0.3,3.1-8.8,2.1-10.7,2
		c-1.8-0.1-4.9-1.7-4.9-4.3c0-0.2,0.1-0.9,0.3-1.8C336.8,136.1,338.2,139.1,340.1,139.3z"/>
	<path class="st18" d="M336.4,86.4l34.2,1.1c1.5,0,2.6,1.3,2.6,2.8c0,1.5-1.3,2.6-2.8,2.6l-34.2-1.1c-1.5,0-2.6-1.3-2.6-2.8
		C333.7,87.5,334.9,86.4,336.4,86.4z"/>
	<path class="st18" d="M386,89.9l10.3,1.3c0.5,0.1,3,1.5,2.8,2.9c-0.2,1.5-1.8,1.4-2.4,1.3l-11.3-0.2c-0.5-0.1-0.8-1.3-0.7-2.8
		C384.9,91,385.4,89.8,386,89.9z"/>
</g>
<g>
	<g>
		<rect x="313.9" y="314.8" class="st19" width="105.3" height="141.5"/>
		<polygon class="st20" points="313.9,476.4 322.1,476.4 322.1,322.3 313.9,314.8 		"/>
		<polygon class="st21" points="313.9,314.8 313.9,328.8 350.4,328.8 324.3,315.4 		"/>
		<polygon class="st22" points="307.9,479.1 322.1,479.1 322.1,322.3 307.9,329.3 		"/>
		<polygon class="st20" points="406,322.3 406.2,468.7 424.6,458.2 419.2,314.8 		"/>
		<polygon class="st22" points="406,479.1 413.2,479.1 413.2,329.3 406,322.3 		"/>
		<polygon class="st23" points="307.9,329.3 301.7,479.1 418.1,479.1 413.2,329.3 		"/>
		<polygon class="st19" points="344.5,391 376.6,391 385.9,381.2 335.4,381.2 		"/>
		<polygon class="st22" points="335.4,381.2 344.5,391 344.5,340.5 335.3,340.5 		"/>
		<path class="st21" d="M307.9,329.3c0,0,97.7,2.7,100.1,5.4c2.4,2.8,9.3,119.2,9.3,119.2l-4.1-124.6H307.9z"/>
		<polygon class="st22" points="376.6,391 385.9,381.2 385.9,340.5 376.6,340.5 		"/>
	</g>
	<polygon class="st21" points="345.6,479.1 384.7,479.1 384.1,415.8 	"/>
	<g>
		<rect x="384.1" y="415.8" class="st19" width="52" height="69.8"/>
		<polygon class="st24" points="384.1,495.5 388.2,495.5 388.2,419.5 384.1,415.8 		"/>
		<polygon class="st21" points="384.1,415.9 384.1,429.9 420.7,429.9 394.5,416.5 		"/>
		<polygon class="st22" points="381.2,496.9 388.2,496.9 388.2,419.5 381.2,422.9 		"/>
		<polygon class="st24" points="429.6,419.5 429.6,491.7 438.8,486.5 436.1,415.8 		"/>
		<polygon class="st22" points="429.6,496.9 433.1,496.9 433.1,422.9 429.6,419.5 		"/>
		<polygon class="st25" points="381.2,422.9 378.1,496.9 435.5,496.9 433.1,422.9 		"/>
		<path class="st22" d="M408.1,451c0,0-0.1,0-0.1,0c-10.1-0.2-10.7-20.6-10.7-20.8l-2.5,0.1c0,0.9,0.7,23,13.1,23.2
			c0.1,0,0.1,0,0.2,0c12.3,0,13-22.2,13-23.2l-2.5-0.1C418.6,430.4,418,451,408.1,451z"/>
		<path class="st22" d="M419.9,428.2c-1.4,0-2.6,1.2-2.6,2.6c0,1.4,1.2,2.6,2.6,2.6c1.4,0,2.6-1.2,2.6-2.6
			C422.5,429.3,421.3,428.2,419.9,428.2z"/>
		<path class="st22" d="M396,427.6c-1.4,0-2.6,1.2-2.6,2.6c0,1.4,1.2,2.6,2.6,2.6c1.4,0,2.6-1.2,2.6-2.6
			C398.6,428.8,397.5,427.6,396,427.6z"/>
		<polygon class="st21" points="381.2,422.9 429.6,425.6 435.5,496.9 433.1,422.9 		"/>
	</g>
</g>
</svg>
