<?xml version="1.0" encoding="utf-8"?>
<!-- Generator: Adobe Illustrator 23.0.2, SVG Export Plug-In . SVG Version: 6.00 Build 0)  -->
<svg version="1.1" id="Layer_1" xmlns="http://www.w3.org/2000/svg" xmlns:xlink="http://www.w3.org/1999/xlink" x="0px" y="0px"
	 viewBox="0 0 512 512" style="enable-background:new 0 0 512 512;" xml:space="preserve">
<style type="text/css">
	.st0{fill:#3780FF;}
	.st1{opacity:0.47;fill:#A5B7C6;}
	.st2{fill:#2A2E31;}
	.st3{fill:#3F4549;}
	.st4{fill:#FFFFFF;}
	.st5{fill:#E9E9E9;}
	.st6{fill:#004173;}
	.st7{fill:#D9AE95;}
	.st8{fill:#E8C0A8;}
	.st9{fill:#E58963;}
	.st10{fill:url(#SVGID_1_);}
	.st11{fill:#A56052;}
	.st12{fill:url(#SVGID_2_);}
	.st13{fill:#643619;}
	.st14{fill:#3D150C;}
	.st15{fill:url(#SVGID_3_);}
	.st16{fill:#F4A29D;}
	.st17{fill:#3A2F28;}
	.st18{fill:#FCBF00;}
	.st19{fill:#FFDF00;}
	.st20{fill:#EFAB6B;}
	.st21{fill:#FFC182;}
	.st22{fill:#00B2DD;}
	.st23{fill:#120D0C;}
	.st24{fill:#231E1F;}
	.st25{fill:#009CCC;}
	.st26{fill:#EEAB67;}
	.st27{fill:#FBCA8E;}
	.st28{fill:url(#SVGID_4_);}
	.st29{fill:url(#SVGID_5_);}
	.st30{fill:#994D1D;}
	.st31{fill:url(#SVGID_6_);}
	.st32{fill:#D5E300;}
	.st33{fill:#777776;}
	.st34{fill:#0B547A;}
	.st35{fill:#E2F3FE;}
	.st36{fill:#B2B2B2;}
	.st37{fill:#25292B;}
	.st38{fill:#32373A;}
	.st39{fill:#A1441C;}
	.st40{fill:#B35919;}
	.st41{fill:#EE7F27;}
	.st42{fill:#FEC91E;}
	.st43{fill:none;stroke:#B35919;stroke-width:1.7381;stroke-miterlimit:10;}
	.st44{fill:#250E01;}
	.st45{fill:#3B1600;}
	.st46{fill:#F195A2;}
	.st47{opacity:0.39;fill:url(#SVGID_7_);}
	.st48{fill:none;stroke:#70422C;stroke-width:0.9129;stroke-miterlimit:10;}
	.st49{opacity:0.39;fill:url(#SVGID_8_);}
</style>
<g>
	<g>
		<path class="st0" d="M128.9,400.2c44.3,14.4,91.9,16.1,138.3,11.5c41.1-4.1,84.6-8.5,122.9-26.7c42.7-20.2,52.9-54.2,47.9-99.5
			c-0.2-1.5-0.3-3.1-0.5-4.6c-3.7-30.6-11.4-60.7-22.5-89.4c-8.9-22.8-20.7-49.5-35.9-74.1c-25.3-40.7-60-75.7-106.6-78
			c-28.3-1.5-54.4,14.1-76.5,31.7C132,122,70.3,200.6,57.3,283.4c-4.7,29.5-3.8,65.2,19.3,86.9C90.8,383.7,110.3,394.2,128.9,400.2z
			"/>
		<path class="st0" d="M455.8,337.7c-1.4-6.1-5.4-10.1-11-1.7c-5.5,8.2-5.8,19-11.5,27.3c-5.6,8.1-13,14.9-21.2,20.4
			c-12.1,8.1-25.7,13.5-39.4,18.5c-6,2.2-22.2,5.8-21.1,14.8c0.5,4.3,5.3,6.6,9.5,7.2c15.3,1.9,29-1.1,43.7-6
			c18.4-6.2,34.3-17.8,42.7-35.8c5.3-11.3,8.4-26,8.8-38.4C456.5,341.8,456.3,339.6,455.8,337.7z"/>
		<path class="st0" d="M222.8,28.6c7.1,8.9-15.5,24.8-41.9,45.7c-26.4,20.8-46.7,38.7-53.7,29.8c-7.1-8.9,1.8-41.4,28.2-62.2
			C181.7,21,215.7,19.6,222.8,28.6z"/>
	</g>
	<g>
		<ellipse class="st1" cx="253.6" cy="460.7" rx="62.8" ry="6.6"/>
		<g>
			<path class="st2" d="M222.1,445.4c-0.8,1.4-9.6,8.9-21.1,10.6c-3.2,0.1-1.5,2.9,2.9,3.8c4.4,0.9,19-0.9,24.6-2s6.4-1.8,6.3-3.4
				c-0.1-1.6-0.3-6.8-0.3-6.8L222.1,445.4z"/>
			<path class="st2" d="M271.8,445.3c0,0-0.1,8.3-0.1,9.6s0.8,1.8,2.2,2.5c1.5,0.6,16.4,3.8,30,3.3c2.2-0.2,2.6-2,0.6-2.7
				c-2-0.8-15.8-8.3-18.1-9.8c-2.3-1.5-3.7-4.9-3.7-4.9L271.8,445.3z"/>
			<path class="st3" d="M220.4,299.4c0,0,0.2,134.2,0,146.7c9.2,4.5,15.4,1.9,15.4,1.9l7.4-144L220.4,299.4z"/>
			<path class="st3" d="M273.2,298.2c0,0,0,96,11.3,145.2c-3.1,3.6-13.4,2.6-13.4,2.6l-21.4-142.3L273.2,298.2z"/>
			<path class="st3" d="M225.6,320.9c8.2,6.1,34.3,3.7,44.9-2.8c-0.4-6,0-16.5,0-16.5l-44.5,0.8L225.6,320.9z"/>
			<path class="st4" d="M248.8,197.7c-18.7,0-30.8,9.3-31.5,44.5c-0.7,35.2-2.4,59.7-2.4,59.7s30.8,10.6,62.1,0
				c-0.9-15.8-1.2-49.5-1.6-58.3C273.7,213.5,267.5,197.7,248.8,197.7z"/>
			<path class="st5" d="M262.8,202.3c2.6,9.7,4.3,27.4-2.1,35.6c5.7,3.2,10.8,4.8,14.6,5.5C274.2,222.7,270.8,208.9,262.8,202.3z"/>
			<path class="st5" d="M231.4,202.1c-8.5,5.7-13.7,17.6-14.1,40.1c0,0.5,0,0.9,0,1.4c4-0.6,9.7-2.1,16.3-5.8
				C227,229.6,228.8,211.8,231.4,202.1z"/>
			<path class="st5" d="M246.4,217.5c10.3,0.1,14.2-10.8,15.4-16c-3.5-2.5-7.8-3.8-13-3.8c-6.4,0-12.1,1.1-16.8,4
				C232.5,208.5,235.2,217.4,246.4,217.5z"/>
			<polygon class="st6" points="255.6,268 245.9,282.7 236.2,268 243.6,212.5 248.2,212.5 			"/>
			<path class="st5" d="M247.1,242.2l-30.1,9.4c-0.2,5.7-0.3,11-0.5,16l31.7-13.1l27.7,10.8c-0.1-7.4-0.3-14-0.4-18.4L247.1,242.2z"
				/>
			<path class="st7" d="M256.4,236.3c-11.7,1.7-24.3,2.9-31.1,5.1c2.7,0.8,10,4.4,14.6,8.9c7.6-2.9,15.1-5.9,19.8-7
				c2.2-0.3,6.6-0.7,10.1-0.6C266.6,234.3,260.9,235.6,256.4,236.3z"/>
			<path class="st8" d="M207.6,230.9c-0.1,0.2,3.6,19.1,6,24.3c1.4,3.1,6,2.6,10-3c2.9-4,2.3-9.4,1.8-11.9c-0.5-2.5-3-12.8-3-12.8
				L207.6,230.9z"/>
			<path class="st8" d="M286.1,230.9c0.1,0.2-3.6,19.1-6,24.3c-1.4,3.1-6,2.6-10-3c-2.9-4-2.3-9.4-1.8-11.9c0.5-2.5,3-12.8,3-12.8
				L286.1,230.9z"/>
			<path class="st8" d="M225.4,241.3c3.1-8.3,7.4-5.7,11.9-5c11.9,1.8,24.8,3,31.6,5.2c3.8,1.3,11.6,12.9,8.3,15.5
				c-7.1,0.9-32.1-11.7-42.6-14.3C232,242,229,241.2,225.4,241.3z"/>
			<g>
				<path class="st8" d="M246,206.6c-3.6,0-9.1-1.1-9.1-6.2v-13.7h18.2v13.7C255.1,205.5,249.6,206.6,246,206.6z"/>
				<path class="st9" d="M236.9,196.3v-8.7h18.2v9.5C247.5,198.5,241.7,198.3,236.9,196.3z"/>
			</g>
			<path class="st6" d="M240.5,208.4c0.1,2.7,3.2,4.4,3.2,4.4h4.5c0,0,2.2-1.8,2.6-3.8c-1-2.2-3.7-3.9-3.7-3.9l-2,0L240.5,208.4z"/>
			<g>
				<g>
					<path class="st8" d="M228.3,167.6c1.6,4.2,1.6,7.4-1.1,8.6c-2.7,1.2-8.6-0.4-10.2-4.6c-1.6-4.2-0.7-8.5,2-9.7
						C221.7,160.7,226.7,163.4,228.3,167.6z"/>
					<path class="st8" d="M221.6,172.6c2.2,14.3,12.4,23.9,26.7,22.6c13.1-1.2,22.1-19.4,22.5-36.1c0.4-16.7-8.6-29.8-24.3-29.6
						C222.3,129.9,216.9,142.5,221.6,172.6z"/>
					<path class="st8" d="M263,166.3c-1.7,4.2-1.7,7.4,1,8.6c2.7,1.2,8.6-0.3,10.3-4.4c1.7-4.2,0.8-8.5-1.9-9.8
						C269.8,159.4,264.7,162.1,263,166.3z"/>
					
						<linearGradient id="SVGID_1_" gradientUnits="userSpaceOnUse" x1="449.1908" y1="112.8927" x2="443.0631" y2="116.7018" gradientTransform="matrix(0.9679 0.2513 -0.2513 0.9679 -156.7798 -55.5679)">
						<stop  offset="0" style="stop-color:#D38278"/>
						<stop  offset="1" style="stop-color:#F6B9AD;stop-opacity:0"/>
					</linearGradient>
					<path class="st10" d="M242.1,164.8c3.8-0.8,7.1-0.1,7.8,2.7c0.7,2.8-3.2,4.6-6.3,4.9S239.1,165.4,242.1,164.8z"/>
					<g>
						<path class="st11" d="M240.4,165.3c1.5-0.6,3-1,4.6-0.9c1.6,0,3.3,0.4,4.6,1.7c0.6,0.7,0.9,1.7,0.6,2.6
							c-0.3,0.9-0.9,1.5-1.5,2c-1.3,1-2.8,1.6-4.3,2c1.4-0.7,2.8-1.5,3.9-2.5c0.5-0.5,1-1.1,1.1-1.8c0.2-0.6,0-1.3-0.4-1.8
							c-0.9-1-2.5-1.5-3.9-1.6C243.5,164.9,242,165,240.4,165.3z"/>
					</g>
					<g>
						
							<linearGradient id="SVGID_2_" gradientUnits="userSpaceOnUse" x1="431.9249" y1="105.2897" x2="434.4674" y2="113.9161" gradientTransform="matrix(0.9679 0.2513 -0.2513 0.9679 -156.7798 -55.5679)">
							<stop  offset="0" style="stop-color:#DA9C68"/>
							<stop  offset="1" style="stop-color:#DA9C68;stop-opacity:0"/>
						</linearGradient>
						<path class="st12" d="M240.5,154.4c0.4,2.6,1.8,10.3-5.6,10.9c-7.4,0.6-5.6-8.3-5.6-8.3S237.1,154.8,240.5,154.4z"/>
						<path class="st13" d="M238,164.6c-0.1,0.5-0.7,0.9-1.2,0.7c-0.5-0.1-0.9-0.7-0.7-1.2c0.1-0.5,0.7-0.9,1.2-0.7
							C237.8,163.5,238.1,164.1,238,164.6z"/>
						<path class="st14" d="M238.9,153.9c-8.5,0.6-13.1,4-7.7,3.9S244.4,153.6,238.9,153.9z"/>
					</g>
					<g>
						
							<linearGradient id="SVGID_3_" gradientUnits="userSpaceOnUse" x1="621.5894" y1="56.0463" x2="624.132" y2="64.6727" gradientTransform="matrix(-0.9679 0.2513 0.2513 0.9679 841.9411 -55.5679)">
							<stop  offset="0" style="stop-color:#DA9C68"/>
							<stop  offset="1" style="stop-color:#DA9C68;stop-opacity:0"/>
						</linearGradient>
						<path class="st15" d="M248.8,154.4c-0.4,2.6-1.8,10.3,5.6,10.9c7.4,0.6,5.6-8.3,5.6-8.3S252.1,154.8,248.8,154.4z"/>
						<path class="st13" d="M251.2,164.6c0.1,0.5,0.7,0.9,1.2,0.7c0.5-0.1,0.9-0.7,0.7-1.2c-0.1-0.5-0.7-0.9-1.2-0.7
							C251.4,163.5,251.1,164.1,251.2,164.6z"/>
						<path class="st14" d="M250.3,153.9c8.5,0.6,13.1,4,7.7,3.9C252.7,157.8,244.8,153.6,250.3,153.9z"/>
					</g>
					<path class="st16" d="M230.6,167.3c0,0.6-1.5,1-3.3,1c-1.8,0-3.3-0.5-3.3-1c0-0.6,1.5-1,3.3-1
						C229.1,166.3,230.6,166.8,230.6,167.3z"/>
					<path class="st16" d="M265.3,167.3c0,0.6-1.5,1-3.3,1c-1.8,0-3.3-0.5-3.3-1c0-0.6,1.5-1,3.3-1
						C263.9,166.3,265.3,166.8,265.3,167.3z"/>
				</g>
				<path class="st17" d="M244.2,173.7c-9.5-0.5-10.6,1.3-11,6c10.6,3,18.8,1.7,22.3,0C255.8,177.6,256.4,172.1,244.2,173.7z"/>
			</g>
			<path class="st17" d="M219.6,134.5c0,0,1.3-11,10.3-14.3c9-3.3,25.4,0.2,27.2-0.8c1.7-0.9,2.7-1.8,2.7-1.8s0.3,1.8-1.6,3
				c-1.9,1.2-3.2,1.1-3.2,1.1s7.1,0.8,10.9,4.7c6.9,7.1,5.7,17.4,7.3,19.6c1.6,2.2,3.3,3.2,3.3,3.2l-4-1.5c0,0,0.8,6.1,0.3,9.2
				c-0.5,3.1-3,14.7-3,14.7s0.1-18.3-0.6-21.8c-0.7-3.6-2.1-5.3-2.1-5.3l1.2,4.7c0,0-4.3-0.5-13-2.3c-8.6-1.8-14.5-6.1-14.5-6.1
				s3.5,4.3,7.4,5.6c3.9,1.3,7.8,2.1,7.8,2.1s-9.1,1.9-16.6,0.4c-7.5-1.5-10.1-2.2-10.1-2.2s6.2,2.9,8.6,3.1
				c2.4,0.3,2.8,0.4,2.8,0.4s-5.8,1.3-11.7-0.9c-5.9-2.2-7-2.9-7-2.9l2.1,3.1l-2.1-1.5c0,0-1,3.1-1.3,9.4
				c-0.3,6.4,0.5,14.3,0.5,14.3s-3.9-10.9-5.1-20.1C214.9,142.3,219.6,134.5,219.6,134.5z"/>
			<path class="st8" d="M224.8,241.5c-3.8,1.3-11.6,12.9-8.3,15.5c4,0.5,13.7-3.1,23.3-6.8c-4.5-4.5-11.9-8.1-14.6-8.9
				C225.1,241.4,224.9,241.5,224.8,241.5z"/>
			<g>
				<path class="st18" d="M218.5,120.8c-1.1,5-2,21.5-2,21.5s29.7-12.6,56.2,2.2c0.5-11.2,0.1-19.9-0.2-22.4c-0.4-2.5-0.6-5-4.6-8.4
					c-6-5-13.9-10.5-22.2-10.5s-17.7,4.7-23,9.9C221,114.8,219.1,117.9,218.5,120.8z"/>
				<path class="st19" d="M238.2,102.9l1.5,25.4h11.5l1.9-25.5C253.1,102.7,245.4,99.2,238.2,102.9z"/>
				<path class="st19" d="M212,145c9.4-10.5,38.8-21.3,63,0.9C260.4,139.9,235.5,136.3,212,145z"/>
			</g>
			<path class="st4" d="M236.9,197.9c0.1,1.1,4.1,6.8,9.1,7.2c-2.2,2.1-6.4,7.9-6.4,7.9s-4.7-7.6-4.7-12.7
				C234.8,199,236.9,197.9,236.9,197.9z"/>
			<path class="st4" d="M255.1,197.9c-0.1,1.1-4.5,5.8-9.1,7.2c1.7,2.2,6.4,7.9,6.4,7.9s4.7-7.6,4.7-12.7
				C257.2,199,255.1,197.9,255.1,197.9z"/>
			<path class="st4" d="M263.9,203.4c18.9,3.2,27.2,20.6,22.9,38.1c-9.5,0-19.1-4.4-19.1-4.4S272.9,211.5,263.9,203.4z"/>
			<path class="st4" d="M229.8,203.4c-18.9,3.2-27.2,20.6-22.9,38.1c9.5,0,19.1-4.4,19.1-4.4S220.8,211.5,229.8,203.4z"/>
		</g>
	</g>
	<g>
		<ellipse class="st1" cx="140.6" cy="440.9" rx="49.6" ry="6.6"/>
		<g>
			<path class="st20" d="M179,286.3c-1,1.2-1.8,5.6-0.6,8.3c-1.4,2.7-3.1,6-1.7,7.9c1.4,1.9,2.3,2.2,3.2,2.8c0.9,0.6,4.7-3,4.7-6.7
				c0-3.7-2.8-11.9-2.8-11.9L179,286.3z"/>
			<path class="st21" d="M185.2,302.4c1.7-2.4,2.7-5.7,2-8.8c-0.7-3.1-3-8.7-3-8.7s-4.1,0.9-3.8,1.6c0.7,1.6,0.6,2.6,0.5,4.3
				c-0.1,0.8,0.2,2.4,0.3,3.5c0.1,0.6,0,1.3-0.3,1.8c-0.7,1.2-1.7,3.3-1.1,4.1c1.6,2,3.9-2.8,3.9-2.8s0.1,1.9-1.3,4.1
				c-1,1.6-3.8,2.8-3.1,4.3C180,307.2,182.9,305.8,185.2,302.4z"/>
			<path class="st22" d="M162,203c9.8,6,10.6,27.9,14.3,43.9c0.4,1.9,9.4,35.9,9.9,38.5c-3.4,3-9.5,2.5-9.5,2.5s-8.9-31.3-10.9-36.1
				c-2-4.8-2.2-6.7-2.1-7.7c0-0.9-0.2-22.9-0.2-22.9S152.2,196.9,162,203z"/>
			<path class="st23" d="M157.1,426.6c0.8,1.4,10.8,9.6,22.3,11.2c3.2,0.1,1.5,2.9-2.9,3.8c-4.4,0.9-19-0.9-24.6-2
				c-5.6-1.1-6.4-1.8-6.3-3.4c0.1-1.6,2.2-9.7,2.2-9.7H157.1z"/>
			<path class="st23" d="M115.6,426.9c-0.9,2.2-2.9,6.6-3.8,8.9c-1,2.3-1.5,6.3,8.6,6.3s10.2-3.8,9.1-5.9c-1.1-2.1-2.9-9.3-2.9-9.3
				L115.6,426.9z"/>
			<path class="st24" d="M122.2,296.3c-0.9,7.3-8,130.6-8,130.6s5.5,2.9,15.1,0.2c0.5-29.7,22.2-129.9,22.2-129.9L122.2,296.3z"/>
			<path class="st24" d="M171.6,292.1c0,0-13.7,113.4-12.8,134.9c-4.9,2-12.3,0-12.3,0l-0.2-115l2.1-16.2L171.6,292.1z"/>
			<path class="st25" d="M144.1,194.3c-18.4,0.5-27.8,11.8-24.1,37.6c3.4,23.5-1.6,54-2.1,65.4c45.4,9,57-4.4,57-4.4
				S182.7,193.2,144.1,194.3z"/>
			<g>
				<path class="st26" d="M139.5,200.1c-1.6-0.5-3-1.3-4.3-2.4L135,180l14.2,0.3l-0.3,17.8C146.7,200.6,141.5,200.8,139.5,200.1z"/>
				<g>
					<path class="st27" d="M158.3,166.5c-1.6,4-1.5,7.1,1.1,8.3c2.6,1.2,8.3-0.4,9.9-4.4c1.6-4,0.7-8.2-1.9-9.4
						C164.7,159.8,159.9,162.5,158.3,166.5z"/>
					<path class="st27" d="M164.8,171.3c-2.1,13.8-12,23.1-25.8,21.8c-12.6-1.1-21.4-18.8-21.7-34.9c-0.4-16.1,8.3-28.9,23.5-28.6
						C164.2,130,169.3,142.2,164.8,171.3z"/>
					<path class="st27" d="M124.7,165.2c1.6,4,1.6,7.1-1,8.3c-2.6,1.2-8.3-0.3-9.9-4.3c-1.6-4-0.8-8.2,1.8-9.4
						C118.2,158.6,123.1,161.2,124.7,165.2z"/>
					
						<linearGradient id="SVGID_4_" gradientUnits="userSpaceOnUse" x1="3588.3916" y1="-703.2424" x2="3582.4661" y2="-699.559" gradientTransform="matrix(-0.9679 0.2513 0.2513 0.9679 3787.6194 -55.5679)">
						<stop  offset="0" style="stop-color:#D38278"/>
						<stop  offset="1" style="stop-color:#F6B9AD;stop-opacity:0"/>
					</linearGradient>
					<path class="st28" d="M144.9,163.8c-3.7-0.7-6.8-0.1-7.5,2.6s3.1,4.4,6.1,4.8C146.6,171.5,147.8,164.3,144.9,163.8z"/>
					<g>
						<path class="st11" d="M146.6,164.3c-1.5-0.3-3-0.4-4.5-0.3c-1.4,0.2-2.9,0.6-3.8,1.6c-0.4,0.5-0.6,1.1-0.4,1.7
							c0.2,0.6,0.6,1.2,1.1,1.7c0.5,0.5,1.1,0.9,1.8,1.3c0.6,0.4,1.3,0.7,2,1.1c-1.5-0.4-2.9-1-4.2-2c-0.6-0.5-1.2-1.1-1.4-2
							c-0.3-0.8,0-1.8,0.5-2.5c1.2-1.3,2.9-1.6,4.4-1.7c0.8,0,1.6,0.1,2.3,0.2C145.1,163.8,145.9,164,146.6,164.3z"/>
					</g>
					<g>
						<path class="st11" d="M149.4,177.6c0.4,0.6,0.3,1.4,0.2,2c-0.2,0.7-0.4,1.4-0.8,1.9c-0.8,1.2-2.1,2-3.4,2.4
							c-1.4,0.4-2.8,0.4-4.2,0.3c-0.7-0.1-1.4-0.3-2-0.4c-0.7-0.2-1.3-0.4-1.9-0.7c0.7,0.1,1.3,0.2,2,0.3c0.7,0,1.3,0.1,2,0.1
							c1.3,0,2.6-0.1,3.9-0.4c1.2-0.4,2.4-1,3.2-2c0.4-0.5,0.7-1.1,1-1.7C149.4,178.9,149.5,178.3,149.4,177.6z"/>
					</g>
					<g>
						
							<linearGradient id="SVGID_5_" gradientUnits="userSpaceOnUse" x1="3571.6951" y1="-710.5947" x2="3574.1538" y2="-702.2527" gradientTransform="matrix(-0.9679 0.2513 0.2513 0.9679 3787.6194 -55.5679)">
							<stop  offset="0" style="stop-color:#DA9C68"/>
							<stop  offset="1" style="stop-color:#DA9C68;stop-opacity:0"/>
						</linearGradient>
						<path class="st29" d="M146.6,153.8c-0.3,2.5-1.8,10,5.4,10.6c7.1,0.6,5.4-8,5.4-8S149.8,154.1,146.6,153.8z"/>
						<path class="st13" d="M148.9,163.6c0.1,0.5,0.7,0.8,1.2,0.7c0.5-0.1,0.8-0.7,0.7-1.2c-0.1-0.5-0.7-0.8-1.2-0.7
							C149.1,162.6,148.8,163.1,148.9,163.6z"/>
						<path class="st30" d="M148.1,153.3c8.2,0.6,12.7,3.8,7.5,3.8C150.4,157,142.7,152.9,148.1,153.3z"/>
					</g>
					<g>
						
							<linearGradient id="SVGID_6_" gradientUnits="userSpaceOnUse" x1="-2517.8931" y1="870.471" x2="-2515.4343" y2="878.813" gradientTransform="matrix(0.9679 0.2513 -0.2513 0.9679 2788.8987 -55.5679)">
							<stop  offset="0" style="stop-color:#DA9C68"/>
							<stop  offset="1" style="stop-color:#DA9C68;stop-opacity:0"/>
						</linearGradient>
						<path class="st31" d="M138.5,153.8c0.3,2.5,1.8,10-5.4,10.6s-5.4-8-5.4-8S135.3,154.1,138.5,153.8z"/>
						<path class="st13" d="M136.2,163.6c-0.1,0.5-0.7,0.8-1.2,0.7c-0.5-0.1-0.8-0.7-0.7-1.2c0.1-0.5,0.7-0.8,1.2-0.7
							C136,162.6,136.3,163.1,136.2,163.6z"/>
						<path class="st30" d="M137,153.3c-8.2,0.6-12.7,3.8-7.5,3.8C134.7,157,142.4,152.9,137,153.3z"/>
					</g>
					<path class="st16" d="M156.1,166.2c0,0.5,1.4,1,3.2,1c1.8,0,3.2-0.4,3.2-1c0-0.5-1.4-1-3.2-1
						C157.5,165.2,156.1,165.7,156.1,166.2z"/>
					<path class="st16" d="M122.5,166.2c0,0.5,1.4,1,3.2,1c1.8,0,3.2-0.4,3.2-1c0-0.5-1.4-1-3.2-1
						C123.9,165.2,122.5,165.7,122.5,166.2z"/>
					<path class="st30" d="M113.9,140.7c0.6-2.9,1.3-3.3,1.8-5.3c0.1-0.3,0.1-0.5,0.1-0.8c0.3-2.1,0-5.4,2-7.9
						c2.1-2.6,3.2-2.2,4.8-2.9c0.5-1.5,1-3.4,3.1-4.9c0.9-0.6,1.9-1,2.9-1.2c0,0,0,0,0,0c1.7-1.3,2.2-2.1,7.6-2.4
						c2.5-0.1,4,0.5,5,1.3l0,0c0,0,1-0.1,1.5-0.4c0.5-0.3,2.5-1.7,4.6-0.5c1.8,1,2.3,1.4,2.9,1.4c2-0.4,3.2,0,3.2,0l0,0
						c1.2,0.2,2.3,0.5,3.3,1.2c1.8,1.1,2.5,2.5,3,3.8l0,0c0,0,0.5,0.7,1.3,0.7c0.8,0,2.3,1,2.5,2c0.1,1,0.1,1.5,0.6,1.8
						c1.4,1.1,2.7,2.8,3.1,5.9c0.5,3.6,1.7,4.7,1.8,7.7c0.1,5.4-1.2,15.2-1.6,17.4s-0.1,6.1-0.6,7.1c-0.5,1-0.6,1.5-0.7,2
						c-0.2,0.5-1.3,0.3-1.6,0c-0.4-0.3,0.1-1.6,0-2.8c0-1.1-0.9-5.5-1-6.9c-0.1-1.4,0.9-3,0.9-5c0-2-0.3-6.8-2.9-8.6
						c-2.6-1.8-3.1-0.8-9,0.2c-5.9,1-11.4,0.9-11.4,0.9v0c-1.5,0-5.4,0.1-10.1-0.5c-6-0.7-6.5-1.7-9,0.2c-2.5,1.9-2.5,6.7-2.4,8.7
						c0,2,1.1,3.5,1.1,4.9c0,1.4-0.7,5.8-0.7,7c0,1.1,0.5,2.5,0.1,2.8c-0.4,0.3-1.5,0.5-1.6,0c-0.2-0.5-0.3-0.9-0.8-2
						c-0.5-1.1-1.2-2.5-1.4-3.7c-0.2-1.2,0.2-8.2-1.3-12C114.1,147.1,113.3,143.6,113.9,140.7z"/>
				</g>
			</g>
			<path class="st32" d="M122.3,204.3c3.8,6.6,7,34.7-3,36.4c-1.1,17-4.3,57.2-4.3,57.2s36.1,10.3,62.1-4.2
				c0.6-20.2-1.8-57.5-4.4-64.9c-7.4-6-15.9-30.8-15.9-30.8l-5.4-2.9c0,0,10,25.9-2.8,25.8c-13.2-0.1-18.5-23.6-18.5-23.6
				s-2.2,0.9-4.5,2.9C123.4,202.2,122.3,204.3,122.3,204.3z"/>
			<path class="st33" d="M118,259.2c0.2-2.4,0.4-4.7,0.5-7c28.4,4.6,47.4-1.5,56.7-6c0.2,2.4,0.4,4.9,0.6,7.5
				c-8,3.5-20.4,7.2-37.4,7.2C132.3,260.9,125.5,260.4,118,259.2z"/>
			<path class="st33" d="M116.6,278.1c0.2-2.3,0.4-4.6,0.5-7c30.9,5.2,50.7-2.2,59.4-6.7c0.1,2.6,0.2,5.1,0.3,7.7
				c-7.9,3.7-20.8,7.9-38.9,7.9C131.5,279.9,124.4,279.4,116.6,278.1z"/>
			<g>
				<path class="st34" d="M99,264.4l-5.6,28.5c-0.3,1.4,0.6,2.8,2.1,3.1l43.3,8.6c1.4,0.3,2.8-0.6,3.1-2.1l5.6-28.5
					c0.3-1.4-0.6-2.8-2.1-3.1l-43.3-8.6C100.6,262,99.2,263,99,264.4z"/>
				
					<rect x="105.8" y="261.6" transform="matrix(0.1942 -0.981 0.981 0.1942 -180.5409 347.1348)" class="st35" width="30.5" height="43.8"/>
				<path class="st36" d="M144.8,281.6l-0.5,2.4c0.5-0.1,1.1-0.1,1.7,0c2.4,0.5,4,2.8,3.5,5.2c-0.5,2.4-2.8,4-5.2,3.5
					c-0.6-0.1-1.1-0.3-1.6-0.6l-0.5,2.4c-0.1,0.6-0.7,1-1.3,0.9l-2.4-0.5c-0.6-0.1-1-0.7-0.9-1.3l2.5-12.8c0.1-0.6,0.7-1,1.3-0.9
					l2.4,0.5C144.6,280.4,145,281,144.8,281.6z"/>
			</g>
			<path class="st27" d="M121.4,230.7c-1.1,7.8-3,54.3-1.9,72.2c-4.9,3-8,2.1-9.9-0.9c-1.9-3-2.5-58,1.1-74
				C116.1,228.1,121.4,230.7,121.4,230.7z"/>
			<path class="st22" d="M122.3,205.8c-5.2-1-11.8,7.7-13.5,20.9c-2.1,16.7-1.8,48.6-1.7,65.7c6.6,4.3,12.7,0.1,12.7,0.1
				S125.1,213.5,122.3,205.8z"/>
			<path class="st22" d="M135.1,193.4c0.8,1.8,4.1,5.5,8.8,6.9c-1.2,3.1-2.1,8-2.1,8s-8-5.3-9.6-11.6
				C133.3,194.4,135.1,193.4,135.1,193.4z"/>
			<path class="st22" d="M143.9,200.3c1.5-0.3,5.1-3.9,5.1-5.8c1.2,1.1,1.9,4.4,1.9,4.4s1.1,4.8-3,8.8
				C147.1,204.8,143.9,200.3,143.9,200.3z"/>
			<path class="st27" d="M119.2,300.7l3.9,0.8c0,0,0.7,3.9-7.1,3.7c-5.8-0.2-5.8-3.9-5.8-3.9L119.2,300.7z"/>
			<path class="st27" d="M119.1,294.1c0.3,1,2.3,3.1,4.1,3.8c1.7,0.4,1,2-1.1,1.4c-2.1-0.6-2.8-0.8-3.7-1.5
				C118.1,297,119.1,294.1,119.1,294.1z"/>
			<path class="st27" d="M119.1,293.4c0.3,0.5,1.4,1.4,1.7,3.1C119.3,297.3,118.2,295.2,119.1,293.4z"/>
		</g>
	</g>
	<g>
		<ellipse class="st1" cx="358.4" cy="440.9" rx="49.6" ry="6.6"/>
		<g>
			<path class="st37" d="M326.2,347c2.6,10.8,10.8,77.1,10.2,85.5c3.9,0,9.4,0,9.4,0s1.6-29.4,2.5-44.3c0.8-15-2-33.6-6.8-42.8
				C336.8,336.1,326.1,341.3,326.2,347z"/>
			<path class="st38" d="M360.9,348.8c3.8,8.9,20.3,68.3,22.8,83.7c3.3,0,8.8,0,8.8,0s-1.9-29.8-3.1-46.5
				c-1.3-16.7-7.2-32.6-13.1-39.8C370.5,339,359.1,341.7,360.9,348.8z"/>
			<path class="st37" d="M322.5,281.5c-1.3,10.8,2.4,55.7,3.8,65.5s17.3,8.4,17-0.2c-0.2-8.6,3.3-56,3.3-56L322.5,281.5z"/>
			<path class="st38" d="M371.3,282.2c2.4,11.1,5.3,58.6,6,64.1c0.7,5.5-13.5,11.9-16.4,2.4c-2.9-9.5-17.7-57.7-17.7-57.7
				L371.3,282.2z"/>
			<path class="st38" d="M360.9,262.1c4.9,6.6,9.9,12.9,10.8,22.8c0.9,9.9-10.6,18.3-25.9,15.4c-17.1-3.3-23.4-11.2-23.4-18.7
				c0-6.2,2.8-18.6,2.8-18.6L360.9,262.1z"/>
			<path class="st20" d="M315.9,282.2c1,1.2,1.8,5.6,0.6,8.3c1.4,2.7,3.1,6,1.7,7.9c-1.4,1.9-2.3,2.2-3.2,2.8
				c-0.9,0.6-4.7-3-4.7-6.7c0-3.7,2.8-11.9,2.8-11.9L315.9,282.2z"/>
			<path class="st21" d="M309.7,298.4c-1.7-2.4-2.7-5.7-2-8.8c0.7-3.1,3-8.7,3-8.7s4.1,0.9,3.8,1.6c-0.7,1.6-0.6,2.6-0.5,4.3
				c0.1,0.8-0.2,2.4-0.3,3.5c-0.1,0.6,0,1.3,0.3,1.8c0.7,1.2,1.7,3.3,1.1,4.1c-1.6,2-3.9-2.8-3.9-2.8s-0.1,1.9,1.3,4.1
				c1,1.6,3.8,2.8,3.1,4.3C314.9,303.1,312.1,301.8,309.7,298.4z"/>
			<path class="st38" d="M331.1,198c-9.8,6-8.8,28.8-12.5,44.8c-0.4,1.9-9.4,35.9-9.9,38.5c3.4,3,9.5,2.5,9.5,2.5
				s8.9-31.3,10.9-36.1c2-4.8,2.2-6.7,2.1-7.7s0.2-22.9,0.2-22.9S340.9,192,331.1,198z"/>
			<path class="st3" d="M331.1,198c0.3,2.9-1.2,8.4-3,11.2c-2.4,3.8-6.7,10.1-7.4,13.4c-0.7,3.3,2.6,10.4,3.4,14.1
				c0.8,3.7,1.1,19.7,1.1,26.2s35.9,11.3,37.3-0.7c3.3-28.1,10.1-35.4,12.5-42.9c2.3-7.5,3.8-19.6-1.5-22.3
				C365,192.7,351.8,185.4,331.1,198z"/>
			<path class="st4" d="M339.4,224.1c0,0-2.9-5.1-2.5-10.1c0.3-4.3,4.2-17.2,5.4-21.2c10.1-3.3,18-1.6,24.2,0.9
				c-2.7,2.8-8.9,9.2-11.2,12.1C352.3,209.6,339.4,224.1,339.4,224.1z"/>
			<g>
				<polygon class="st39" points="352.7,312.1 357.3,353.9 360.9,356.1 356.5,314.9 				"/>
				<polygon class="st40" points="414.2,305.5 352.7,312.1 356.5,314.9 420.1,308.1 				"/>
				<polygon class="st40" points="360.9,356.1 423,348.6 419.1,308.2 356.5,314.9 				"/>
				<polygon class="st39" points="420.1,308.1 422.8,335.5 360.4,342.9 356.5,314.9 				"/>
				<polygon class="st41" points="420.1,308.1 422.8,334.9 360.9,341.8 356.5,314.9 				"/>
				<polygon class="st42" points="397.4,335.6 397.9,340.9 385.8,342.3 385.3,337.1 				"/>
				<path class="st43" d="M378.7,311.2l-0.7-6.2c-0.1-0.8,0.5-1.6,1.3-1.7l12.4-1.5c0.8-0.1,1.6,0.5,1.7,1.3l0.7,6.2"/>
			</g>
			<path class="st21" d="M381,290.9c-1.2,1.3-3.6,3.5-3.4,5.4c0.2,1.9-1.4,6.4-2.3,7.2c-0.9,0.9,1.6,3.6,4-1.1
				c0.5,0.7,0.7,1.7,0.7,1.7l-0.3,0.1c0,0-0.1,1.7,2.4,1.5c2.5-0.2,6.6-0.6,8.2-1.5c1.7-0.9,1.5-2.8,1.5-4.1
				c0.1-3.6-2.3-9.1-2.3-9.1L381,290.9z"/>
			<path class="st38" d="M379.1,290.4c0.7,0.6,8.4,1.5,11.2,0.2c-0.2-5.1-1-43.8-1.1-46.4c-0.1-2.6-1.5-13.3-2-16.9
				s-2.6-26.5-12.9-29.8c-6.2,9.2-1.8,29.9-0.8,34.2c1.1,4.3,4,13.9,4.1,17.1C377.8,252,379.1,290.4,379.1,290.4z"/>
			<path class="st23" d="M337.8,431.6c-0.5,0.9-7.1,6.3-14.6,7.3c-2.1,0.1-1,1.9,1.9,2.5c2.9,0.6,12.4-0.6,16.1-1.3s4.2-1.2,4.1-2.2
				c-0.1-1-1.5-6.3-1.5-6.3H337.8z"/>
			<path class="st23" d="M391.5,431.8c0.6,1.5,1.9,4.4,2.5,5.8c0.6,1.5,1,4.1-5.6,4.1c-6.6,0-6.7-2.5-6-3.8c0.7-1.4,1.9-6.1,1.9-6.1
				L391.5,431.8z"/>
			<g>
				<polygon class="st44" points="379.6,182.8 329.3,190.8 330.3,171.5 331,145.3 374.4,139.5 379,158.5 				"/>
				<path class="st20" d="M359.3,193.5l-0.4-19l-11.6-0.3l-1.3,19.8C350.7,197.2,356.7,196.6,359.3,193.5z"/>
				<path class="st21" d="M372.1,141.2v25.9c0,11.1-9,20-20,20l0,0c-11.1,0-20-9-20-20v-25.9H372.1z"/>
				<path class="st45" d="M374.3,192.6l-2.6-21.1l-4.5-28.8l-12.9,5l-21.1,6.7l-1,10.5l-1.3-2.1l-1.3-5.5l-0.4-0.7
					c-3.5-7.4-3.3-16,0.6-23.2l0,0c2.7-4.9,7.8-8.1,13.4-8.3l9.1-0.4c6.9-0.3,13.4,3,17.3,8.6l0,0l0,0c3.4,0,6.5,2.1,7.9,5.3v0
					c5,12.1,7.4,25.1,7,38.2l0,0c-0.1,4.2-1.9,8.1-4.9,11L374.3,192.6z"/>
				<g>
					<path class="st46" d="M335.4,164.2c0,0.4,1.1,0.7,2.5,0.7c1.4,0,2.5-0.3,2.5-0.7c0-0.4-1.1-0.7-2.5-0.7
						C336.5,163.6,335.4,163.9,335.4,164.2z"/>
					<g>
						
							<linearGradient id="SVGID_7_" gradientUnits="userSpaceOnUse" x1="-18027.4961" y1="-1383.6693" x2="-18026.2812" y2="-1375.9534" gradientTransform="matrix(0.9915 -0.13 0.13 0.9915 18396.8203 -816.662)">
							<stop  offset="0" style="stop-color:#C9926A"/>
							<stop  offset="1" style="stop-color:#C9926A;stop-opacity:0"/>
						</linearGradient>
						<path class="st47" d="M346.6,153.2c0.6,1.8,2.8,8.2-2.3,9.7c-5.1,1.5-5.2-6.8-5.2-6.8S344.3,154,346.6,153.2z"/>
						<path class="st45" d="M345.3,153.1c-5.6,1-9,4.6-3.9,3.3C346.4,155.1,348.2,152.5,345.3,153.1z"/>
						<path class="st48" d="M342.5,162.7c0.9-3.2,4.3-2.8,4.8-0.3"/>
					</g>
					<g>
						
							<linearGradient id="SVGID_8_" gradientUnits="userSpaceOnUse" x1="4869.5342" y1="1618.4628" x2="4870.7495" y2="1626.1787" gradientTransform="matrix(-0.9915 -0.13 -0.13 0.9915 5399.0112 -816.662)">
							<stop  offset="0" style="stop-color:#C9926A"/>
							<stop  offset="1" style="stop-color:#C9926A;stop-opacity:0"/>
						</linearGradient>
						<path class="st49" d="M356.6,153.2c-0.6,1.8-2.8,8.2,2.3,9.7c5.1,1.5,5.2-6.8,5.2-6.8S358.9,154,356.6,153.2z"/>
						<path class="st45" d="M357.8,153.1c5.6,1,9,4.6,3.9,3.3C356.7,155.1,354.9,152.5,357.8,153.1z"/>
						<path class="st48" d="M360.6,162.7c-0.9-3.2-4.3-2.8-4.8-0.3"/>
					</g>
					<ellipse class="st46" cx="365.1" cy="164.2" rx="2.5" ry="0.7"/>
					<g>
						<g>
							<path class="st11" d="M352.7,165.7c-0.7-0.2-1.5-0.4-2.2-0.4c-0.7,0-1.5,0.1-2,0.6c-0.5,0.4-0.4,1.2,0.1,1.8
								c0.5,0.6,1.1,1,1.7,1.5c-0.7-0.3-1.4-0.7-2-1.2c-0.1-0.1-0.3-0.3-0.4-0.5c-0.1-0.2-0.2-0.4-0.2-0.6c-0.1-0.4,0.1-0.9,0.4-1.2
								c0.7-0.6,1.5-0.7,2.3-0.6C351.3,165,352,165.3,352.7,165.7z"/>
						</g>
					</g>
					<g>
						<path class="st11" d="M355.7,174.1c0.2,0.8-0.2,1.6-0.8,2.2c-0.6,0.6-1.4,0.9-2.2,1c-0.8,0-1.6-0.1-2.4-0.3
							c-0.4-0.1-0.7-0.3-1.1-0.5c-0.3-0.2-0.7-0.4-1-0.6c0.4,0.1,0.7,0.3,1.1,0.4c0.4,0.1,0.7,0.2,1.1,0.3c0.7,0.2,1.5,0.3,2.2,0.2
							c0.7,0,1.5-0.3,2-0.8C355.2,175.6,355.7,174.9,355.7,174.1z"/>
					</g>
				</g>
			</g>
			<path class="st5" d="M359.3,189.4c-0.7,1.7-4,5.7-8.5,6.5c0.2,3.2,0.4,7.7,0.4,7.7s9.4-5.3,10.9-11.1
				C360.9,190.3,359.3,189.4,359.3,189.4z"/>
			<path class="st5" d="M350.7,195.9c-1.4-0.2-4.4-3.8-4.5-5.6c-1.1,1-1.6,1.9-1.6,1.9s-1.8,5.5,0.7,8.9
				C347.2,198.3,350.7,195.9,350.7,195.9z"/>
			<path class="st38" d="M365.1,192.2c0,0-18.7,18.3-25.5,28.9c-2.2-5.5,3.8-29.3,4.1-29.6c0.2-0.2-2.3,0.5-3.6,0.6
				c-3.2,3.2-6,8.2-6,8.2l3.4,1.4l-3,2.1c0,0-0.9,11.5,3.9,22.5c8.6-4.4,21.5-15.5,21.5-15.5l-2.8-5.2l5.4,1.5l7.1-12.7L365.1,192.2
				z"/>
		</g>
	</g>
</g>
</svg>
