<?xml version="1.0" encoding="utf-8"?>
<!-- Generator: Adobe Illustrator 23.0.2, SVG Export Plug-In . SVG Version: 6.00 Build 0)  -->
<svg version="1.1" id="Layer_1" xmlns="http://www.w3.org/2000/svg" xmlns:xlink="http://www.w3.org/1999/xlink" x="0px" y="0px"
	 viewBox="0 0 512 512" style="enable-background:new 0 0 512 512;" xml:space="preserve">
<style type="text/css">
	.st0{fill:#3986FA;}
	.st1{opacity:0.47;fill:#A5B7C6;enable-background:new    ;}
	.st2{fill:#FFBA85;}
	.st3{fill:#C4CCCE;}
	.st4{fill:#E8EAEA;}
	.st5{fill:#B7BBBC;}
	.st6{fill:#75473E;}
	.st7{fill:#5E595B;}
	.st8{fill:#474445;}
	.st9{fill:#333333;}
	.st10{fill:#736F70;}
	.st11{fill:#FFFFFF;}
	.st12{fill:#824A43;}
	.st13{fill:#975B52;}
	.st14{fill:#EB8C6A;}
	.st15{fill:#2B2A2F;}
	.st16{fill:#3F3E44;}
	.st17{fill:#D5DEE2;}
	.st18{fill:#CF725D;}
</style>
<g>
	<path class="st0" d="M507.2,266.4c-0.5-2.7-1-5.5-1.7-8.2c-5.3-21.4-20.6-34.4-38.1-43.1c-21.8-10.9-45.6-15.3-68.1-12.3
		c6.6-7.4,9.6-18.9,7.9-30.1c-1.7-11.2-8.1-21.9-16.9-28.1c-8.6-6.1-18.7-7.7-28.4-9.1c-11.9-1.7-23.8-3.5-35.8-5.2
		c3.7-9.5,7.5-19.1,8.8-29.6s-0.2-22.3-6.2-31.5c-5.6-8.7-14.4-13.9-23.1-17.5c-40.2-17-85.1-6.9-122.1,6.5
		C146.1,71.7,110.9,92.1,80.3,119c-14.7,12.9-29.9,30.5-26.7,53c3,21.6,21.7,37.1,39.4,46.8c-26.3,17.7-52.6,36.9-70.7,64.9
		c-28.8,44.5-29.6,112.8,23.3,145c15.9,9.7,33.4,14.1,50.7,17.5c95.6,19.2,192.5,15,282.1-12.4c51.8-15.8,103-46.1,123.1-105.5
		C508,308.6,510.9,287.9,507.2,266.4z"/>
	<path class="st0" d="M395,109.7c-4.7-7.6-16.1-9.5-23-9c-8.5,0.6-15.6,6.9-11.8,17.6c1.9,5.2,6.6,8.6,11.2,10.2
		c6.3,2.1,13,1.4,18.3-1.9c2.5-1.6,4.8-3.8,6-6.8C397,116.6,396.9,112.6,395,109.7z"/>
	<path class="st0" d="M339.3,115.1c-1,1.3-1.7,2.9-1.1,4.6c1,2.9,4.5,3.9,6.6,3.3s3.9-2.4,4.7-4.7c0.3-0.8,0.5-1.6,0.4-2.4
		c-0.4-5.8-5.1-4.6-8.2-2.8C340.9,113.5,340,114.2,339.3,115.1z"/>
	<path class="st0" d="M23.6,223.7c-3.2,3.6-6,7.8-6.8,13c-0.8,5.2,1,11.4,5.1,14.4c2.8,2,6.2,2.3,9.2,1.5s5.7-2.5,8.3-4.2
		c8.7-5.7,17.8-12.4,20.9-23.5c3-10.7-9.5-13.6-16.4-12.8C36.5,212.9,28.6,218,23.6,223.7z"/>
</g>
<ellipse class="st1" cx="250.7" cy="484.3" rx="73.5" ry="12"/>
<g>
	<g>
		<path class="st2" d="M272.6,172.5c20,12.2,12.2,64.6,12.2,64.6c3.2,0.6,6.3,1.3,9.3,1.8v11.9c-7.4,0.6-14.6,0.9-22,1.5h-0.5
			l-13-40.2c-1.3-4.7-2.2-9.5-2.2-14.4C256.4,171.4,272.6,172.5,272.6,172.5z"/>
		<path class="st3" d="M267.3,217l-0.7-3c-2.1-4.3-3.7-9-4.6-13.8c-4.7-25.9,11.6-27.6,11.6-27.6c13.2,5.4,15.1,27.7,14.4,44.4
			L267.3,217L267.3,217z"/>
		<g>
			<path class="st4" d="M262,216.4c-0.1,0.5,0.2,0.9,0.7,1.3c0.5,0.2,0.8,0.6,1.1,0.8c1.3,1.4,1.3,4.2,1.5,5.8c0,0.1,0,0.5,0.1,0.6
				c0.1,0.1,0.2,0.2,0.5,0.5c0.9,0.6,2.9-0.1,4-0.1c1.6-0.2,3.4-0.6,5-0.7c3.4-0.5,6.7-0.8,10.2-1.1c1.6-0.1,3.5-0.2,4.6-1.6
				c0.1-0.1,0.2-0.5,0.1-0.7c0-0.1-0.1-0.2-0.2-0.5c0,0,0,0-0.1,0c-0.1-0.1-0.2-0.2-0.2-0.5c-1.3-1.4,0.6-4.1,0-5.7
				c-0.1-0.2-0.2-0.7-0.6-0.8c-0.2-0.1-0.5-0.1-0.7,0c-1.3,0.1-2.5,0.5-3.9,0.7c-1.4,0.2-2.6,0.2-4,0.5c-1.8,0.1-3.4,0-5.1,0.1
				c-0.7,0-1.3,0-1.9,0c-2.1,0.1-4.1,0.2-6.3,0.5C265.2,215.1,262.4,214.5,262,216.4z"/>
			<path class="st5" d="M262,216.4c-0.1,0.5,0.2,0.9,0.7,1.3c0.5,0.2,0.8,0.6,1.1,0.8c1.3,1.4,1.3,4.2,1.5,5.8c0,0.1,0,0.5,0.1,0.6
				c0.1,0.1,0.2,0.2,0.5,0.5c0.9,0.6,2.9-0.1,4-0.1c1.6-0.2,3.4-0.6,5-0.7c3.4-0.5,6.7-0.8,10.2-1.1c1.6-0.1,3.5-0.2,4.6-1.6
				c0.1-0.1,0.2-0.5,0.1-0.7c0-0.1-0.1-0.2-0.2-0.5c0,0,0,0-0.1,0c-0.7-0.1-1.1,0.7-1.6,1.1c-0.7,0.6-1.5,0.6-2.3,0.7
				c-3.4,0.1-6.7,0.6-9.9,0.9c-2.6,0.5-5.4,0.8-7.8,0.1c-0.7-0.1-1.4-0.6-1.3-1.3c0-0.5,0.2-0.7,0.7-0.8c1.6-1.1,4.1-0.5,5.6-1.8
				c-0.9-0.5-2.1-0.6-3.2-0.7c-1.3-0.1-2.6-0.1-3.3-1.1c-0.1-0.2-0.2-0.6-0.2-0.8c0.1-0.2,0.5-0.6,0.8-0.7c3.2-1.3,6.7,0,9.9-0.6
				c0.7-0.1,2.5-0.5,3.7-1.1c-1.8,0.1-3.4,0-5.1,0.1c-0.7,0-1.3,0-1.9,0c-2.1,0.1-4.1,0.2-6.3,0.5
				C265.2,215.1,262.4,214.5,262,216.4z"/>
		</g>
		<path class="st6" d="M214.9,90.1c-1.4,2.6-2.5,5.4-3.3,8.1c-4.2,13.2-4.1,30.4,6.8,40.4c2.1,1.8,4.1,3.5,6.2,5.5
			c0.7,0.6,7.4,5,7.4,5.1c2.2-17.2,0.2-34.7,1.5-52.1c0.5-5.7,1.8-12.9-0.2-18.5c-2.3-6.3-10.4,0.9-13,3.5
			C218.2,84.5,216.3,87.3,214.9,90.1z"/>
		<path class="st7" d="M265.6,284.1l-14,186.8c0,0-0.2,4,1.9,5.6c2.2,1.6,13.4,7.9,7.9,8.3c-5.6,0.5-13.2-6.4-13.2-6.4l-3-194.2
			h20.4V284.1z"/>
		<path class="st8" d="M244.9,284.1l0.5,19.3l0.6,31.1l0.5,16.8l1.8,127.1c0,0,7.8,7,13.2,6.4c5.5-0.5-5.7-6.8-7.9-8.3
			c-2.2-1.6-1.9-5.6-1.9-5.6l14-186.8H244.9z"/>
		<polygon class="st9" points="245.3,303.4 245.8,334.3 245.8,334.3 253.7,299.3 		"/>
		<polygon class="st10" points="260.2,286.1 258.9,293.2 257.6,293.2 258,286.1 		"/>
		<path class="st7" d="M248.4,284.1l-14,193.2c0,0-0.2,4,1.9,5.6c2.2,1.6,13.4,7.9,7.9,8.3c-5.6,0.5-13.2-6.4-13.2-6.4l-3-200.5
			h20.4V284.1z"/>
		<path class="st8" d="M248.4,284.1l-14,193.2c0,0-0.2,4,1.9,5.6c2.2,1.6,13.4,7.9,7.9,8.3c-5.6,0.5-13.2-6.4-13.2-6.4l-3-200.5
			h20.4V284.1z"/>
		<polygon class="st10" points="240.4,288.2 239.2,295.4 238,295.4 238,287.6 		"/>
		<path class="st2" d="M190.7,169.2l42.2-9.1l40.8,12.4c0,0,19.9,27.9,12.3,53.8s-20.6,57.8-20.6,57.8h-37.6c0,0-4.6-56.6-29.2-72
			L190.7,169.2z"/>
		<path class="st11" d="M190.7,169.2l7.9,42.8c24.8,15.4,29.2,72,29.2,72l6.4,3.3c4.1,2.1,8.6,3.2,13.1,3.2c6.4,0,12.9-2.2,18.2-6.4
			c0,0,13-32,20.4-57.8s-12.3-53.8-12.3-53.8l-25.5-7.8l-3-0.9l-4-1.3l-9.9-2.2l-13.1,2.9l-2.1,0.5L190.7,169.2z"/>
		<path class="st2" d="M290.8,223.1l-1.4-1.6c0,0-0.8,1.5-2.7,1.5l-1.8,7.4l9.6-2.3L290.8,223.1z"/>
		<path class="st2" d="M216.2,163.6c2.9,3.3,5.7,6.5,8.6,9.8c1.6,1.9,3.4,4,5.8,5c3,1.5,7.1,1.6,10.3,0.5c3.3-1.4,5.6-4.1,6-7.1
			c0.2-1.9-0.1-3.9-0.8-5.7c-0.2-0.7-0.6-1.5-0.9-2.3c0-0.1-0.1-0.2-0.1-0.5l-3.9-0.8l-9.9-2.2l-13.1,2.9L216.2,163.6z"/>
		<path class="st2" d="M223.4,135.3c1.3,9.7,1.1,33.1,1.1,33.1c11.8,9,17.1,4.9,17.1,4.9c-0.2-3.4,0.5-6.4,1.1-8.9
			c0.2-0.8,0.7-1.6,0.9-2.5c0.8-2.1,1.8-3.3,1.9-3.4l0,0c10.8,4.3,21.6,3.4,23.5,1.8c3-2.6,11.6-52.9,11.6-52.9l-21.2-24.7
			l-31.4,4.2l-1.6,31.1c-1.4-1.5-4-3.3-7-2.2C215,117.6,213.8,128.9,223.4,135.3z"/>
		<path class="st6" d="M239.4,107.6c0,0,3.5-0.1,6.5,1.3c3.2,1.4,5.7,3.9,5.7,3.9s-1.6-5.7-5.4-6.7
			C242.6,104.8,239.4,107.6,239.4,107.6z"/>
		<path class="st12" d="M268.4,124.5L268.4,124.5c1.3-0.8,2.5,0.1,2.3,1.8c0,0.9-0.2,2.1-0.7,3.3c-0.9,3-2.6,5.1-3.5,4.9
			c-1.1-0.2-1.1-3-0.1-6.2c0.5-1.3,0.8-2.2,1.4-3C267.8,124.9,268.2,124.6,268.4,124.5z"/>
		<path class="st6" d="M277.7,119.5c0,0-2.2-2.1-4.9-2.5s-5.7,0.2-5.7,0.2s4.1-4,7-2.9C277,115.7,277.7,119.5,277.7,119.5z"/>
		<path class="st6" d="M225.5,119.5c-0.2-0.6-0.6-0.9-0.8-1.4c-1.4-2.2-3.4-3.9-4.6-6.2c-2.1-4.6-1.8-11.3-1.1-16
			c0.9-6.7,3.2-17.4,10.5-19.9c1.6-0.6,3.4-0.6,5-0.9c2.1-0.6,3.9-1.6,5.7-2.5c4.8-1.8,9.5-0.5,14.3,0.2c6.4,0.9,12.3,4,17.9,7.4
			c4.2,2.6,7.4,7.2,12,9c3.4,1.4,7.5,1.1,10.8-0.7c-0.6,4.3-2.6,8.5-5.8,11.3c2.2,0.1,4.6-0.1,6.7-0.8c-4.3,6.4-13,8.5-20.8,8.1
			c-9.5-0.6-17.4-5.8-26.8-6.3c-4.6-0.1-8.9,0.7-13,2.6c-8.1,3.5-6,15.2-6.5,22.6C227.9,123.9,226.7,121.6,225.5,119.5z"/>
		<path class="st13" d="M257.5,84.1c-2.5-1.1-4.7-2.6-6.8-4c-1.5-0.9-2.2-1.9-3.5-3.2c-1.3-0.9-1.6-1.9,0.1-2.6
			c1.9-0.7,4.2-0.5,6.2,0c4,0.6,7.8,2.2,11.2,4.2c3.4,2.2,6.4,4.8,8.5,8.2c2.1,3.4,2.9,6.8-2.1,7.2c-5.8,0.6-11.5-0.2-17.1-2.1
			c-2.5-0.8-4.9-1.9-7-3.5c-1.3-0.9-4.3-4.1-2.6-5.8c0.7-0.7,2.9,0,3.9,0.1C251.3,83,254.5,83.6,257.5,84.1z"/>
		<path class="st6" d="M266.8,122.6c0,0,4.7-5.1,8.2,0C275.1,122.6,271.8,114.5,266.8,122.6z"/>
		<path class="st12" d="M249.2,118.4L249.2,118.4c-0.6-1.4-2.1-1.4-2.9,0.1c-0.6,0.8-0.9,1.9-1.4,3.2c-0.9,3-0.8,5.7,0.1,6.2
			c1.1,0.2,2.7-1.9,3.5-4.9c0.5-1.3,0.6-2.3,0.7-3.3C249.4,119.1,249.4,118.8,249.2,118.4z"/>
		<path class="st6" d="M251.6,117.9c0,0-0.8-7-6.8-4.7C244.8,113.2,252.2,108.4,251.6,117.9z"/>
		<path class="st14" d="M263,143.7c-2.1,0.2-4.3-0.1-6.2-0.8c1.5-1.1,3.9-1.3,4.8-2.9c0.6-0.9,0.5-2.1,0.1-3c-0.2-0.9-0.8-1.9-1.1-3
			c-0.2-0.8-0.5-1.8-0.2-2.6c0-0.5,2.5,2.2,2.6,2.3c1.1,1.1,2.1,2.3,2.9,3.7c1.1,1.8,2.1,4.6-0.5,5.7
			C264.5,143.4,263.8,143.7,263,143.7z"/>
		<path class="st14" d="M231.6,151c0,0,1.9,10.5,12,11.2l0,0c0.8-2.1,1.8-3.3,1.9-3.4C245.1,158.6,238.6,157.5,231.6,151z"/>
		<path class="st15" d="M307.7,220.5l-35.4,7.9c-0.7,0.1-1.3,0.7-1.3,1.4l-3.9,31.1c-0.1,1.1,0.9,2.1,2.1,1.8l35.3-9
			c0.7-0.1,1.1-0.7,1.3-1.4l4.1-30C309.9,221.2,308.7,220.4,307.7,220.5z"/>
		<polygon class="st16" points="307.1,223.7 273.3,231.1 269.8,259.6 303.5,251.2 		"/>
		<path class="st16" d="M274.5,229.4c0,0-3.2-0.1-2.3,3.5C272.1,232.9,271.6,230.7,274.5,229.4z"/>
		<path class="st16" d="M268.9,257.4c0,0-1.6,5,3.2,3.3C270,261.4,266.4,262.9,268.9,257.4z"/>
		<path class="st2" d="M192.9,170c21.7,8.8,27.2,75.7,27.2,75.7c6.8,0.1,13.8,0.2,20.7,0.6c4.8,0.1,9.6,0.2,14.4,0.2
			c2.6,0,7.9,1.1,8.6-2.5c0.1-0.9,0.5-1.9,0.9-2.7c0.2-0.5,0.7-0.8,1.3-1.1c0.1,0,0.2-0.1,0.5,0c0.1,0,0.1,0.1,0.1,0.2
			c0.2,0.6,0,1.3-0.1,1.8c-0.2,0.9-0.5,2.1-0.5,3c0,0.8,0.7,1.9,1.5,2.3c0.8,0.5,1.9,0.6,2.9,0.5c0.8-0.1,1.6-0.2,2.2-0.8
			c1.6-1.3,1.5-2.9,2.5-4.6c0.1-0.1,0.2-0.5,0.5-0.6c0.2-0.1,0.5-0.1,0.7,0c0.2,0.2,0.2,0.7,0.1,1.1c-0.5,1.8-0.8,3.7-1.6,5.5
			c2.5-0.6,4.7-2.1,7.1-1.8c0.2,0,0.5,0.1,0.6,0.2c0.2,0.5-0.1,0.8-0.6,1.1c-1.9,1.3-4,2.1-6.2,2.7c-0.8,0.2-1.6,0.5-2.5,0.6
			c0.9,0.1,1.9,0.2,2.9,0.2c1.5,0,3-0.2,4.2,0.6c0.2,0.1,0.5,0.5,0.5,0.7s-0.2,0.5-0.6,0.5c-2.7,0.9-5.5,0.9-8.2,0.6
			c1.1,0.6,2.1,1.3,3,1.8c0.7,0.5,1.4,1.8,0.1,1.5c-2.1-0.6-4.2-1.1-6.2-2.1c-1.6-0.8-2.5-2.1-4-3c-4.6-2.9-9.8-0.5-14.6,0.7
			c-5.1,1.3-10.5,2.5-15.8,3.9c-8.2,1.9-16.4,4-24.7,5.8l-0.5,0.1l-24-51.5c-2.1-4.3-3.7-9-4.6-13.8
			C176.6,171.8,192.9,170,192.9,170z"/>
		<path class="st17" d="M181.3,196.5c0.8,4.8,2.5,9.5,4.6,13.8c0,0,3.9,8.2,8.5,18h24c-0.2-1.9-0.7-4-0.9-6
			c-3.5-20.3-10.8-48.1-24.2-53.4c0,0-2.1,0.2-4.7,1.6l0,0C184,173.2,178.4,179.8,181.3,196.5z"/>
		<path class="st3" d="M180.2,197.7c0.8,4.8,2.5,9.5,4.6,13.8c0,0,3.9,7,8.5,16.8l24,1.2c-0.2-1.9,0.5-4,0.2-6c-0.7,0-2.5,0-3,0
			c-11.5-0.1-22-8.3-26.6-18.8c-1.4-3.2-2.2-6.4-2.7-9.7c-0.8-6-0.5-12.2,0.9-18c0.2-1.4,1.4-3.5,1.4-5.1
			C182.9,174.3,177.3,181,180.2,197.7z"/>
		<g>
			<path class="st4" d="M191.6,227.2c-0.1,0.5,0.2,0.9,0.7,1.3c0.5,0.2,0.8,0.6,1.1,0.8c1.3,1.4,1.3,4.2,1.5,5.8
				c0,0.1,0,0.5,0.1,0.6c0.1,0.1,0.2,0.2,0.5,0.5c0.9,0.6,2.9-0.1,4-0.1c1.6-0.2,3.4-0.6,5-0.7c3.4-0.5,6.7-0.8,10.2-1.1
				c1.6-0.1,3.5-0.2,4.6-1.6c0.1-0.1,0.2-0.5,0.1-0.7c0-0.1-0.1-0.2-0.2-0.5c0,0,0,0-0.1,0c-0.1-0.1-0.2-0.2-0.2-0.5
				c-1.3-1.4,0.6-4.1,0-5.7c-0.1-0.2-0.2-0.7-0.6-0.8c-0.4-0.1-0.5-0.1-0.7,0c-1.3,0.1-2.5,0.5-3.9,0.7s-2.6,0.2-4,0.5
				c-1.8,0.1-3.4,0-5.1,0.1c-0.7,0-1.3,0-1.9,0c-2.1,0.1-4.1,0.2-6.3,0.5C194.9,226.1,191.9,225.4,191.6,227.2z"/>
			<path class="st5" d="M191.6,227.2c-0.1,0.5,0.2,0.9,0.7,1.3c0.5,0.2,0.8,0.6,1.1,0.8c1.3,1.4,1.3,4.2,1.5,5.8
				c0,0.1,0,0.5,0.1,0.6c0.1,0.1,0.2,0.2,0.5,0.5c0.9,0.6,2.9-0.1,4-0.1c1.6-0.2,3.4-0.6,5-0.7c3.4-0.5,6.7-0.8,10.2-1.1
				c1.6-0.1,3.5-0.2,4.6-1.6c0.1-0.1,0.2-0.5,0.1-0.7c0-0.1-0.1-0.2-0.2-0.5c0,0,0,0-0.1,0c-0.7-0.1-1.1,0.7-1.6,1.1
				c-0.7,0.6-1.5,0.6-2.3,0.7c-3.4,0.1-6.7,0.6-9.9,0.9c-2.6,0.5-5.4,0.8-7.8,0.1c-0.7-0.1-1.4-0.6-1.3-1.3c0-0.5,0.2-0.7,0.7-0.8
				c1.6-1.1,4.1-0.5,5.6-1.8c-0.9-0.5-2.1-0.6-3.2-0.7c-1.3-0.1-2.6-0.1-3.3-1.1c-0.1-0.2-0.2-0.6-0.2-0.8c0.1-0.2,0.5-0.6,0.8-0.7
				c3.2-1.3,6.7,0,9.9-0.6c0.7-0.1,2.5-0.5,3.7-1.1c-1.8,0.1-3.4,0-5.1,0.1c-0.7,0-1.3,0-1.9,0c-2.1,0.1-4.1,0.2-6.3,0.5
				C194.9,226.1,191.9,225.4,191.6,227.2z"/>
		</g>
		<path class="st18" d="M262.1,149.1c0,0-8.8,5.4-17.5-6.8l3.4,1.8c4.3,2.2,8.9,3.9,13.6,5H262.1z"/>
		<path class="st14" d="M254.5,151.9c0,0-3.5,0.8-5.1-1.6C249.4,150.4,249.7,155.4,254.5,151.9z"/>
	</g>
</g>
</svg>
