<?xml version="1.0" encoding="utf-8"?>
<!-- Generator: Adobe Illustrator 23.0.2, SVG Export Plug-In . SVG Version: 6.00 Build 0)  -->
<svg version="1.1" id="Layer_1" xmlns="http://www.w3.org/2000/svg" xmlns:xlink="http://www.w3.org/1999/xlink" x="0px" y="0px"
	 viewBox="0 0 512 512" style="enable-background:new 0 0 512 512;" xml:space="preserve">
<style type="text/css">
	.st0{fill:#DB5E91;}
	.st1{fill:#FFD9E0;}
	.st2{fill:#FAB085;}
	.st3{fill:#404B66;}
	.st4{fill:#5A6C99;}
	.st5{fill:#44537D;}
	.st6{fill:#FFE8B8;}
	.st7{fill:#FFD0A1;}
	.st8{fill:#FFBE8C;}
	.st9{fill:#47332F;}
	.st10{fill:#3D2F2D;}
	.st11{fill:#362329;}
	.st12{fill:#ED856D;}
	.st13{fill:#473734;}
	.st14{fill:#EB5C57;}
	.st15{fill:#584C49;}
	.st16{fill:#F09686;}
	.st17{fill:#543C38;}
	.st18{fill:#303030;}
	.st19{opacity:0.22;fill:#FFFFFF;}
	.st20{opacity:0.39;}
	.st21{fill:#FFFFFF;}
	.st22{fill:#FAAA85;}
	.st23{fill:#FAC5A5;}
	.st24{opacity:0.39;fill:#FFFFFF;}
	.st25{fill:#684655;}
	.st26{fill:#D0D3D9;}
</style>
<g>
	<g>
		<path class="st0" d="M115.2,342.4c8.3,27.3,24.4,55.3,48.3,70.9c42.6,27.9,96.9,5.3,132.8-23.2c37.7-29.9,69.2-66.8,97-105.8
			c42.1-59.1,97.8-156.1,35.3-221c-26.1-27.1-74-42.1-110.5-45.7C218.9,7.7,114.8,53.4,58.3,135.7c-6.8,9.8-13,20.5-14.7,32.3
			c-2.5,17.1,5.7,35.3,20.2,44.8c16.5,10.8,40.3,11.4,51.2,27.9c17.5,26.4-9.4,63.9-2.1,93.3C113.6,336.8,114.4,339.6,115.2,342.4z"
			/>
		<path class="st0" d="M291.9,420.6c-6.1-6.3,14.6-24.8,39-48.4c24.3-23.6,43.1-43.4,49.2-37.2c6.1,6.3-2.8,36.3-27.1,59.9
			C328.6,418.5,298,426.9,291.9,420.6z"/>
		<path class="st0" d="M87.7,238c-5.9-3.3-13.3-4.6-19.6-2.1c-8.1,3.2-13.1,12.4-12.3,21.1c0.8,8.7,6.6,16.5,14.3,20.7
			c7.7,4.2,16.9,4.9,25.5,3.2c11.5-2.3,16.7-12.7,10.8-23.3C102.7,250.9,94.5,241.8,87.7,238z"/>
		<path class="st0" d="M76,302.1c0.9,5.7,7.9,11.4,14.8,9.5c8.7-2.4,12.5-15.7,2-18.4c-3.6-0.9-7.6-1.2-11,0.3
			C76.9,295.4,75.4,298.7,76,302.1z"/>
		<path class="st0" d="M389.1,322c5.1,2.9,13.8,1,16.6-5.6c3.6-8.3-4.4-19.6-13.1-13.1c-3,2.2-5.7,5.2-6.7,8.8
			C384.5,317.1,386.2,320.4,389.1,322z"/>
	</g>
	<g>
		<path class="st1" d="M160,455l-60.1,14.4l66.9,16.7c37.2,9.3,75.3,11.9,113.1,7.6l120-13.6l-79.8-22.2
			C267.5,443.3,213,442.3,160,455z"/>
		<g>
			<path class="st2" d="M294.8,170.9c-0.5-1.1-1-2.2-1.3-3c0-0.1-0.1-0.3-0.2-0.3c-0.1-0.1-0.3-0.1-0.4,0c-0.9,0.1-1.8,0.4-2.7,0.8
				c-0.3,0.2-0.8,0.3-1.1,0.6c-0.3,0.3-0.3,0.8-0.3,1.2c-0.1,0.9,0,1.8,0.1,2.8c0.1,0.4,0.1,0.9,0.1,1.3c0,0.6-0.2,1.4-0.7,1.8
				c-0.1,0.1-0.3,0.3-0.4,0.3c-5.2,3.1-11.9,7.2-17.2,9.9l-4.8,2.4L242,201.7l-6.7-28.9l-3.9-16.8c-6.6-6.8-10.5-7.6-12.4-8
				c-2.6-0.5-4.8,0.7-6.6,1.8c0.8,3.2,1.7,6.4,2.5,9.6c1.9,7.3,3.9,14.6,5.8,21.9c2.1,8,4.2,16,6.3,24c0.7,2.8,1.2,5.4,2.9,7.7
				c0.9,1.1,2,2.1,3.4,2.6c7.4,2.4,14.9-2.7,20.4-7.2c2.5-2,5-4.1,7.5-6.1c6.2-5,12.5-10.1,18.7-15.1l9.6-8.2c0,0,0.1,0,0.1,0
				c0.4-0.2,0.8-0.6,1.3-0.6l3.4-1.1C296.5,176,295.8,173.3,294.8,170.9z"/>
			<path class="st3" d="M177.2,292.5c0.3,1,0.5,2.2,0.5,2.2c3.3,13.2,7.6,26.1,11.2,39.1c1,3.5,2.2,7.1,2,10.8
				c-0.2,2.6-1.1,4.3-2.5,6.5c-2.1,3.3-4.3,6.4-5.9,9.9c-3.4,7-4.5,14.8-4.9,22.6c-1.1,21-6.9,70.1-6.9,70.1l-3.5,13.9h25.3L175,455
				c0.8-2.3,1.6-4.7,2.4-7c2-5.9,4-11.9,6-17.8c2.7-7.9,5.3-15.8,8-23.7c2.8-8.2,5.5-16.4,8.3-24.6c2.3-6.9,4.6-13.8,7-20.7
				c1.4-4.3,3.1-8.6,4.2-13c1.7-6.8,2.6-14,3.8-20.9c1.6-8.6,3.2-17.3,4.8-25.9l1.6-8.9H177.2z"/>
			<path class="st3" d="M245.8,348l2.9-52c0.1-1.2,0.1-2.3,0.1-3.5h-35.5l1.1,3.5l14.5,47.1c0,0-5.6,16.6-6.4,23.6
				c-1.5,13.4,17.8,84.7,17.8,84.7l-1.6,9.1h31.6l-25.4-9.1L245.8,348z"/>
			<path class="st4" d="M248.7,292.5c0,1.2,0,2.3,0,3.5l-2.9,52L245,451.4l0.5,0.2c-0.9,0-1.8-0.2-2.6-0.6c-1.1-0.5-2.2-1.3-3.3-2.1
				c-3.4-12.7-18.5-70.3-17.1-82.2c0.8-7,6.4-23.6,6.4-23.6l-11.1-35.9l-3.5-11.2l-0.3-1v-44.9H239c2.2,4.9,4,9.8,5.4,14.9
				c1.7,5.9,2.9,12,3.6,18.2c0,0,0,0,0,0C248.4,286.3,248.6,289.4,248.7,292.5L248.7,292.5z"/>
			<path class="st5" d="M242.9,451c-1.1-0.5-2.2-1.3-3.3-2.1c-3.4-12.7-18.5-70.3-17.1-82.2c0.8-7,6.4-23.6,6.4-23.6l-11.1-35.9
				l7.2-22.1l13.3,59.2l0,0c-7.5,15.4-9.8,32.7-6.5,49.5L242.9,451z"/>
			<path class="st4" d="M221.7,250.1v42.6h-0.8l-1.6,8.7c-1.6,8.6-3.2,17.3-4.8,25.9c-1.3,6.9-2.1,14.1-3.8,20.9
				c-1.1,4.4-2.8,8.7-4.2,13c-2.3,6.9-4.6,13.8-7,20.7c-2.8,8.2-5.5,16.4-8.3,24.6c-2.7,7.9-5.3,15.8-8,23.7c-2,5.9-4,11.9-6,17.8
				c-0.8,2.3-1.6,4.7-2.4,7l0.5,0.3c-1.7,0.1-3.4-0.2-5-0.8l0.2-0.9c0,0,5.9-49.1,6.9-70.1c0.3-6,1.1-11.9,2.8-17.6
				c1.5-5,5.2-10.3,8-14.8c1.4-2.2,2.3-3.9,2.5-6.5c0.2-3.7-1-7.3-2-10.8c-3-11-6.5-21.7-9.5-32.7c-2.8-10.3-6.3-19.8-5.5-30.8
				c0.5-7.1,2.5-14,6-20.2H221.7z"/>
			<path class="st6" d="M258.9,232.5c-9.1,0.9-18.5-0.9-26.6-5.3c-3.5-1.8-5-4.1-6.2-7.9c-2.1-6.5-3.5-13.1-4.8-19.8
				c-0.2-1.1-0.4-2.2-0.6-3.2c-1.6-8.4-3.2-16.7-4.8-25.1c-0.8-4.3-1.8-8.6-2.5-12.9c-0.2-1.5-1.8-8.2-0.7-9.1
				c2.5-2.1,4.1-2,6.7-2.2c1.2-0.1,3.4-0.5,6.1,1.1c2,1.1,4.4,3.3,7,7.5c1.5,2.4,2.4,5.5,3.1,8.5c0.6,2.6,1,5.2,1.6,7.5
				c2,8,3.4,16.1,4.2,24.3c0.1,1.4,0.5,3.2,1.9,3.5c0.9,0.2,1.8-0.3,2.6-0.8c3.6-2.2,7.1-4.5,10.7-6.7c0.6,11.4,1.2,22.8,1.8,34.3
				C258.7,228.4,258.7,230.5,258.9,232.5z"/>
			<path class="st7" d="M222.9,194.2c1.7-4.5,3.8-8.7,5.4-13.2c1.1-2.9,2.4-5.6,4-8.2c0.4-0.7,0.9-1.4,1.6-1.6c1-0.3,2,0.4,2.6,1.2
				c1.1,1.5,1.5,3.3,1.5,5.2c0,3-0.9,5.9-1.7,8.8c-0.7,2.1-1.3,4.3-2.3,6.3c-1.3,2.8-3.2,5.5-3.8,8.6c-0.3,1.5-0.2,2.9,0.1,4.4
				c0.1,0.8,0.3,1.7,0.5,2.5c0.1,0.4,0.7,1.7,0.5,2.1c1.6-4.5,5-8.4,9.2-10.6c-3.1,4.7-4.8,10.2-4.9,15.9c0.6-1.4,1.6-2.7,2.7-3.7
				c-0.9,0.8-1.3,3.4-1.5,4.5c-0.4,1.7-0.3,2.3,1,3.5c2.1,1.9,5.1,2.9,7.8,3.7c4.3,1.3,8.7,1.9,13.1,2.8c0.1,2.1,0.2,4.2,0.3,6.3
				c-9.1,0.9-18.5-0.9-26.6-5.3c-3.5-1.8-5-4.1-6.2-7.9c-2.1-6.5-3.5-13.1-4.8-19.8C221.7,197.8,222.2,196,222.9,194.2z"/>
			<path class="st2" d="M235.7,164.2c-4-1-7.4-3.9-9.1-7.5c-1.1-2.4-1.6-5.6-1-8.4c2,1.1,4.4,3.3,7,7.5
				C234.1,158.1,235,161.1,235.7,164.2z"/>
			<path class="st6" d="M243.3,251c-10.3,7.2-22.4,10.9-34.5,10.9c-11,0-22-3-31.7-9L174,251c1.3-2.2,2.7-4.3,4.1-6.4
				c1.3-1.7,2.6-3.4,4-4.9l0.1-0.1l17-18.8l0.5-0.7c-0.4-2.7-1.2-6.2-2.3-10.2c-0.9-3.2-2-6.7-3.2-10.4c-1.7-5.3-3.7-10.9-5.6-16.2
				c-0.2-0.6-0.4-1.2-0.6-1.8c-1.1-3.1-2.2-6.1-3.2-8.8c-2.9-8-5.2-14-5.3-15.2c-0.3-1.6-0.3-2.8,0.3-4.1c0-0.1,0.1-0.2,0.1-0.3
				c0.8-1.5,2.5-3,5.8-4.9l0.1,0l0.4-0.2l0.1,0l0.1,0l0.2-0.1l0.1,0l0.2-0.1l7.8-3.3l1.8-0.8c0.8-0.3,1.6-0.6,2.4-0.9
				c3.1-0.9,6.2-1,9.3-0.3c0.7,0.1,1.4,0.2,2,0.5c0.7,0.3,1.3,0.8,2.1,1c3.4,1.3,7,1.9,10.5,3.2c1.5,0.5,3,1.1,4,2.4
				c0.9,1.2,1.3,2.8,1,4.2c-0.1,0.3-0.1,0.7-0.1,1c0,1.1,0.3,2.2,1,3.1c2.5,3.5,7.7,11.1,8.3,14.5c0.8,4.2-13.7,40.1-14.7,47.8
				c0.1,0.2,0.3,0.5,0.4,0.7c3.4,4.2,6.7,8.6,10.1,13.3C236.7,239.2,240.1,244.9,243.3,251z"/>
			<path class="st7" d="M212.9,206.8c-0.8,3-3.3,10.1-3.6,11c-1.5,4.3-2.9,8.7-3.7,13.1c-1.2,6-2.5,12-3.8,18
				c-0.1,0.5-0.2,1-0.6,1.3c-0.4,0.4-1,0.5-1.5,0.6c-7.1,1.2-16.4-0.6-21.5-6.2c1.3-1.7,2.6-3.4,4-4.9l17.1-19l0.5-0.7
				c-1.1-7.8-6.2-23.2-11.1-36.8c3.2-0.9,6.5-2.3,9.7-2.8c-0.5,1.7-0.4,3.3,1.6,4c1.3,0.5,2.8,0.3,4.2,0c7.6-1.5,15.2-4,22.9-3.4
				c0.8,0.1,1.7,0.2,2.2,0.9c0.4,0.6,0.3,1.4,0.2,2.1c-0.2,1.6-0.6,3.1-1,4.6c-0.2,0.8-0.5,1.6-1,2.3c-0.9,1.2-2.5,1.6-4,1.9
				c-3.2,0.7-6.4,1.4-9.5,2.2c-1.7,0.4-3.4,0.8-4.9,1.6c-3.8,2.2-3.9,6.9,0.6,8.1c1.1,0.3,2.2,0.6,3.3,0.9
				C213.2,205.5,213.1,206,212.9,206.8z"/>
			<path class="st8" d="M197.1,258.4c3.8,1.5,7.9,2.2,11.8,3.5c-11,0-22-3-31.7-9L174,251c1.3-2.2,2.7-4.3,4.1-6.4
				c1.3-1.7,2.6-3.4,4-4.9l17.1-19l0.5-0.7c-1.1-7.8-6.2-23.2-11.1-36.8c-0.2-0.6-0.4-1.2-0.6-1.8c2.2-1.5,4.4-2.2,5.7-0.1
				c1.3,2.1,1.3,6.4,1.8,8.8c0.7,3.1,1.4,6.2,2.2,9.4c0.8,2.9,1.6,5.9,3.3,8.4c2.7,3.9,7.3,6,11.8,7.5c-8.5,5.3-15.9,12.2-21.7,20.3
				c-2.6,3.5-4.9,7.6-4.3,12C187.5,252.8,192.2,256.5,197.1,258.4z"/>
			<polygon points="238.3,98.9 217.7,100.9 217.5,104.1 238.8,102.7 			"/>
			<path class="st9" d="M193.8,54.6c0.1,3.8-2.8,8.5-4.3,11.8c-1.9,4-4.4,7.8-8.3,10c-2.6,1.5-5.7,2.2-8.2,4
				c-3.7,2.8-5.1,8-4.9,12.7c0.2,4.7,1.6,9.3,2.3,13.9c0.6,4.2,0.6,8.6-0.1,12.8c-0.4,2.7-1.2,5.5-3,7.5c-2.5,2.7-6.7,3.9-7.8,7.3
				c-1.1,3.3,1.6,6.9,1.1,10.4c-0.2,1.7-1.1,3.2-2.4,4.2c-1,0.9-2.3,1.5-3.6,1.7c-3,0.5-6.1-0.6-8.5-2.4c1.8,0.5,3.8,0.1,5-1.2
				c1.3-1.3,1.6-3.5,0.6-5c-1.1-1.6-3.1-1.7-4.7-2.6c-1.4-0.8-2.5-2.2-3.3-3.7c-1.5-3-1.5-6.7,0.3-9.5c2-3.2,5.8-4.9,7.7-8.2
				c2.7-4.7,0.6-10.7-2.5-15.1c-3.1-4.4-7.2-8.3-8.9-13.4c-1.8-5.6-0.4-11.8,1.9-17.3c3-7.2,7.6-13.7,13.5-18.7
				c6-5,13.4-8.4,21.1-9.1c3.5-0.3,7.2-0.1,10.4,1.4c3.2,1.5,5.9,4.4,6.4,7.9C193.8,54.1,193.8,54.4,193.8,54.6z"/>
			<path class="st10" d="M182.2,51.1c2.2,2.3,3.9,5.2,4.8,8.2c-4.9-3.1-11.1-5-16.4-2.8c-1.8,0.8-3.5,2-5,3.3
				c-5.3,4.6-10.1,10.5-10.8,17.6c-0.5,4.7,0.9,9.4,2.8,13.8c0.8,1.9,1.8,3.8,2.2,5.9c0.4,2.1,0.2,4.3-1,6c2.1-2.5,3.1-5.8,2.7-9
				c-0.3-2.7-1.4-5.1-2.1-7.7c-0.7-2.9-0.8-6-0.2-8.9c0.6-3.1,2-6.2,4.5-8.2c2.5-2,6.2-2.6,8.9-1c-5.9,1.2-10.3,7.5-9.4,13.5
				c0.8-4.2,4.5-7.4,8.3-9.2c3.9-1.9,8.2-2.7,12.1-4.5c3.1-1.4,9.3-5.2,8.7-9.3C191.7,54.7,185.8,51.5,182.2,51.1z"/>
			<path class="st11" d="M193.8,54.6c0.1,3.8-2.8,8.5-4.3,11.8c-1.9,4-4.4,7.8-8.3,10c-2.6,1.5-5.7,2.2-8.2,4
				c-3.7,2.8-5.1,8-4.9,12.7c0.2,4.7,1.6,9.3,2.3,13.9c0.6,4.2,0.6,8.6-0.1,12.8c-0.4,2.7-1.2,5.5-3,7.5c-2.5,2.7-6.7,3.9-7.8,7.3
				c-1.1,3.3,1.6,6.9,1.1,10.4c-0.2,1.7-1.1,3.2-2.4,4.2c0-0.1,0-0.1,0.1-0.2c0.6-2.3-0.2-4.8-1.2-7c-1.1-2.2-2.4-4.2-3.3-6.4
				c-0.8-2.2-1.1-4.9,0.2-7c2-3.3,6.6-3.7,9.4-6.3c2.7-2.4,3.3-6.4,2.9-10c-0.4-3.6-1.8-7-2.6-10.5c-1.2-5.7-0.8-12.2,0.3-17.9
				c2-10.6,8.7-20.2,17.9-25.8C184.7,56.4,190,53.7,193.8,54.6z"/>
			<path class="st2" d="M210.7,158.8c-5-0.3-10.1-1.5-14.5-4c-1.8-1-3.7-2.4-4.8-4.2c-1.4-2.1,0.4-2.5,2.1-3.6
				c2.9-2.1,5.8-5,6.2-8.7c0.3-2.6,0.3-4.9,0.1-6.8c-0.4-4.1-1.4-6.5-1.4-6.5l8.3-1.3l2.8,4.4c0,0-3,4.4-2.5,8.3
				c0.1,0.6,0.2,1.2,0.4,1.9c0.7,2.1,2.5,5,5.3,7.2c0.9,0.7,1.8,1.3,2.7,1.8c0.8,0.4,2.3,0.6,2.9,1.1c1.5,1.4,1.7,6.1,0.6,7.8
				C217.2,158.5,213.1,158.9,210.7,158.8z"/>
			<path class="st12" d="M206.9,136.3c0.1,0.6,0.2,1.2,0.4,1.9c-2.8-1.2-5.5-4.1-7.6-6.8c-0.4-4.1-1.4-6.5-1.4-6.5l8.3-1.3l2.8,4.4
				C209.4,128.1,206.4,132.4,206.9,136.3z"/>
			<path class="st2" d="M233.6,109.6c-1.8-8.9-1.2-6.3,0.4-21.5c1.5-13.3-7.1-20.1-9.3-21.7c-0.4-0.3-0.8-0.6-1.2-0.9
				c-5.2-4-10.7-5.8-15.4-6.6c-7-1.2-14.2-0.1-20.5,3.2c-17.1,9-14.8,27.5-14.8,27.5s-0.3,37.5,30,43.7
				C232.7,139.5,235.4,118.5,233.6,109.6z"/>
			<path class="st13" d="M222.8,98.2c0,0,7.8-3.2,11,2.4C233.8,100.6,231.7,92.4,222.8,98.2z"/>
			<path class="st13" d="M209.1,96.1c0,0-8.6-4.5-13.6,0.3C195.5,96.4,199.6,88.7,209.1,96.1z"/>
			<path class="st12" d="M204.4,131.9c-30.3-6.2-30-43.7-30-43.7s-1.6-12.9,7.8-22.3c-11.1,9.6-9.3,23.8-9.3,23.8s-0.3,37.5,30,43.7
				c13.7,2.8,21.6-0.1,26.1-4.9C224.3,132.4,216.6,134.4,204.4,131.9z"/>
			<path class="st14" d="M220.8,123.2c0,0,3.6-1.9,0.3-2.9c-3.4-1-9.2,1.4-12.3-0.9c0,0,2.1,5.5,7.8,6.4
				C222.2,126.7,220.8,123.2,220.8,123.2z"/>
			<path class="st9" d="M234.5,89.2c-0.5-4.7-3.7-5.2-8-6.2c-5.1-1.1-10.3-1.5-15.4-1.4c-6.3,0.1-12.6,1.3-17.9,4.7
				c-2.5,1.6-4.8,3.6-6.5,6.1c-2,2.9-3.4,6.7-7.5,6.4c-2-0.2-6.3-1.9-5.6,2.1c0.2,1.2,1.3,2.1,1.8,3.2c0.9,1.9,1.6,4,2.6,5.9
				c2.7,5.2,5.5,10.2,8.6,15.1c-3.2-2.6-7.1-3.6-10.2-6.4c-3.2-2.8-5.5-6.4-6.7-10.5c-1.5-4.9-2.5-9.9-2.7-15.1
				c-0.1-3.2,0-6.5,0.5-9.7c1-7,3.8-13.7,9.2-18.3c3.6-3.2,8-5.9,12.6-7.6c1.2-0.5,2.5-0.9,3.8-1.1c0,0,0,0,0,0
				c1.1-0.3,2.2-0.4,3.4-0.5c0.1,0,0.3,0,0.4,0c4-0.3,8,0.1,11.9,1.1c3,0.8,5.8,1.8,8.6,3c0,0,0.1,0,0.1,0
				c8.1,3.8,14.7,9.9,16.8,19.5C235,82.6,235.1,85.9,234.5,89.2z"/>
			<path class="st15" d="M232,102.9l-3.9-0.5c-1-0.1-2.1,1.5-2.3,3.6c-0.3,2.1,0.3,3.9,1.4,4.1c1,0.1,2.1-1.5,2.3-3.6
				c0.1-1,0.1-2-0.2-2.7L232,102.9z"/>
			<path class="st15" d="M207.9,99.8l-3.9-0.5c-1-0.1-2.1,1.5-2.3,3.6c-0.3,2.1,0.3,3.9,1.4,4.1c1,0.1,2.1-1.5,2.3-3.6
				c0.1-1,0.1-2-0.2-2.7L207.9,99.8z"/>
			<path class="st16" d="M234.1,113.8c-0.1,0.9-1.7,1.5-3.4,1.3c-1.8-0.2-3.1-1.2-3-2.1c0.1-0.9,1.7-1.5,3.4-1.3
				C232.9,111.9,234.2,112.8,234.1,113.8z"/>
			<path class="st16" d="M202.5,109.8c-0.1,0.9-2.3,1.4-4.9,1.1c-2.6-0.3-4.6-1.4-4.4-2.3c0.1-0.9,2.3-1.4,4.9-1.1
				C200.7,107.8,202.7,108.9,202.5,109.8z"/>
			<path class="st2" d="M252.9,199.5c-0.3,0.1-0.6,0.3-0.9,0.5c-0.2,0.2-0.4,0.3-0.6,0.3c-0.6-0.1-0.2-1.2-0.2-1.6
				c0.1-0.8,0.1-1.6,0-2.5c0-0.1,0-0.3-0.1-0.4c-0.1-0.1-0.2-0.1-0.4-0.2c-0.9-0.2-1.9-0.2-2.8-0.1c-0.4,0.1-0.9,0-1.2,0.2
				c-0.3,0.2-0.5,0.7-0.7,1c-0.4,0.8-0.6,1.7-0.7,2.7c-0.1,0.4-0.2,0.9-0.3,1.3c-0.2,0.5-0.7,1.2-1.2,1.4c-0.2,0.1-0.3,0.2-0.5,0.2
				l0-0.1c-5.9,1.2-13.6,3-19.5,3.8l-5.3,0.7l-26.8,4.8l2.9-29.5l1.7-17.1c-4.1-8.5-7.5-10.6-9.2-11.5c-2.3-1.3-4.8-0.9-6.8-0.4
				c-0.2,3.3-0.4,6.6-0.7,9.9c-0.5,7.5-1,15.1-1.5,22.6c-0.6,8.2-1.1,16.5-1.7,24.7c-0.2,2.9-0.6,5.5,0.3,8.3
				c0.5,1.4,1.2,2.7,2.4,3.5c6.2,4.7,15,2.2,21.6-0.3c3-1.1,6-2.2,9.1-3.4c7.5-2.8,15-5.6,22.5-8.4l11.7-4.7c0,0,0.1,0,0.1,0
				c0.4-0.1,1-0.3,1.4-0.2l3.6,0.1c0.9-0.3,1.6-1.1,2-2c0.6-1.3,1.8-3,3.3-3.1c0.1,0,0.1,0,0.2-0.1c0,0,0.1-0.1,0.1-0.2
				C254.8,199.3,253.5,199.3,252.9,199.5z"/>
			<path class="st6" d="M208.6,207.1c-0.2,0.7-0.4,1.4-0.6,2.1c-3.5,12.3-6.9,24.7-10.3,37c-5.5-1.3-10.7-3.5-15.4-6.7
				c-3-1.9-5.7-4.2-8.1-6.8c-2.7-2.9-3.5-5.5-3.4-9.4c0.1-7.9,1.2-15.7,2.2-23.5c1.2-8.4,2.3-16.9,3.5-25.3c0.1-1,0.3-1.9,0.4-2.9
				c0.4-3.4,0.8-6.8,1.4-10.1c0.2-1.2,0.7-6.2,1.7-8.1c0-0.1,0.1-0.2,0.1-0.3c0.1-0.2,0.3-0.4,0.5-0.5c3.1-1.2,4.5-0.6,7.1,0.1
				c0.8,0.2,2.1,0.4,3.5,1.3c2.1,1.3,4.6,4.2,6.2,10.9c1.3,5.2-0.2,11.6-0.7,16.8c-0.1,1.8-0.3,3.5-0.5,5.3
				c-0.5,4.2-1.1,8.3-1.8,12.5c-0.4,2.2-0.9,4.4-1.4,6.7c-0.3,1.4-0.5,3.2,0.7,4c0.8,0.5,1.8,0.3,2.7,0.1c0.4-0.1,0.8-0.2,1.2-0.3
				C201.2,208.9,204.9,208,208.6,207.1z"/>
			<path class="st10" d="M214.5,72.1c-5.6-3.4-11.6-6.2-17.7-8.5c-2.2-0.9-4.7-1.6-7-0.8c3.2,4.1,5.1,9.2,5.4,14.4
				c-2.8-5-6.6-9.5-11.2-12.9c-3,7.6-4,15.9-3.1,24c-2.2-5.7-3.2-11.7-4.3-17.7c-5.7,7.4-8.6,16.9-8.2,26.2c-0.2-4.6-1.5-8.7-1-13.3
				c1-7,3.8-13.7,9.2-18.3c3.6-3.2,8-5.9,12.6-7.6c1.3-0.5,2.5-0.8,3.8-1.1c0,0,0,0,0,0c1.1-0.2,2.3-0.4,3.4-0.5c0.1,0,0.3,0,0.4,0
				c4-0.3,8,0.1,11.9,1.1c3,0.8,5.8,1.8,8.6,3c-5.6-1.9-11.7-2.4-17.4-1.1C205.9,61.7,211,66.4,214.5,72.1z"/>
			<path class="st17" d="M214.5,60.7c-0.5,0-1,0-1.4,0.4c-0.2,0.2-0.4,0.5-0.4,0.8c-0.5,1.8,0.6,3.6,1.6,5.1
				c1.8,2.4,3.8,4.7,6.1,6.5c1.6,1.2,3.5,2.2,5.6,2.4c0.4,0,0.7,0,1-0.1c0.5-0.2,0.8-0.8,0.9-1.3c0.5-1.8,0.2-3.9-0.7-5.5
				C224.9,64.4,219.5,60.8,214.5,60.7z"/>
			<path class="st9" d="M229.1,78.9c1.1,0.7,1.8,2.1,1.8,3.4c0,1.3-0.8,2.7-1.9,3.4c-1.1,0.7-2.5,0.8-3.8,1.2
				c-1.3,0.4-2.6,1.4-2.5,2.8c0,1.2,1.2,2.1,2.3,2.1c1.2,0,2.2-0.8,2.8-1.7c-0.2,1.8-1.7,3.4-3.5,3.7c-1.8,0.3-3.7-0.9-4.2-2.7
				c-0.2-0.9-0.1-1.8,0.2-2.7c0.4-1.2,1.2-2.4,2.4-2.8c1-0.4,2.4-0.3,3-1.2c0.1-0.2,0.2-0.4,0.2-0.6c0-0.5-0.6-0.8-1-1
				c-1.4-1-1.4-2.9-0.2-4.1C225.7,77.4,228,78.2,229.1,78.9z"/>
			<g>
				<polygon class="st18" points="195.8,95.4 175.2,97.4 175,100.6 196.3,99.2 				"/>
				<path class="st19" d="M233.6,109.5c-0.6,1.1-1.6,2.7-2.8,3.1c0,0,0,0-0.1,0c-0.2,0-0.5,0.1-0.7,0.1c-0.5,0.1-1,0.1-1.6,0
					c-0.2,0-0.3,0-0.5-0.1c-0.8-0.1-1.5-0.4-2-0.7c-0.2-0.1-0.5-0.3-0.7-0.5c-2.5-2.1-2.6-6-2.6-9c0.1-3,4.8-3.1,6.9-3.3h0.1
					c0.9-0.1,1.9,0,2.8,0.3c0.7,0.2,1.3,0.5,1.7,1c0.2,0.1,0.3,0.3,0.4,0.5c0,0,0,0.1,0,0.1C236.4,103.5,235,107.1,233.6,109.5z"/>
				<path class="st19" d="M215.5,101.7c-0.3,2.3-0.9,4.5-2.1,6.5c-1.2,1.9-3.1,2.8-5.1,3c-0.7,0.1-1.5,0-2.3,0c-0.1,0-0.3,0-0.4-0.1
					c-0.2,0-0.4,0-0.7-0.1c-0.6-0.1-1.3-0.3-1.9-0.5c-0.6-0.2-1.1-0.4-1.6-0.6c-0.3-0.2-0.7-0.4-0.9-0.8c-0.4-0.4-0.7-0.9-0.9-1.3
					c-0.9-2.3-1.2-4.8-0.9-7.3c0.2-2.3,1.1-3.1,3.2-3.4c0.9-0.1,1.9-0.2,2.9-0.2c1,0,2,0.1,3,0.3c0.7,0.1,1.3,0.2,1.9,0.4
					c0.2,0,0.4,0.1,0.6,0.1h0c1.3,0.3,2.5,0.8,3.7,1.3C215.1,99.4,215.6,100.4,215.5,101.7z"/>
				<path class="st18" d="M204.6,95c4.2,0.6,8.4,1.3,12.2,3.2c2,1,4,0.8,6.1,0.2c6.7-1.7,8.9-1.6,15.4,0.4c0.8,0.2,1.2,0.6,0.9,1.6
					c-0.1,0.5-0.2,1-0.2,1.4c0,0.6-0.3,0.8-0.8,1.1c-0.5,0.2-0.9,0.9-1.1,1.5c-0.6,1.7-1.2,3.4-1.7,5c-1,3-3.5,5.1-6.8,5
					c-3.4-0.1-5.9-2.8-6.6-6c-0.4-1.7-0.8-3.4-1.3-5.2c-0.2-0.9-0.6-1.6-1.6-1.7c-0.9-0.1-1.4,0.6-1.7,1.4c-0.7,1.5-1.3,3-1.9,4.6
					c-1.2,3.2-3.5,5-6.7,5.1c-2.3,0-4.6-0.3-6.9-0.9c-2.3-0.5-3.7-2.3-4.2-4.7c-0.4-2-0.7-4-1.1-6c-0.1-0.8-0.3-1.5-1.1-1.9
					c-0.2-0.1-0.4-0.4-0.4-0.7c0.2-3.5-0.7-3,2.8-3.4C200.1,94.9,202.3,95.1,204.6,95z M228.4,112.7c0.8,0.1,1.7,0.1,2.4-0.1
					c1.3-0.4,2.2-2,2.8-3.1c1.4-2.4,2.8-6,1.1-8.5c-1.1-1.5-3.3-1.9-5-1.8c-2,0.2-6.9,0.2-7,3.3c-0.1,3.3,0.1,7.6,3.2,9.5
					C226.6,112.3,227.5,112.6,228.4,112.7z M206,111.1c0.8,0.1,1.6,0.1,2.3,0c2.1-0.2,4-1,5.1-3c1.2-2,1.8-4.2,2.1-6.5
					c0.2-1.4-0.3-2.3-1.5-2.8c-1.2-0.5-2.4-1-3.7-1.3c-2.8-0.7-5.6-0.9-8.5-0.6c-2.2,0.3-3,1.1-3.2,3.4c-0.2,2.5,0,5,0.9,7.3
					c0.3,0.8,1.1,1.7,1.8,2.1C202.7,110.5,204.3,111,206,111.1z"/>
				<g class="st20">
					<path class="st21" d="M207.7,97.1l-4.7,13.4c-0.6-0.2-1.1-0.4-1.6-0.6c-0.3-0.2-0.7-0.4-0.9-0.8l4.3-12.2
						C205.7,96.9,206.7,96.9,207.7,97.1z"/>
					<path class="st21" d="M210.2,97.6l-4.7,13.5c-0.2,0-0.4,0-0.7-0.1l4.7-13.5C209.8,97.5,210,97.6,210.2,97.6z"/>
				</g>
				<g class="st20">
					<path class="st21" d="M232.5,99.5l-4.6,13.2c-0.8-0.1-1.5-0.4-2-0.7c-0.2-0.1-0.5-0.3-0.7-0.5l4.3-12.3h0.1
						C230.6,99.1,231.6,99.1,232.5,99.5z"/>
					<path class="st21" d="M234.7,101l-4,11.6c-0.2,0-0.5,0.1-0.7,0.1l4.3-12.3C234.4,100.6,234.6,100.7,234.7,101
						C234.7,100.9,234.7,101,234.7,101z"/>
				</g>
			</g>
			<path class="st12" d="M184.2,107.7c0.1-1.5-0.1-3-0.7-4.5c-1-2.6-3.3-6.6-8.4-6.4c-7.5,0.4-1.1,15.9,3.6,15.7
				C182.4,112.3,183.9,110.6,184.2,107.7z"/>
			<path class="st22" d="M293.3,174.2c0.1-0.3,0.2-0.7,0.2-1.1c0-0.2,0-0.3-0.1-0.4c-0.1-0.1-0.3-0.1-0.4-0.1
				c-0.1,0.1-0.2,0.2-0.3,0.3c-0.2,0.3-0.4,0.5-0.6,0.8c-0.2,0.4-1,1.5-0.2,1.5C292.5,175.2,293.1,174.6,293.3,174.2z"/>
			<g>
				<path class="st21" d="M219.9,284.6c-1.4,0-2.9-0.4-4.2-1.1c-1.8-1-3-2.6-3.5-4.4c-0.7-3,1.2-6,4.2-6.7c2.5-0.6,5.1,1,5.7,3.5
					l-2.3,0.5c-0.3-1.3-1.6-2-2.8-1.7c-1.7,0.4-2.8,2.1-2.4,3.9c0.3,1.2,1.1,2.2,2.3,2.9c1.5,0.8,3.3,1,4.7,0.6
					c4.2-1.4,5.1-6.1,4.6-10l-1.1-8c-0.1-0.6-8.2-58,30-66.4c27.5-6,30.3-12.9,33-19.5c0.8-2.1,1.7-4.3,3.3-6.4
					c1.8-2.5,4.2-3.9,7-4.3c6.1-0.8,12.1,4,12.4,4.2l-1.5,1.8c-0.1,0-5.5-4.4-10.6-3.7c-2.1,0.3-3.9,1.4-5.3,3.4
					c-1.4,1.9-2.2,3.9-3,5.9c-2.9,7.2-5.9,14.7-34.7,21c-36.1,7.9-28.3,63.2-28.2,63.7l1.1,8c0.7,4.6-0.6,10.7-6.2,12.6
					C221.5,284.5,220.7,284.6,219.9,284.6z"/>
			</g>
			<g>
				<g>
					<path class="st2" d="M293,166.1c0-0.1,0-0.1,0.1-0.2c0.1-0.1,0.1-0.1,0.2-0.1c0.4-0.1,0.9-0.1,1.3-0.1c0.1,0,0.2,0,0.3,0
						c0.1,0,0.2,0.1,0.3,0.2c0.6,0.6,1.1,1.4,1.8,1.9c0.3,0.2,0.7,0.3,0.6,0.7c-0.1,0.3-0.5,0.4-0.7,0.4c-0.4,0-0.8-0.2-1.2-0.5
						c-0.3-0.3-0.6-0.6-1-0.8c0,0-0.1-0.1-0.2-0.1c-0.1,0-0.2,0.2-0.2,0.3c-0.1,0.6-0.2,1.2-0.2,1.7c0,0.3,0,0.6-0.2,0.8
						c-0.3,0.4-0.9,0.3-1.2,0c-0.3-0.3-0.3-0.7-0.3-1.1C292.6,168.2,292.7,167.1,293,166.1z"/>
					<path class="st2" d="M297.6,168.7c-0.1,0.3-0.5,0.4-0.7,0.4h0c-0.4,0-0.8-0.2-1.2-0.5c-0.3-0.3-0.6-0.6-1-0.9c0,0-0.1,0-0.2,0
						c-0.1,0-0.2,0.2-0.2,0.3c0,0.2-0.1,0.4-0.1,0.7c0,0.3-0.1,0.7-0.1,1c0,0.3,0,0.6-0.2,0.8c-0.1,0.1-0.2,0.2-0.3,0.2
						c-0.3,0.1-0.7,0-0.9-0.2c-0.3-0.3-0.3-0.7-0.3-1.1c0-0.9,0-1.8,0.2-2.6c0-0.2,0.1-0.4,0.1-0.7c0,0,0-0.1,0.1-0.2
						c0,0,0.1-0.1,0.2-0.1c0.4-0.1,0.9-0.1,1.3-0.1c0.1,0,0.2,0,0.3,0c0.1,0,0.2,0.1,0.3,0.2c0.6,0.6,1.1,1.4,1.8,1.9
						C297.3,168.1,297.8,168.2,297.6,168.7z"/>
					<path class="st12" d="M296.9,169c-0.4,0-0.8-0.2-1.2-0.5c-0.3-0.2-0.6-0.7-1-0.9c-0.4-0.2-0.5,0.4-0.9,0.4
						c-0.2,0-0.3,0-0.5-0.1c-0.1,0-0.2-0.1-0.3-0.1c-0.2-0.2-0.4-0.8-0.2-1c0.2-0.3,1-0.2,1.3-0.2c0.1,0,0.2,0,0.3,0
						c0.1,0,0.2,0.1,0.3,0.2c0.6,0.7,1.1,1.4,1.8,1.9C296.7,168.9,296.8,169,296.9,169z"/>
				</g>
				<g>
					<path class="st2" d="M291,166.4c0-0.1,0-0.1,0.1-0.2c0.1-0.1,0.1-0.1,0.2-0.1c0.4-0.1,0.9-0.1,1.3-0.1c0.1,0,0.2,0,0.3,0
						c0.1,0,0.2,0.1,0.3,0.2c0.6,0.6,1.1,1.4,1.8,1.9c0.3,0.2,0.7,0.3,0.6,0.7c-0.1,0.3-0.5,0.4-0.7,0.4c-0.4,0-0.8-0.2-1.2-0.5
						c-0.3-0.3-0.6-0.6-1-0.8c0,0-0.1-0.1-0.2-0.1c-0.1,0-0.2,0.2-0.2,0.3c-0.1,0.6-0.2,1.2-0.2,1.7c0,0.3,0,0.6-0.2,0.8
						c-0.3,0.4-0.9,0.3-1.2,0c-0.3-0.3-0.3-0.7-0.3-1.1C290.6,168.6,290.8,167.5,291,166.4z"/>
					<path class="st2" d="M295.7,169c-0.1,0.3-0.5,0.4-0.7,0.4h0c-0.4,0-0.8-0.2-1.2-0.5c-0.3-0.3-0.6-0.6-1-0.9c0,0-0.1,0-0.2,0
						c-0.1,0-0.2,0.2-0.2,0.3c0,0.2-0.1,0.4-0.1,0.7c0,0.3-0.1,0.7-0.1,1c0,0.3,0,0.6-0.2,0.8c-0.1,0.1-0.2,0.2-0.3,0.2
						c-0.3,0.1-0.7,0-0.9-0.2c-0.3-0.3-0.3-0.7-0.3-1.1c0-0.9,0-1.8,0.2-2.6c0-0.2,0.1-0.4,0.1-0.7c0,0,0-0.1,0.1-0.2
						c0,0,0.1-0.1,0.2-0.1c0.4-0.1,0.9-0.1,1.3-0.1c0.1,0,0.2,0,0.3,0c0.1,0,0.2,0.1,0.3,0.2c0.6,0.6,1.1,1.4,1.8,1.9
						C295.4,168.4,295.8,168.5,295.7,169z"/>
					<path class="st12" d="M295,169.4c-0.4,0-0.8-0.2-1.2-0.5c-0.3-0.2-0.7-0.8-1-0.9c-0.4-0.1-0.5,0.6-0.6,0.9
						c-0.1,0.2-0.1,0.3-0.2,0.4c-0.2,0.2-0.4,0.2-0.6,0.2c-0.5,0-0.6-0.3-0.6-0.8c0-0.2,0.1-1.6,0.2-1.6c0.4-0.1,0.9-0.1,1.3-0.1
						c0.1,0,0.2,0,0.3,0c0.1,0,0.2,0.1,0.3,0.2c0.6,0.7,1.1,1.4,1.8,1.9C294.8,169.2,294.9,169.3,295,169.4z"/>
				</g>
				<g>
					<path class="st2" d="M290.2,167.2c0-0.1,0-0.1,0.1-0.2c0.1-0.1,0.1-0.1,0.2-0.1c0.4-0.1,0.9-0.1,1.3-0.1c0.1,0,0.2,0,0.3,0
						c0.1,0,0.2,0.1,0.3,0.2c0.6,0.6,1.1,1.4,1.8,1.9c0.3,0.2,0.7,0.3,0.6,0.7c-0.1,0.3-0.5,0.4-0.7,0.4c-0.4,0-0.8-0.2-1.2-0.5
						c-0.3-0.3-0.6-0.6-1-0.8c0,0-0.1-0.1-0.2-0.1c-0.1,0-0.2,0.2-0.2,0.3c-0.1,0.6-0.2,1.2-0.2,1.7c0,0.3,0,0.6-0.2,0.8
						c-0.3,0.4-0.9,0.3-1.2,0c-0.3-0.3-0.3-0.7-0.3-1.1C289.8,169.3,289.9,168.2,290.2,167.2z"/>
					<path class="st2" d="M294.9,169.8c-0.1,0.3-0.5,0.4-0.7,0.4h0c-0.4,0-0.8-0.2-1.2-0.5c-0.3-0.3-0.6-0.6-1-0.9c0,0-0.1,0-0.2,0
						c-0.1,0-0.2,0.2-0.2,0.3c0,0.2-0.1,0.4-0.1,0.7c0,0.3-0.1,0.7-0.1,1c0,0.3,0,0.6-0.2,0.8c-0.1,0.1-0.2,0.2-0.3,0.2
						c-0.3,0.1-0.7,0-0.9-0.2c-0.3-0.3-0.3-0.7-0.3-1.1c0-0.9,0-1.8,0.2-2.6c0-0.2,0.1-0.4,0.1-0.7c0,0,0-0.1,0.1-0.2
						c0,0,0.1-0.1,0.2-0.1c0.4-0.1,0.9-0.1,1.3-0.1c0.1,0,0.2,0,0.3,0c0.1,0,0.2,0.1,0.3,0.2c0.6,0.6,1.1,1.4,1.8,1.9
						C294.6,169.2,295,169.3,294.9,169.8z"/>
					<path class="st12" d="M294.2,170.1c-0.4,0-0.8-0.2-1.2-0.5c-0.3-0.3-0.6-0.6-1-0.9c0,0-0.1,0-0.2,0c-0.1,0-0.2,0.2-0.2,0.3
						c0,0.2-0.1,0.4-0.1,0.7c0,0-0.1,0-0.1,0c-0.2,0-0.5,0.7-0.6,0.9c-0.2,0.2-0.4,0.3-0.7,0.2c-0.4,0-0.2-0.9-0.2-1.3
						c0-0.2,0.1-1.7,0.2-1.7c0.4-0.1,0.9-0.1,1.3-0.1c0.1,0,0.2,0,0.3,0c0.1,0,0.2,0.1,0.3,0.2c0.6,0.7,1.1,1.4,1.8,1.9
						C293.9,170,294.1,170.1,294.2,170.1z"/>
				</g>
				<g>
					<path class="st2" d="M289.2,168.3c0-0.1,0-0.1,0.1-0.2c0.1-0.1,0.1-0.1,0.2-0.1c0.4-0.1,0.9-0.1,1.3-0.1c0.1,0,0.2,0,0.3,0
						c0.1,0,0.2,0.1,0.3,0.2c0.6,0.6,1.1,1.4,1.8,1.9c0.3,0.2,0.7,0.3,0.6,0.7c-0.1,0.3-0.5,0.4-0.7,0.4c-0.4,0-0.8-0.2-1.2-0.5
						c-0.3-0.3-0.6-0.6-1-0.8c0,0-0.1-0.1-0.2-0.1c-0.1,0-0.2,0.2-0.2,0.3c-0.1,0.6-0.2,1.2-0.2,1.7c0,0.3,0,0.6-0.2,0.8
						c-0.3,0.4-0.9,0.3-1.2,0c-0.3-0.3-0.3-0.7-0.3-1.1C288.8,170.5,289,169.4,289.2,168.3z"/>
					<path class="st2" d="M293.9,170.9c-0.1,0.3-0.5,0.4-0.7,0.4h0c-0.4,0-0.8-0.2-1.2-0.5c-0.3-0.3-0.6-0.6-1-0.9c0,0-0.1,0-0.2,0
						c-0.1,0-0.2,0.2-0.2,0.3c0,0.2-0.1,0.4-0.1,0.7c0,0.3-0.1,0.7-0.1,1c0,0.3,0,0.6-0.2,0.8c-0.1,0.1-0.2,0.2-0.3,0.2
						c-0.3,0.1-0.7,0-0.9-0.2c-0.3-0.3-0.3-0.7-0.3-1.1c0-0.9,0-1.8,0.2-2.6c0-0.2,0.1-0.4,0.1-0.7c0,0,0-0.1,0.1-0.2
						c0,0,0.1-0.1,0.2-0.1c0.4-0.1,0.9-0.1,1.3-0.1c0.1,0,0.2,0,0.3,0c0.1,0,0.2,0.1,0.3,0.2c0.6,0.6,1.1,1.4,1.8,1.9
						C293.6,170.4,294,170.4,293.9,170.9z"/>
				</g>
			</g>
			<g>
				<g>
					<path class="st2" d="M254.5,197.8c0,0.1,0,0.2,0,0.3c0,0-0.1,0.1-0.1,0.1c0,0-0.1,0.1-0.2,0.1c-0.2,0.1-0.3,0.1-0.5,0h0
						c-0.2,0-0.4-0.1-0.6-0.2h0c-0.2-0.1-0.3-0.3-0.5-0.4c-0.1-0.1-0.1-0.2-0.2-0.2c-0.1-0.1-0.2-0.2-0.3-0.4
						c-0.1-0.1-0.2-0.2-0.3-0.4c0,0,0,0-0.1,0c0,0,0,0,0,0h0v0c0,0,0,0,0,0c0,0,0,0,0,0c0,0,0,0,0,0c0,0,0,0,0,0
						c0,0-0.1,0.1-0.1,0.2c-0.1,0.2-0.1,0.4-0.2,0.7c0,0.1,0,0.1,0,0.2c0,0,0,0.1,0,0.1h0v0c0,0,0,0.1,0,0.1v0
						c0,0.1-0.1,0.3-0.1,0.5c0,0.1,0,0.1,0,0.2c0,0.1,0,0.2-0.1,0.3v0c0,0.1-0.1,0.2-0.2,0.3c0,0-0.1,0.1-0.2,0.1c0,0-0.1,0-0.1,0
						c-0.3,0.1-0.6,0-0.8-0.3c0,0,0,0-0.1-0.1c-0.2-0.3-0.2-0.6-0.2-1c0,0,0-0.1,0-0.2c0,0,0,0,0,0c0-0.2,0.1-0.4,0.1-0.6
						c0-0.2,0.1-0.4,0.1-0.7c0,0,0,0,0,0v0h0c0-0.2,0.1-0.4,0.1-0.5h0c0,0,0,0,0-0.1v0c0,0,0-0.1,0-0.1c0-0.1,0-0.2,0.1-0.3
						c0,0,0,0,0,0c0,0,0-0.1,0-0.1s0,0,0,0c0-0.2,0.1-0.4,0.2-0.6l0,0c0,0,0-0.1,0.1-0.1c0,0,0.1,0,0.2,0c0.4,0,0.9,0,1.3,0
						c0.1,0,0.2,0,0.3,0.1c0.1,0.1,0.2,0.2,0.3,0.3c0.5,0.7,0.9,1.6,1.5,2.2C254.1,197.4,254.4,197.5,254.5,197.8z"/>
					<path class="st2" d="M254.5,197.8c0,0.1,0,0.2,0,0.3c0,0-0.1,0.1-0.1,0.1c0,0-0.1,0.1-0.2,0.1c-0.2,0.1-0.3,0.1-0.5,0h0
						c-0.2,0-0.4-0.1-0.6-0.2h0c-0.2-0.1-0.3-0.3-0.5-0.4c-0.1-0.1-0.1-0.2-0.2-0.2c0-0.1-0.1-0.2-0.2-0.3c0,0-0.1-0.1-0.1-0.1
						c-0.1-0.1-0.2-0.2-0.3-0.4c0,0,0,0,0,0h0c0,0,0,0,0,0l0,0c0,0,0,0,0,0c0,0,0,0,0,0c0,0,0,0,0,0c0,0,0,0,0,0
						c0,0-0.1,0.1-0.1,0.2c-0.1,0.2-0.1,0.4-0.2,0.7c0,0.1,0,0.1,0,0.2c0,0,0,0.1,0,0.1h0v0c0,0,0,0.1,0,0.1v0
						c0,0.1-0.1,0.3-0.1,0.5c0,0.1,0,0.1,0,0.2c0,0.1,0,0.2-0.1,0.3v0c0,0.1-0.1,0.2-0.2,0.3v0c0,0-0.1,0.1-0.2,0.1c0,0-0.1,0-0.1,0
						c-0.3,0.1-0.6,0-0.8-0.3c0,0,0,0-0.1-0.1c-0.2-0.3-0.2-0.6-0.2-1c0,0,0-0.1,0-0.2c0,0,0,0,0,0c0-0.2,0.1-0.4,0.1-0.6
						c0-0.2,0.1-0.4,0.1-0.7c0,0,0,0,0,0h0c0,0,0,0,0,0c0-0.2,0.1-0.4,0.1-0.5v0c0,0,0,0,0-0.1v0c0,0,0-0.1,0-0.1
						c0-0.1,0-0.2,0.1-0.3c0,0,0,0,0,0c0,0,0-0.1,0-0.1s0,0,0,0c0-0.2,0.1-0.4,0.2-0.6v0c0,0,0.1-0.1,0.1-0.2c0.1,0,0.2,0,0.2,0
						c0.4,0,0.9,0,1.3,0c0.1,0,0.2,0,0.3,0.1c0.1,0.1,0.2,0.2,0.3,0.3c0.5,0.7,0.9,1.6,1.5,2.2C254.1,197.4,254.4,197.5,254.5,197.8
						z"/>
					<path class="st12" d="M253.7,198.3c-0.2,0-0.4-0.1-0.6-0.2h0c-0.2-0.1-0.3-0.3-0.5-0.4c-0.1-0.1-0.1-0.2-0.2-0.2
						c0-0.1-0.1-0.2-0.2-0.3c-0.1-0.2-0.3-0.4-0.4-0.5c0,0,0,0,0,0h0c0,0,0,0,0,0h0v0c0,0,0,0,0,0c0,0,0,0,0,0c0,0,0,0,0,0
						c-0.2,0-0.4,0.3-0.7,0.3c-0.1,0-0.2,0-0.3-0.1c0,0-0.1,0-0.2,0c0,0-0.1,0-0.1-0.1h0c0,0-0.1-0.1-0.1-0.1
						c-0.1-0.1-0.1-0.2-0.2-0.4c0,0,0,0,0,0c0,0,0-0.1,0-0.1v0c0,0,0-0.1,0-0.1c0-0.1,0-0.2,0.1-0.2c0,0,0,0,0,0
						c0.1-0.1,0.4-0.1,0.8-0.1c0.2,0,0.4,0,0.6,0.1c0.1,0,0.2,0,0.3,0.1c0.1,0,0.2,0.2,0.3,0.3c0.5,0.7,0.9,1.5,1.5,2.1
						c0,0,0,0,0,0.1C253.5,198.2,253.6,198.2,253.7,198.3z"/>
				</g>
				<g>
					<path class="st2" d="M252.5,198.1c0,0.1-0.1,0.1-0.1,0.2c0,0-0.1,0-0.1,0.1c0,0-0.1,0-0.1,0c-0.1,0-0.3,0.1-0.4,0h0
						c0,0-0.1,0-0.1,0c0,0,0,0,0,0c-0.2,0-0.4-0.1-0.5-0.3v0c-0.1-0.1-0.3-0.2-0.4-0.3c-0.1-0.1-0.2-0.3-0.3-0.4
						c-0.2-0.2-0.4-0.4-0.5-0.6c0,0,0,0-0.1,0c0,0,0,0-0.1,0h0v0c0,0,0,0-0.1,0c-0.1,0-0.1,0.1-0.2,0.2c0,0.1,0,0.1-0.1,0.2
						c0,0.1-0.1,0.3-0.1,0.4c0,0,0,0.1,0,0.1v0.1c0,0,0,0,0,0c-0.1,0.2-0.1,0.5-0.1,0.8c0,0.1,0,0.3-0.1,0.5c0,0.1,0,0.1-0.1,0.2
						c0,0-0.1,0.1-0.1,0.1v0h0c0,0-0.1,0.1-0.2,0.1c0,0,0,0,0,0c-0.1,0-0.3,0-0.4,0c-0.2,0-0.3-0.2-0.4-0.3
						c-0.1-0.1-0.1-0.2-0.1-0.3c0-0.1-0.1-0.2-0.1-0.4v-0.1c0,0,0,0,0,0v-0.1c0-0.1,0-0.2,0-0.3c0-0.2,0-0.4,0.1-0.6
						c0-0.1,0-0.2,0-0.4c0,0,0-0.3,0.1-0.5c0-0.1,0-0.1,0-0.2c0,0,0-0.1,0-0.2c0-0.2,0.1-0.4,0.2-0.6c0,0,0,0,0,0
						c0-0.1,0-0.2,0.1-0.3c0-0.2,0.1-0.3,0.2-0.5c0,0,0-0.1,0.1-0.1c0,0,0,0,0,0c0,0,0,0,0,0c0,0,0,0,0.1,0c0,0,0,0,0.1,0
						c0.1,0,0.2,0,0.4,0c0.3,0,0.6,0,0.9,0c0.1,0,0.2,0,0.3,0.1c0.1,0.1,0.2,0.2,0.3,0.3c0.1,0.1,0.2,0.2,0.2,0.4
						c0.2,0.4,0.5,0.8,0.8,1.2l0,0c0.1,0.2,0.3,0.4,0.5,0.6c0.2,0.1,0.4,0.3,0.5,0.4C252.5,197.8,252.5,197.9,252.5,198.1z"/>
					<path class="st2" d="M252.5,198.1c0,0.1-0.1,0.1-0.1,0.1c0,0-0.1,0-0.1,0.1c0,0-0.1,0-0.1,0c-0.1,0-0.3,0.1-0.4,0h0
						c0,0-0.1,0-0.1,0c0,0,0,0,0,0c-0.2,0-0.4-0.1-0.5-0.3v0c-0.1-0.1-0.3-0.2-0.4-0.3c-0.1-0.1-0.2-0.3-0.3-0.4
						c-0.2-0.2-0.4-0.4-0.5-0.6c0,0,0,0-0.1,0c0,0,0,0-0.1,0h0c0,0,0,0-0.1,0c-0.1,0-0.1,0.1-0.2,0.2c0,0.1,0,0.1-0.1,0.2
						c0,0.1-0.1,0.3-0.1,0.4c0,0,0,0.1,0,0.1c0,0,0,0,0,0v0.1c0,0,0,0,0,0h0c-0.1,0.2-0.1,0.5-0.1,0.8c0,0.1,0,0.3-0.1,0.5
						c0,0.1,0,0.1-0.1,0.2c0,0-0.1,0.1-0.1,0.1h0v0h0c0,0-0.1,0.1-0.2,0.1c0,0,0,0,0,0c-0.1,0-0.3,0-0.4,0c-0.2,0-0.3-0.2-0.4-0.3
						c-0.1-0.1-0.1-0.2-0.1-0.3c0-0.1-0.1-0.2-0.1-0.4c0,0,0-0.1,0-0.1v-0.1c0-0.1,0-0.2,0-0.3c0-0.2,0-0.4,0.1-0.6
						c0-0.1,0-0.2,0-0.4c0,0,0-0.3,0.1-0.5c0-0.1,0-0.1,0.1-0.2c0-0.1,0-0.1,0-0.2c0-0.2,0.1-0.5,0.2-0.7c0-0.1,0-0.1,0-0.2h0
						c0-0.2,0.1-0.3,0.1-0.5c0,0,0-0.1,0.1-0.1v0c0,0,0,0,0,0c0,0,0,0,0,0c0,0,0,0,0.1,0h0.4c0.3,0,0.6,0,0.9,0c0.1,0,0.2,0,0.3,0.1
						c0.1,0.1,0.2,0.2,0.3,0.3c0.1,0.1,0.2,0.2,0.2,0.4c0.2,0.4,0.5,0.8,0.8,1.2l0,0c0.1,0.2,0.3,0.4,0.5,0.6
						c0.2,0.1,0.4,0.3,0.5,0.4C252.5,197.8,252.6,197.9,252.5,198.1z"/>
					<path class="st12" d="M251.7,198.4c-0.4-0.1-0.8-0.3-1.1-0.7c-0.2-0.3-0.6-0.9-0.9-1c-0.4-0.1-0.6,0.5-0.7,0.8
						c-0.1,0.1-0.1,0.3-0.3,0.4c-0.2,0.1-0.4,0.1-0.7,0.1c-0.5-0.1-0.6-0.4-0.5-0.8c0-0.2,0.3-1.6,0.4-1.6c0.4,0,0.9,0,1.3,0.1
						c0.1,0,0.2,0,0.3,0.1c0.1,0.1,0.2,0.2,0.3,0.3c0.5,0.7,0.9,1.6,1.5,2.2C251.5,198.2,251.6,198.3,251.7,198.4z"/>
				</g>
				<g>
					<path class="st2" d="M251.6,198.5c0,0,0,0.1,0,0.2c0,0,0,0.1-0.1,0.1c-0.1,0.1-0.2,0.1-0.3,0.1c-0.1,0-0.1,0-0.2,0
						c0,0-0.1,0-0.1,0h0c-0.1,0-0.1,0-0.2,0c-0.1,0-0.1,0-0.2-0.1h0c-0.1,0-0.2-0.1-0.3-0.2c-0.1-0.1-0.3-0.2-0.4-0.4
						c-0.1-0.1-0.2-0.2-0.3-0.3c0,0,0,0-0.1-0.1c-0.1-0.1-0.1-0.2-0.2-0.3c0,0,0,0,0,0v0c0-0.1-0.1-0.1-0.2-0.2l-0.1-0.1
						c0,0,0,0,0,0c0,0,0,0,0,0c0,0,0,0-0.1,0s-0.1,0-0.1,0c0,0,0,0-0.1,0c0,0,0,0,0,0.1c0,0,0,0.1,0,0.1c0,0.1-0.1,0.2-0.1,0.3
						c0,0,0,0.1,0,0.1c0,0.1,0,0.2-0.1,0.2c0,0.2-0.1,0.4-0.1,0.6c0,0.1,0,0.3-0.1,0.4c0,0.1,0,0.2-0.1,0.3c0,0.1,0,0.3-0.1,0.4
						c-0.2,0.1-0.4,0.2-0.6,0.3h0c-0.1,0-0.2,0-0.3-0.1c-0.1-0.1-0.2-0.2-0.3-0.3c-0.2-0.3-0.2-0.6-0.1-0.9v0c0-0.1,0-0.1,0-0.2
						c0-0.2,0.1-0.4,0.1-0.7c0-0.1,0-0.1,0-0.2c0,0,0-0.1,0-0.3c0,0,0,0,0,0v-0.1c0,0,0,0,0,0c0,0,0-0.1,0-0.1
						c0-0.2,0.1-0.3,0.1-0.5c0-0.2,0.1-0.3,0.1-0.4v0c0,0,0,0,0,0c0-0.1,0.1-0.3,0.1-0.4c0-0.1,0.1-0.2,0.1-0.3c0,0,0-0.1,0.1-0.1
						c0.1,0,0.1-0.1,0.2-0.1c0.1,0,0.3,0,0.4,0h0c0.3,0,0.6,0,0.8,0c0.1,0,0.2,0,0.3,0.1c0.1,0,0.1,0.1,0.2,0.1c0,0,0.1,0.1,0.1,0.2
						c0.1,0.1,0.2,0.2,0.2,0.3c0,0,0,0,0,0c0,0,0,0.1,0,0.1c0.1,0.2,0.2,0.3,0.3,0.5h0c0.1,0.2,0.3,0.4,0.4,0.6
						c0.1,0.2,0.3,0.4,0.5,0.5v0l0,0h0c0.1,0.1,0.4,0.2,0.5,0.4c0,0,0,0,0,0C251.6,198.4,251.6,198.5,251.6,198.5z"/>
					<path class="st2" d="M251.6,198.5c0,0,0,0.1,0,0.2c0,0,0,0.1-0.1,0.1c-0.1,0.1-0.2,0.1-0.3,0.1c-0.1,0-0.1,0-0.2,0h-0.1l0,0
						c-0.1,0-0.1,0-0.2,0c-0.1,0-0.1,0-0.2-0.1h0c-0.1,0-0.2-0.1-0.3-0.2c-0.1-0.1-0.3-0.2-0.4-0.4h0c-0.1-0.1-0.2-0.2-0.3-0.3
						c0,0,0,0-0.1-0.1c-0.1-0.1-0.1-0.2-0.2-0.3c0,0,0,0,0,0v0c0-0.1-0.1-0.1-0.1-0.2c0,0,0,0,0,0c0,0-0.1-0.1-0.1-0.1
						c0,0,0,0-0.1,0c0,0,0,0,0,0c0,0,0,0-0.1,0s-0.1,0-0.1,0c0,0,0,0-0.1,0c0,0,0,0,0,0.1c0,0,0,0.1,0,0.1c0,0.1-0.1,0.2-0.1,0.3
						c0,0,0,0.1,0,0.1c0,0.1,0,0.2,0,0.2c0,0.2-0.1,0.4-0.1,0.6c0,0.1,0,0.3-0.1,0.4c0,0.1,0,0.2-0.1,0.3c0,0.1,0,0.3-0.1,0.4
						c-0.2,0.1-0.4,0.2-0.6,0.3h0c-0.1,0-0.2,0-0.3-0.1c-0.1-0.1-0.2-0.2-0.3-0.3c-0.2-0.3-0.2-0.6-0.1-0.9v0c0-0.1,0-0.1,0-0.2
						c0-0.2,0.1-0.4,0.1-0.7c0-0.1,0-0.1,0-0.2c0,0,0-0.1,0-0.3c0,0,0-0.1,0-0.1c0,0,0,0,0,0c0,0,0-0.1,0-0.1
						c0.1-0.3,0.2-0.6,0.3-0.9v0c0,0,0-0.1,0-0.1c0-0.1,0.1-0.2,0.1-0.3c0-0.1,0.1-0.2,0.1-0.3c0,0,0-0.1,0.1-0.1v0c0,0,0.1,0,0.2,0
						c0.1,0,0.3,0,0.4,0h0c0.3,0,0.6,0,0.8,0c0.1,0,0.2,0,0.3,0.1c0.1,0,0.1,0.1,0.2,0.1c0,0,0.1,0.1,0.1,0.2
						c0.1,0.1,0.2,0.2,0.2,0.3h0v0c0,0,0,0,0,0c0.1,0.2,0.2,0.4,0.3,0.5h0c0.1,0.2,0.3,0.4,0.4,0.6c0.1,0.2,0.3,0.4,0.5,0.5h0
						c0,0,0,0,0,0c0.1,0.1,0.4,0.2,0.5,0.4c0,0,0,0,0,0C251.6,198.4,251.6,198.5,251.6,198.5z"/>
					<path class="st12" d="M250.8,199c-0.4-0.1-0.8-0.3-1.1-0.7c-0.3-0.3-0.5-0.7-0.8-1c0,0-0.1-0.1-0.2-0.1c-0.1,0-0.2,0.1-0.2,0.3
						c-0.1,0.2-0.1,0.4-0.2,0.7c0,0-0.1-0.1-0.1-0.1c-0.2,0-0.6,0.7-0.8,0.8c-0.2,0.1-0.5,0.2-0.7,0.2c-0.4-0.1-0.1-1,0-1.3
						c0-0.2,0.3-1.7,0.5-1.7c0.4,0,0.9,0,1.3,0.1c0.1,0,0.2,0,0.3,0.1c0.1,0.1,0.2,0.2,0.3,0.3c0.5,0.7,0.9,1.6,1.5,2.2
						C250.6,198.9,250.7,199,250.8,199z"/>
				</g>
				<g>
					<path class="st2" d="M250.5,199.5c0,0.1,0,0.2,0,0.3c0,0,0,0.1-0.1,0.1c0,0-0.1,0.1-0.1,0.1c-0.1,0.1-0.4,0.1-0.5,0h0
						c-0.2,0-0.4-0.1-0.6-0.2c-0.1-0.1-0.2-0.1-0.3-0.2c0,0-0.1-0.1-0.1-0.1c0,0,0,0-0.1-0.1c-0.2-0.2-0.3-0.3-0.4-0.5
						c-0.1-0.1-0.2-0.3-0.3-0.4c0,0,0,0-0.1-0.1c0,0,0,0,0,0c0,0-0.1,0-0.1,0c-0.1,0-0.2,0-0.2,0.1c0,0,0,0,0,0c0,0,0,0.1,0,0.1
						c0,0.1-0.1,0.3-0.1,0.5c0,0,0,0.1,0,0.1c-0.1,0.3-0.1,0.6-0.2,0.9c0,0,0,0.1,0,0.1c0,0,0,0.1,0,0.2c-0.4,0.2-0.8,0.4-1.2,0.6
						c0,0,0,0,0,0l-0.1-0.1c-0.1-0.2-0.2-0.4-0.2-0.6c0-0.2,0-0.4,0-0.6c0-0.4,0.1-0.9,0.2-1.3c0.1-0.4,0.2-0.8,0.4-1.2
						c0-0.1,0.1-0.3,0.1-0.4c0-0.1,0-0.1,0.1-0.2c0,0,0.1-0.1,0.1-0.1c0,0,0.2,0,0.2,0h0.6v0c0.2,0,0.5,0,0.7,0h0c0,0,0,0,0,0
						c0.1,0,0.2,0,0.2,0c0,0,0.1,0,0.1,0c0.1,0,0.1,0.1,0.1,0.1c0,0,0.1,0.1,0.1,0.1c0.1,0.2,0.3,0.4,0.4,0.6c0,0,0,0,0,0
						c0,0,0,0,0,0c0,0,0,0,0,0c0,0,0,0.1,0.1,0.2c0,0.1,0.1,0.2,0.2,0.3h0c0,0.1,0.1,0.2,0.2,0.3c0.2,0.3,0.4,0.5,0.6,0.7v0
						c0,0,0.1,0.1,0.1,0.1c0.1,0,0.1,0.1,0.2,0.1C250.4,199.3,250.4,199.4,250.5,199.5z"/>
					<path class="st2" d="M250.5,199.5c0,0.1,0,0.2,0,0.3c0,0,0,0.1-0.1,0.1c0,0-0.1,0.1-0.1,0.1c-0.1,0.1-0.4,0.1-0.5,0h0
						c-0.2,0-0.4-0.1-0.6-0.2c-0.1-0.1-0.2-0.1-0.3-0.2v0c0,0-0.1-0.1-0.1-0.1h0c0,0,0,0-0.1-0.1c-0.2-0.2-0.3-0.3-0.4-0.5
						c-0.1-0.1-0.2-0.3-0.3-0.4c0,0,0,0-0.1-0.1v0c0,0,0,0,0,0c0,0-0.1,0-0.1,0c-0.1,0-0.2,0-0.2,0.1c0,0,0,0,0,0c0,0,0,0.1,0,0.1
						c0,0.1-0.1,0.3-0.1,0.5c0,0,0,0.1,0,0.1c-0.1,0.3-0.1,0.6-0.2,0.9c0,0,0,0.1,0,0.1c0,0,0,0.1,0,0.2c-0.4,0.2-0.8,0.4-1.2,0.6
						c0,0,0,0,0,0c0,0-0.1-0.1-0.1-0.1c-0.1-0.2-0.2-0.4-0.2-0.6c0-0.2,0-0.4,0-0.6c0-0.4,0.1-0.9,0.2-1.3c0.1-0.4,0.2-0.8,0.4-1.2
						c0-0.1,0.1-0.3,0.1-0.4c0-0.1,0-0.1,0.1-0.2c0,0,0.1-0.1,0.1-0.1c0,0,0.2,0,0.2,0h0.3c0.1,0,0.1,0,0.2,0h0c0.2,0,0.5,0,0.7,0h0
						c0,0,0,0,0,0c0.1,0,0.2,0,0.2,0c0,0,0.1,0,0.1,0c0.1,0,0.1,0.1,0.2,0.1c0,0,0.1,0.1,0.1,0.1h0c0.1,0.2,0.2,0.4,0.4,0.6
						c0,0,0,0,0,0c0,0,0,0,0,0c0,0,0,0,0,0c0,0,0,0.1,0.1,0.2c0,0.1,0.1,0.2,0.2,0.3h0c0,0.1,0.1,0.2,0.2,0.3
						c0.2,0.3,0.4,0.5,0.6,0.7c0,0,0.1,0.1,0.1,0.1c0.1,0.1,0.1,0.1,0.2,0.2C250.4,199.3,250.4,199.4,250.5,199.5z"/>
				</g>
			</g>
			<path class="st12" d="M218.5,106.5c0.4-2.1,1-3.8,1.9-3.5c0.3,0.1,0.5,0.4,0.6,0.7c1.1,2.9,2.2,5.8,3.4,8.6
				c0.1,0.3,0.3,0.6,0.3,0.9c0,0.3-0.1,0.7-0.3,0.9c-0.2,0.1-0.4,0.2-0.7,0.2c-1.2,0.2-2.6,0.5-3.8,0.2c-0.5-0.1-2-0.3-2.2-0.9
				c-0.1-0.2,0-0.3,0-0.5C217.8,112.5,218,109.2,218.5,106.5z"/>
			<path class="st2" d="M192.2,161.4c-0.2,3-1.2,5.9-3.1,8.2c-1.1,1.3-2.6,2.3-4.2,3c-1.2,0.4-2.4,0.7-3.6,0.6
				c-1.8-0.1-3.3-0.7-4.4-1.7c0.4-3.4,0.8-6.8,1.4-10.1c0.2-1.2,0.7-6.2,1.7-8.1c0-0.1,0.1-0.2,0.1-0.3c0.8-1.5,2.5-3,5.8-4.9l0.1,0
				c1.9,0.5,3.3,2.1,4.3,3.9c0.4,0.7,0.7,1.3,0.9,2C192,156.3,192.4,158.9,192.2,161.4z"/>
			<path class="st7" d="M185,177.1c2.8-1.3,5.1-3.5,6.7-6.1c-1,2.6-2.4,5-4.2,7c-0.9,1-1.9,2-3.2,2.5c-3.4,1.6-5.5,0-6.1-3.4
				c1,0.7,2.5,1,3.8,0.9C183,178,184,177.6,185,177.1z"/>
			<path class="st7" d="M176,230.6c0.7-7.7,5.3-15,11.9-19.1c2.9-1.7,6.1-0.9,9,0c0.1,0,0.3,0.1,0.4,0.3c0.1,0.1,0,0.3-0.1,0.4
				c-3,6.7-6,13.3-8.9,20c1-2.3,0.6-5.7,0.9-8.3c0.4-3.1,1.1-6.3,2.2-9.2c-3.7,1.4-6.6,3.7-9.1,6.7C180,224.2,176.4,226.9,176,230.6
				z"/>
			<path class="st8" d="M208.6,207.1c-0.2,0.7-0.4,1.4-0.6,2.1c0,0.1-0.1,0.1-0.1,0.1c-0.5,0.4-1.1,0.5-1.8,0.6
				c-4.4,0.8-9,1.3-13.3,2.6c-4.3,1.3-8.5,3.4-11.5,6.9c1.3-2.9,3.3-5.5,5.9-7.5c0.4-0.3,0.9-0.7,1.2-1.1c0.3-0.5,0.2-1.1,0.3-1.7
				c0.2-3.9,2.3-7.7,3.6-11.4c1.1-3.2,1.9-6.6,3.2-9.8c0.2-0.4,0.4-0.8,0.6-1.1c-0.5,4.2-1.1,8.3-1.8,12.5c-0.4,2.2-0.9,4.4-1.4,6.7
				c-0.3,1.4-0.5,3.2,0.7,4c0.8,0.5,1.8,0.3,2.7,0.1c0.4-0.1,0.8-0.2,1.2-0.3C201.2,208.9,204.9,208,208.6,207.1z"/>
		</g>
		<g>
			<g>
				<path class="st23" d="M289.7,139.8c0,0-21.5,3.8-23.8,15.3l-0.1,8.7c0,3.9,2.8,7.2,6.7,7.8l0,0c3.9,0.6,7.6-1.9,8.6-5.7
					l4.7-17.6L289.7,139.8z"/>
				<path class="st23" d="M304.2,139.8c0,0,21.5,3.8,23.8,15.3l0.1,8.7c0,3.9-2.8,7.2-6.7,7.8l0,0c-3.9,0.6-7.6-1.9-8.6-5.7
					l-4.7-17.6L304.2,139.8z"/>
			</g>
			<g>
				<path class="st24" d="M327.7,162.6c1,0.1,2.2,0.2,3.1,0.7c1.9,1.2,1.8,4.4,0.1,5.8c-0.7,0.6-1.7,1.1-1.7,2.1
					c0,0.4,0.2,0.8,0.4,1.1c0.6,1.2,0.8,2.8,0.1,4c-0.4,0.6-1,1.1-1.6,1.5c-2.8,1.6-6.5,1.1-9.3-0.6c-2.8-1.7-4.8-4.5-6.4-7.3
					c-1.4-2.5-2.6-5.3-2.4-8.2c0.1-1.9,1-3.8,2.4-5c1.9-1.6,2.8-1.3,4.3,0.3C319.6,160,323.5,162.1,327.7,162.6z"/>
				<path class="st24" d="M266.3,162.6c-1,0.1-2.2,0.2-3.1,0.7c-1.9,1.2-1.8,4.4-0.1,5.8c0.7,0.6,1.7,1.1,1.7,2.1
					c0,0.4-0.2,0.8-0.4,1.1c-0.6,1.2-0.8,2.8-0.1,4c0.4,0.6,1,1.1,1.6,1.5c2.8,1.6,6.5,1.1,9.3-0.6c2.8-1.7,4.8-4.5,6.4-7.3
					c1.4-2.5,2.6-5.3,2.4-8.2c-0.1-1.9-1-3.8-2.4-5c-1.9-1.6-2.8-1.3-4.3,0.3C274.3,160,270.4,162.1,266.3,162.6z"/>
			</g>
			<path class="st25" d="M326.3,465.7c-0.5-1.5-1.9-2.8-3.5-3.1c-1.6-0.3-3.3,0.3-4.4,1.5c-1.7,2-1.4,4.6-1.4,7
				c-4.2,1.4-2.8-5.5-2.4-7.3c0.8-3.3-0.5-7-3.1-9.1c-1.4-1.1-3.1-1.8-4.8-2.4c-1.8-0.6-3.7-0.9-5.4-0.7V264.3h-8.7v187.4
				c-1.7-0.2-3.6,0.1-5.4,0.7c-1.7,0.5-3.4,1.2-4.8,2.4c-2.7,2.1-3.9,5.8-3.1,9.1c0.4,1.7,1.8,8.7-2.4,7.3c0-2.4,0.3-5.1-1.4-7
				c-1.1-1.2-2.8-1.8-4.4-1.5c-1.6,0.3-3,1.5-3.5,3.1c-1.7,5,1.6,9.1,6.5,9.9c2.3,0.4,4.7,0.1,6.7-1.1c3-1.7,2.9-4.7,2.7-7.9
				c-0.1-1.7-0.5-3.5,0.3-4.9c0.5-0.9,1.5-1.5,2.5-2c1.9-0.8,4.1-1.1,6.1-0.9h8.7c2.1-0.2,4.2,0.1,6.1,0.9c1,0.4,2,1,2.5,2
				c0.8,1.4,0.5,3.3,0.3,4.9c-0.3,3.2-0.3,6.2,2.7,7.9c2,1.1,4.5,1.5,6.7,1.1C324.7,474.8,328,470.6,326.3,465.7z"/>
			<path class="st23" d="M314.8,193.4c4.4-12.1,9.3-24.9,8.8-27.4c-0.7-3.5-6.2-11.1-8.9-14.7c-0.7-0.9-1.1-2-1.1-3.1
				c0-0.3,0-0.7,0.1-1c0.5-2.5-0.9-5-3.4-5.9l-1.3-0.4l-0.4-0.1c-2-0.8-4-0.8-6-1.3c-0.9-2.5-1.3-5.5-1.5-8.1h-8.3
				c-0.2,2.6-0.6,5.5-1.5,8c-0.4,0.1-0.8,0.2-1.2,0.2c-1.7,0.2-3.3,0.5-4.9,1.1l-0.4,0.1l-1.3,0.4c-2.5,0.9-3.9,3.4-3.4,5.9
				c0.1,0.3,0.1,0.7,0.1,1c0,1.1-0.4,2.2-1.1,3.1c-2.7,3.5-8.2,11.2-8.9,14.7c-0.5,2.4,4.4,15.3,8.8,27.4H314.8z"/>
			<g class="st20">
				<g>
					<g>
						<polygon class="st21" points="283.6,141.3 283.6,141.3 283.6,141.2 						"/>
					</g>
					<g>
						<path class="st21" d="M316.8,187.8c3.8-10.2,7.2-19.8,6.8-21.9c-0.7-3.5-6.2-11.1-8.9-14.7c-0.3-0.4-0.5-0.9-0.7-1.3
							c-1.2-0.5-2.2-1.4-2.8-2.5c-0.9-1.5-1.4-4.2-0.7-6.2c0,0,0,0-0.1,0l-1.3-0.4l-0.4-0.1c-1-0.4-2.1-0.6-3.2-0.8
							c0.4,5-2.8,7.6-8.4,7.6c-5.8,0-8.9-2.7-8.5-7.7c-1.1,0.2-2.2,0.5-3.2,0.9l-0.4,0.1c0,0-1.2,0.4-1.3,0.5c0,0.1,2,10.3-7.1,13.9
							c-2.6,3.7-5.6,8.3-6.1,10.8c-0.4,2.1,3,11.6,6.8,21.9H316.8z"/>
					</g>
				</g>
			</g>
			<g>
				<polygon class="st21" points="283.6,141.2 283.6,141.3 283.6,141.3 				"/>
				<path class="st21" d="M371.8,390.3c0,0.2-25.7,26.5-72,28v0.1c-0.9,0-1.8,0-2.8,0c-0.9,0-1.8,0-2.8,0v-0.1
					c-24.7-0.8-43.5-8.7-55.7-15.8c-10.7-6.3-16.3-12.1-16.3-12.2l1.8-31.9c3.1-53.8,25.1-104.8,62.2-143.8
					c-1.1-7.8-16.6-44.2-15.8-48.5c0.3-1.7,1.8-4.4,3.6-7.1l0,0c2.2-1.1,4.7-1.4,7.1-1.2c2,0.1,4,0.6,5.9,1.4c1,0.4,2,0.9,3,1.3
					c1.4,0.7,2.8,1.7,4,2.8c0.4,0.4,0.8,0.9,1.2,1.4c0.3,0.2,0.5,0.5,0.8,0.7c0.3,0.3,0.6,0.4,0.9,0.4c0.3,0,0.5-0.1,0.9-0.4
					c0.3-0.2,0.5-0.5,0.8-0.7c0.4-0.5,0.7-1,1.2-1.4c1.2-1.1,2.6-2,4-2.8c1-0.5,2-0.9,3-1.3c1.9-0.7,3.9-1.2,5.9-1.4
					c2.4-0.2,4.9,0.2,7.1,1.2c0,0,0,0,0,0c1.8,2.7,3.3,5.4,3.6,7.1c0.4,1.8-2.3,9.8-5.6,18.7c-4.3,11.7-9.5,25.3-10.2,29.8
					c37.1,39.1,59.1,90,62.2,143.8L371.8,390.3z"/>
			</g>
			<path class="st26" d="M371.8,390.3c0,0.2-25.7,26.5-72,28v0.1c-0.9,0-1.8,0-2.8,0c-0.9,0-1.8,0-2.8,0v-0.1
				c-24.7-0.8-43.5-8.7-55.7-15.8c18.9,5.6,35,8,48.7,8.4c43.5,1.2,76.6-37.7,68.9-80.5C345.6,272,302.9,217,302.9,217l15-32.3
				c-4.3,11.7-9.5,25.3-10.2,29.8c37.1,39.1,59.1,90,62.2,143.8L371.8,390.3z"/>
			<path class="st26" d="M225.1,374.8c0,0,41.8,51.4,120.3,0C345.4,374.8,272,442.6,225.1,374.8z"/>
			<path class="st26" d="M233.3,365.7c0,0,34.7,42.6,99.8,0C333.2,365.7,272.3,422,233.3,365.7z"/>
		</g>
	</g>
</g>
</svg>
