<?xml version="1.0" encoding="utf-8"?>
<!-- Generator: Adobe Illustrator 23.0.2, SVG Export Plug-In . SVG Version: 6.00 Build 0)  -->
<svg version="1.1" id="Layer_1" xmlns="http://www.w3.org/2000/svg" xmlns:xlink="http://www.w3.org/1999/xlink" x="0px" y="0px"
	 viewBox="0 0 490.4 490.4" style="enable-background:new 0 0 490.4 490.4;" xml:space="preserve">
<g>
	<g>
		<path d="M418.6,71.8c-7-7-18.4-7-25.4,0l-56,55.9c-7,7-7,18.4,0,25.5c7,7,18.4,7,25.5,0l42.7-42.7
			c69.2,82.1,65.1,205.3-12.2,282.6c-39.5,39.5-92.1,61.3-148,61.3s-108.4-21.7-148-61.2c-81.6-81.6-81.6-214.3,0-295.9
			c50.1-50.1,121.6-71.4,191.1-56.8c9.7,2,19.3-4.2,21.3-13.9s-4.2-19.3-13.9-21.3C214.3-11.9,130.6,13,71.8,71.8
			C25.5,118.1,0,179.7,0,245.2s25.5,127.1,71.8,173.4s107.9,71.8,173.4,71.8s127.1-25.5,173.4-71.8s71.8-107.9,71.8-173.4
			S464.9,118.1,418.6,71.8z"/>
	</g>
</g>
<path d="M219,278.6l-47.1-47.1c-7-7-18.4-7-25.4,0l0,0c-7,7-7,18.4,0,25.4l47.1,47.1c7,7,18.4,7,25.4,0l0,0
	C226,296.9,226,285.6,219,278.6z"/>
<path d="M221,302.3l104-104c7-7,7-18.4,0-25.4l0,0c-7-7-18.4-7-25.4,0l-104,104c-7,7-7,18.4,0,25.4l0,0
	C202.6,309.3,214,309.3,221,302.3z"/>
</svg>
