<?xml version="1.0" encoding="utf-8"?>
<!-- Generator: Adobe Illustrator 23.0.2, SVG Export Plug-In . SVG Version: 6.00 Build 0)  -->
<svg version="1.1" id="Capa_1" xmlns="http://www.w3.org/2000/svg" xmlns:xlink="http://www.w3.org/1999/xlink" x="0px" y="0px"
	 viewBox="0 0 365 365" style="enable-background:new 0 0 365 365;" xml:space="preserve">
<g>
	<g>
		<path d="M154.5,146.8c0,6.9,5.6,12.5,12.5,12.5h31c6.9,0,12.5-5.6,12.5-12.5c0-6.9-5.6-12.5-12.5-12.5h-31
			C160.1,134.3,154.5,139.9,154.5,146.8z"/>
		<path d="M331.8,102.5L199,7.7c-9.9-7.1-23.2-7.1-33.1,0c0,0-111,83-112.9,84.5c-15.7,11.8-31.7,19.4-31.7,47.7v194.3
			c0,15.7,12.7,28.4,28.4,28.4h265.5c15.7,0,28.4-12.7,28.4-28.4V125.6C343.7,116.4,339.2,107.8,331.8,102.5z M309.3,331.6H55.7
			V130.4L71,119.6c0,0,0.1-0.1,0.1-0.1l111.4-79.6l126.8,90.6V331.6z"/>
	</g>
</g>
</svg>
