<?xml version="1.0" encoding="utf-8"?>
<!-- Generator: Adobe Illustrator 23.0.2, SVG Export Plug-In . SVG Version: 6.00 Build 0)  -->
<svg version="1.1" id="Layer_1" xmlns="http://www.w3.org/2000/svg" xmlns:xlink="http://www.w3.org/1999/xlink" x="0px" y="0px"
	 viewBox="0 0 490.4 490.4" style="enable-background:new 0 0 490.4 490.4;" xml:space="preserve">
<g>
	<g>
		<path d="M418.6,71.8c-7-7-18.4-7-25.4,0l-56,55.9c-7,7-7,18.4,0,25.5c7,7,18.4,7,25.5,0l42.7-42.7
			c69.2,82.1,65.1,205.3-12.2,282.6c-39.5,39.5-92.1,61.3-148,61.3s-108.4-21.7-148-61.2c-81.6-81.6-81.6-214.3,0-295.9
			c50.1-50.1,121.6-71.4,191.1-56.8c9.7,2,19.3-4.2,21.3-13.9s-4.2-19.3-13.9-21.3C214.3-11.9,130.6,13,71.8,71.8
			C25.5,118.1,0,179.7,0,245.2s25.5,127.1,71.8,173.4s107.9,71.8,173.4,71.8s127.1-25.5,173.4-71.8s71.8-107.9,71.8-173.4
			S464.9,118.1,418.6,71.8z"/>
	</g>
</g>
<path d="M144.6,240.3h-14.8c-9.9,0-17.9,8-17.9,17.9v0c0,9.9,8,17.9,17.9,17.9h14.8c9.9,0,17.9-8,17.9-17.9v0
	C162.5,248.3,154.5,240.3,144.6,240.3z"/>
<path d="M201.5,240.3h-14.8c-9.9,0-17.9,8-17.9,17.9v0c0,9.9,8,17.9,17.9,17.9h14.8c9.9,0,17.9-8,17.9-17.9v0
	C219.5,248.3,211.4,240.3,201.5,240.3z"/>
<path d="M258.5,240.3h-14.8c-9.9,0-17.9,8-17.9,17.9v0c0,9.9,8,17.9,17.9,17.9h14.8c9.9,0,17.9-8,17.9-17.9v0
	C276.4,248.3,268.4,240.3,258.5,240.3z"/>
<path d="M315.4,240.3h-14.8c-9.9,0-17.9,8-17.9,17.9v0c0,9.9,8,17.9,17.9,17.9h14.8c9.9,0,17.9-8,17.9-17.9v0
	C333.4,248.3,325.3,240.3,315.4,240.3z"/>
<path d="M372.4,240.3h-14.8c-9.9,0-17.9,8-17.9,17.9v0c0,9.9,8,17.9,17.9,17.9h14.8c9.9,0,17.9-8,17.9-17.9v0
	C390.3,248.3,382.3,240.3,372.4,240.3z"/>
</svg>
