<?xml version="1.0" encoding="utf-8"?>
<!-- Generator: Adobe Illustrator 23.0.2, SVG Export Plug-In . SVG Version: 6.00 Build 0)  -->
<svg version="1.1" id="Layer_1" xmlns="http://www.w3.org/2000/svg" xmlns:xlink="http://www.w3.org/1999/xlink" x="0px" y="0px"
	 viewBox="0 0 512 512" style="enable-background:new 0 0 512 512;" xml:space="preserve">
<path d="M392.6,7.8H132.2C85,7.8,46.8,46,46.8,93.2v38.9c0,27.4,40.2,26.9,40.5,2V93.2c0-24.8,20-44.8,44.8-44.8h260.5
	c24.8,0,44.8,20,44.8,44.8v260.5c0,24.8-20,44.8-44.8,44.8H153.9c-4.4,0-8.6,1.4-12.2,4.1l-54.4,40.8V221.1c0-26-40.5-24.2-40.5,0
	v262.8c0,16.6,19,26.3,32.4,16.2l81.4-61.1h232c47.2,0,85.4-38.2,85.4-85.4V93.2C478,46,439.8,7.8,392.6,7.8z"/>
<path d="M370.9,116.3h-217c-11.2,0-20.3,9.1-20.3,20.3c0,11.2,9.1,20.3,20.3,20.3h217c11.2,0,20.3-9.1,20.3-20.3
	C391.2,125.4,382.1,116.3,370.9,116.3z"/>
<path d="M370.9,203.2h-217c-11.2,0-20.3,9.1-20.3,20.3c0,11.2,9.1,20.3,20.3,20.3h217c11.2,0,20.3-9.1,20.3-20.3
	C391.2,212.2,382.1,203.2,370.9,203.2z"/>
<path d="M262.4,290H153.9c-11.2,0-20.3,9.1-20.3,20.3s9.1,20.3,20.3,20.3h108.5c11.2,0,20.3-9.1,20.3-20.3S273.6,290,262.4,290z"/>
</svg>
